<svg xmlns="http://www.w3.org/2000/svg" id="Capa_1" width="500" height="93.3" viewBox="0 0 500 93.3"><defs><style>      .st0 {        fill: #f3990b;      }      .st1 {        fill: #f6b248;      }    </style></defs><path class="st0" d="M63.7.5c.2,0,.4,0,.6,0h29.9c.3,0,.4.1.4.4v.4c0,9.8,0,19.5,0,29.3,0,.5-.2.9-.5,1.2-9.9,9.9-19.8,19.8-29.7,29.7-.2.2-.3.3-.5.4.2.2.4.1.6.1h29.6q.5,0,.5.5v29.6c0,.2,0,.4,0,.6-.2,0-.4,0-.6,0h-30c-.2,0-.3-.2-.3-.4,0-.2,0-.4,0-.6v-28.9c0-.1,0-.3,0-.5-.2,0-.3.2-.4.4-9.8,9.8-19.6,19.6-29.4,29.4-.2.2-.5.5-.8.6H2.2c-.2-.2-.2-.4-.2-.6v-30.1c0-.3.3-.5.5-.8,3.5-3.5,6.9-6.9,10.4-10.3,6.4-6.4,12.8-12.8,19.2-19.2.2-.2.4-.4.6-.6-.2,0-.5,0-.7,0H3c-.3,0-.7.1-.9-.2,0-.2,0-.4,0-.6V1c0-.7,0-.6.6-.6h30.1c.2,0,.3.2.3.4,0,.2,0,.5,0,.7v29.2s0,0,0,.1c.2,0,.3-.2.4-.4,9.8-9.8,19.6-19.6,29.4-29.4.2-.2.4-.5.7-.6h0Z"></path><path d="M428,.4h67.7c.3.2.3.5.3.8v14.5c0,.2,0,.5,0,.7,0,.3-.2.5-.5.5-.3,0-.6,0-.9,0h-46.3c-1.3,0-1.2,0-1.2,1.3v16.9c0,.2,0,.4,0,.5,0,.4.2.6.6.6.2,0,.4,0,.6,0h42.4c.9,0,1.3.4,1.3,1.3v13.7c0,.9-.5,1.4-1.4,1.4h-42.5c-.7,0-1.1.4-1.1,1.1v21.2c0,.7.4,1.1,1.1,1.1h48.8c.4,0,.8,0,1.1.2v16.6h-70.1c-.1-.2-.2-.3-.2-.6V1.7c0-.2,0-.5,0-.8,0-.2,0-.4.3-.6h0Z"></path><path d="M215.9.4c.1.2,0,.4,0,.7v74.5c0,.5.2.7.7.7h44.6c.2,0,.5,0,.7,0,0,.2,0,.3,0,.5v15.4c0,.4-.2.6-.6.6h-64.2c-.4,0-.6-.2-.6-.6V1c0-.2,0-.4,0-.5,0,0,0,0,0,0s0,0,0,0h19.2Z"></path><path d="M303,.5c0,.2,0,.4,0,.6v91.2c0,.2,0,.5,0,.7h-19.2V1.2c0-.2,0-.4,0-.6.1-.1.3,0,.4,0h18.4c.1,0,.3,0,.4,0h0Z"></path><path d="M196.7.5c0,.3,0,.5,0,.8v90.8c0,.5.3.8.8.8h63.7c.9,0,.8,0,.8-.8v-15.8s.1,0,.1,0c0,.1,0,.2,0,.4v15.7c0,.1,0,.3,0,.4h-65.6c0-.2,0-.5,0-.7V1.1c0-.2-.1-.5,0-.6h0Z"></path><path class="st1" d="M63.8,92.9s0,0,0-.1h30.8c0,.1-30.8.1-30.8.1h0Z"></path><path d="M345.2.4s0,0,0,.1c-.2.2-.5.2-.7.2h-19.4c-.2,0-.3,0-.5,0-.1,0,0-.2,0-.2h20.7,0Z"></path><path d="M385.5.5s0,0,0,0h20.1c0,.1,0,.2,0,.3-.5,0-1,0-1.5,0h-17.5c-.3,0-.7,0-1-.2Z"></path><path d="M303,.5h-18.8c-.1,0-.2,0-.4,0,0,0,0,0,0-.1h19.2c0,.1,0,.1,0,.1Z"></path><path d="M355.8,92.9s0,0,0,0c.2-.2.5-.2.7-.2h16.8c.2,0,.5,0,.7.2,0,0,0,0,0,0h-18.2Z"></path><path d="M374.1,92.8h-18.3c-.5-1.1-.8-2.3-1.2-3.5-3.1-9.2-6.2-18.3-9.3-27.5-5.4-15.9-10.8-31.9-16.2-47.8-1.5-4.5-3-8.9-4.5-13.4.1-.2.3-.1.5-.1h19.4c.2,0,.5,0,.7,0,.7,2.5,1.4,5,2.1,7.5,4.5,15.6,8.9,31.2,13.4,46.7,1.5,5.2,3,10.4,4.5,15.5,0,0,0,.1,0,.2.2,0,.2-.3.2-.5,1.3-4.5,2.6-9,3.9-13.4,3.8-13.3,7.7-26.6,11.5-40,1.5-5.3,3-10.6,4.6-15.8,0,0,0-.2.1-.2h19.8c.2,0,.1.1.2.2-2.3,6.9-4.7,13.7-7,20.6-4.4,12.9-8.8,25.7-13.2,38.6-3.7,10.8-7.4,21.6-11.1,32.5,0,.2,0,.3-.2.4h0Z"></path></svg>