<svg xmlns="http://www.w3.org/2000/svg" id="Capa_1" width="619.9" height="143.8" viewBox="0 0 619.9 143.8"><defs><style>      .st0 {        fill: #38574e;      }    </style></defs><path class="st0" d="M126.3,107.1v-42.6s0-8.6-5.2-13.7c0,0,8,7.8,8,16v37.1l-2.8,3.1Z"></path><path class="st0" d="M38,40.5h63.4s9.5,0,14.5,5.1c0,0-7.3-7.9-15.4-7.9h-59.5l-3,2.8Z"></path><path class="st0" d="M43.3,35.2h54.5s9,0,13.8,5.1c0,0-6.9-7.9-14.6-7.9h-50.6l-3.1,2.8Z"></path><path class="st0" d="M48.6,29.5h44.6s9,.5,13.5,5.6c0,0-7-8.4-14.2-8.4h-40.8l-3.1,2.8Z"></path><path class="st0" d="M123.6,61.7c.9,7.7,0,47.8,0,47.8l-2.8,3.1v-49.2s-.4-10.2-2.2-13.1c-1.7-2.8-8.3-4.6-13.4-4.6H32.9l3.1-2.8h68.3s8.6.1,13.8,6.5c5.2,6.4,5.2,9.5,5.5,12.4"></path><path class="st0" d="M111.9,46.5s.8,4.2.8,9.9v64.2l-2.8,3.1s.3-73.3-.4-77.7c0,0,1.5.1,2.5.5"></path><path class="st0" d="M116,47.9s2.5,3.2,2.3,15c-.2,11.4,0,52.6,0,52.6l-2.8,2.9v-60.7s-.3-8.6-1.5-11.1c0,0,1.1.9,2,1.2"></path><path class="st0" d="M90.5,90.4h-23s-8.7-.7-13.8-5.9c0,0,6.5,8.8,14.7,8.8h22.2v-2.9Z"></path><path class="st0" d="M90.5,95.9h-19.4s-9.1,0-13.9-5.2c0,0,7,8.1,14.8,8.1h18.5v-2.9Z"></path><path class="st0" d="M90.5,101.4h-16.1s-9.1,0-13.6-5.2c0,0,7.1,8.1,14.4,8.1h15.3v-2.9Z"></path><path class="st0" d="M64.7,85.4s-.8-5.3-.8-11.2v-8.8h2.8s-.3,16.1.4,20.5c0,0-1.5-.1-2.5-.6"></path><path class="st0" d="M61,74.2s.2,9.6,1.5,11.9c0,0-1.1-.8-2-1.2,0,0-2.6-4.3-2.3-15.7v-3.8h2.8v8.8Z"></path><path class="st0" d="M69.7,85.4s-.8-4.3-.8-10.1v-9.9h2.8s-.3,16,.4,20.5c0,0-1.5-.1-2.5-.6"></path><path class="st0" d="M90.5,85v3.1s-20.6,0-20.6,0c0,0-5.4.3-10.9-3.5-4.7-3.2-6.5-9.5-6.5-12.9,0-1.5,0-6.2,0-6.2h2.8s-1.1,16.1,3.7,18.2c4.7,2,8.4,1.5,13.1,1.6s18.3-.2,18.3-.2"></path><path class="st0" d="M202.4,69.2c0,14-10.2,24.3-24.7,24.3s-24.6-10.3-24.6-24.3,10.2-24.3,24.6-24.3,24.7,10.3,24.7,24.3M162.9,69.2c0,9.1,6.3,15.3,14.9,15.3s14.9-6.2,14.9-15.3-6.2-15.3-14.9-15.3-14.9,6.2-14.9,15.3"></path><path class="st0" d="M253.6,93.4h-9.1l-21.9-28.8c-.9-1.2-2.8-.5-2.8.9v27.9h-9.7v-48.5h9l21.9,28.8c.9,1.2,2.8.5,2.8-.9v-27.9h9.7v48.5Z"></path><rect class="st0" x="269.4" y="44.9" width="9.7" height="48.5"></rect><path class="st0" d="M318.7,72.8l13.9,20.6h-11.3l-11.2-17.3-11.2,17.3h-11.2l13.9-20.6c1.6-2.4,1.6-5.6,0-8l-13.4-19.9h11.4l10.7,16.6,10.7-16.6h11.2l-13.4,19.9c-1.6,2.4-1.6,5.6,0,8"></path><path class="st0" d="M391,92.9h-30.9c-2.1,0-3.7-1.7-3.7-3.7v-43.8h9.5v34.9c0,2.1,1.7,3.7,3.7,3.7h21.4v8.9Z"></path><rect class="st0" x="398.5" y="45.4" width="9.5" height="47.5"></rect><path class="st0" d="M443.4,93h-11.5l-17.9-47.5h10.1l11.8,32.8c.6,1.7,3,1.7,3.7,0l11.8-32.8h9.8l-17.9,47.5Z"></path><rect class="st0" x="471.6" y="45.4" width="9.5" height="47.5"></rect><path class="st0" d="M536,93h-8.9l-22.4-29.5c-.6-.7-1.7-.3-1.7.6v28.9h-9.5v-47.5h8.9l22.4,29.5c.6.7,1.7.3,1.7-.6v-28.9h9.5v47.5Z"></path><path class="st0" d="M584.4,52.4l-6.6,6.5c-2.6-3-6.4-4.8-11.1-4.8-8.4,0-14.5,6.2-14.5,15.2s6.4,15.3,14.4,15.3,11.9-3.6,13.1-10.2h-11.7v-7.7h21.2c0,.9.1,1.7.1,2.6,0,13.9-9.4,23.8-22.5,23.8s-24.1-9-24.1-23.8,10.2-23.9,24.3-23.9,13.4,2.6,17.5,7.1"></path></svg>