<?xml version="1.0" encoding="UTF-8"?>
<svg id="Capa_1" xmlns="http://www.w3.org/2000/svg" width="841.5" height="519.7" version="1.1" viewBox="0 0 841.5 519.7">
  <!-- Generator: Adobe Illustrator 30.6.0, SVG Export Plug-In . SVG Version: 2.1.4 Build 109)  -->
  <defs>
    <style>
      .st0 {
        fill: #fff;
      }
    </style>
  </defs>
  <g>
    <path class="st0" d="M331.7,247c-.7,0-1.3-.3-1.8-.8-.8-1-.7-2.4.3-3.2l74.2-62.2-87.3,50.3c-1.1.6-2.5.2-3.1-.8-.6-1.1-.3-2.5.8-3.1l110-63.5c1-.6,2.3-.3,3,.7s.5,2.3-.4,3.1l-94.3,79c-.4.3-.9.5-1.4.5"/>
    <path class="st0" d="M426.1,167.9c-1.3,0-2.3-1-2.3-2.3s1-2.3,2.3-2.3h.1c1.3,0,2.3,1,2.3,2.3-.1,1.3-1.1,2.3-2.4,2.3"/>
    <path class="st0" d="M426.1,167.9c-1.3,0-2.3-1-2.3-2.3s1-2.3,2.3-2.3h.1c1.3,0,2.3,1,2.3,2.3-.1,1.3-1.1,2.3-2.4,2.3"/>
    <path class="st0" d="M426.1,167.9c-1.3,0-2.3-1-2.3-2.3s1-2.3,2.3-2.3h.1c1.3,0,2.3,1,2.3,2.3-.1,1.3-1.1,2.3-2.4,2.3"/>
    <path class="st0" d="M316,231.4c-.8,0-1.6-.4-2-1.1-.6-1.1-.3-2.5.8-3.1l87.2-50.3-98.9,36-1.6-4.3,123.6-45c1.1-.4,2.4.1,2.9,1.2s.1,2.4-.9,3l-110,63.5c-.4,0-.7,0-1.1,0"/>
    <path class="st0" d="M302.4,212.9c-.9,0-1.8-.6-2.2-1.5-.4-1.2.2-2.5,1.4-3l98.9-36-108.7,19.1c-1.2.3-2.4-.6-2.7-1.9-.2-1.3.6-2.4,1.9-2.7l134.6-23.7c1.2-.2,2.3.5,2.6,1.7.3,1.2-.3,2.4-1.4,2.8l-123.6,45c-.3.1-.6.2-.8.2"/>
    <path class="st0" d="M426.1,167.9c-1.3,0-2.3-1-2.3-2.3s1-2.3,2.3-2.3h.1c1.3,0,2.3,1,2.3,2.3-.1,1.3-1.1,2.3-2.4,2.3"/>
    <path class="st0" d="M568,167.9h-142c-1.2,0-2.2-.9-2.3-2.1-.1-1.2.7-2.3,1.9-2.5l145.3-25.6c1.2-.3,2.4.6,2.7,1.9.2,1.3-.6,2.4-1.9,2.7l-119.3,21h115.7c1.3,0,2.3,1,2.3,2.3,0,1.3-1.1,2.3-2.4,2.3"/>
    <path class="st0" d="M560.6,191.6h-.4l-134.6-23.7c-1.2-.2-2-1.3-1.9-2.5s1.1-2.1,2.3-2.1h142c1.3,0,2.3,1,2.3,2.3s-1,2.3-2.3,2.3h-115.7l108.7,19.1c1.2.2,2.1,1.4,1.9,2.7-.2,1.1-1.2,1.9-2.3,1.9"/>
    <path class="st0" d="M291.8,191.6l-.8-4.5,108.7-19.1h-115.7c-1.3,0-2.3-1-2.3-2.3s1-2.3,2.3-2.3h142c1.2,0,2.2.9,2.3,2.1.1,1.2-.7,2.3-1.9,2.5l-134.6,23.6Z"/>
    <path class="st0" d="M426,167.9c-1,0-2-.7-2.2-1.7-.3-1.2.3-2.4,1.4-2.8l143.9-52.3c1.2-.4,2.5.2,3,1.4.4,1.2-.2,2.5-1.4,3l-119.1,43.3,119.3-21c1.2-.3,2.4.6,2.7,1.9.2,1.3-.6,2.4-1.9,2.7l-145.3,25.6c0-.1-.3-.1-.4-.1"/>
    <path class="st0" d="M426,167.9h-.4l-145.3-25.6.8-4.5,119.3,21-119.1-43.3c-1.2-.4-1.8-1.8-1.4-3s1.8-1.8,3-1.4l143.9,52.3c1.1.4,1.7,1.6,1.4,2.8-.2,1-1.2,1.7-2.2,1.7"/>
    <path class="st0" d="M426,167.9h-142c-1.3,0-2.3-1-2.3-2.3s1-2.3,2.3-2.3h115.7l-119.3-21c-1.3-.2-2.1-1.4-1.9-2.7.2-1.3,1.4-2.1,2.7-1.9l145.2,25.6c1.2.2,2,1.3,1.9,2.5,0,1.2-1.1,2.1-2.3,2.1"/>
    <path class="st0" d="M426,165.6"/>
    <path class="st0" d="M484.6,269.4c-.8,0-1.6-.4-2-1.1l-58.6-101.5c-.6-1-.3-2.3.7-3s2.3-.5,3.1.4l77,91.7-3.5,3-60.1-71.6,45.5,78.7c.6,1.1.3,2.5-.8,3.1-.5.2-.9.3-1.3.3"/>
    <path class="st0" d="M465.5,276.3c-.9,0-1.8-.6-2.2-1.5l-39.5-108.4c-.4-1.1.1-2.4,1.2-2.9s2.4-.1,3,.9l58.6,101.5c.6,1.1.3,2.5-.8,3.1s-2.5.3-3.2-.8l-45.4-78.7,30.5,83.6c.4,1.2-.2,2.5-1.4,3-.3.1-.6.2-.8.2"/>
    <path class="st0" d="M426,281.8c-1.3,0-2.3-1-2.3-2.3v-87.6l-15.3,86.5c-.2,1.3-1.5,2.1-2.7,1.9-1.3-.2-2.1-1.4-1.9-2.7l19.8-112.4c.2-1.2,1.1-2,2.5-1.9,1.2.1,2.1,1.1,2.1,2.3v113.9c.1,1.3-.9,2.3-2.2,2.3"/>
    <path class="st0" d="M349,259.6c-.5,0-1-.2-1.5-.5-1-.8-1.1-2.3-.3-3.2l60.1-71.6-74.2,62.2c-1,.8-2.4.7-3.2-.3-.8-1-.7-2.4.3-3.2l94.3-79.1c.9-.8,2.3-.7,3.1.1s.9,2.2.1,3.1l-77,91.7c-.4.5-1.1.8-1.7.8"/>
    <path class="st0" d="M445.8,280.3c-1.1,0-2.1-.8-2.3-1.9l-19.8-112.4c-.2-1.2.5-2.3,1.7-2.6,1.2-.3,2.4.3,2.8,1.4l39.5,108.4c.4,1.2-.2,2.5-1.4,3-1.2.4-2.5-.2-2.9-1.4l-30.5-83.6,15.3,86.5c.2,1.3-.6,2.4-1.9,2.7-.2-.1-.3-.1-.5-.1"/>
    <path class="st0" d="M549.6,212.9c-.3,0-.5,0-.8-.1l-123.6-45c-1.1-.4-1.7-1.6-1.4-2.8.3-1.1,1.5-1.9,2.6-1.7l134.6,23.7c1.2.2,2.1,1.4,1.9,2.7-.2,1.3-1.4,2.1-2.7,1.9l-108.7-19.1,98.9,36c1.2.4,1.8,1.8,1.4,3-.4.8-1.2,1.4-2.2,1.4"/>
    <path class="st0" d="M536,231.4c-.4,0-.8-.1-1.2-.3l-110-63.5c-1-.6-1.4-1.9-.9-3s1.7-1.6,2.9-1.2l123.6,45c1.2.4,1.8,1.8,1.4,3-.4,1.2-1.7,1.8-3,1.4l-98.9-36,87.2,50.3c1.1.6,1.5,2,.8,3.1-.3.8-1.1,1.2-1.9,1.2"/>
    <path class="st0" d="M503,259.6c-.7,0-1.3-.3-1.8-.8l-77-91.7c-.8-.9-.7-2.3.1-3.1.8-.9,2.2-.9,3.1-.1l94.3,79.1c1,.8,1.1,2.3.3,3.2-.8,1-2.3,1.1-3.2.3l-74.2-62.2,60.1,71.6c.8,1,.7,2.4-.3,3.2-.3.3-.9.5-1.4.5"/>
    <path class="st0" d="M518.8,246.5l-94.3-79.1c-.9-.8-1.1-2.1-.4-3.1s2-1.3,3-.7l110,63.5c1.1.6,1.5,2,.8,3.1-.6,1.1-2,1.5-3.1.8l-87.2-50.3,74.2,62.2-3,3.6Z"/>
    <path class="st0" d="M426,281.8c-1.3,0-2.3-1-2.3-2.3v-113.9c0-1.2.9-2.2,2.1-2.3,1.3-.1,2.3.7,2.5,1.9l19.8,112.4c.2,1.3-.6,2.4-1.9,2.7-1.2.2-2.4-.6-2.7-1.9l-15.3-86.5v87.6c.1,1.3-.9,2.3-2.2,2.3"/>
    <path class="st0" d="M386.5,276.3c-.3,0-.5,0-.8-.1-1.2-.4-1.8-1.8-1.4-3l30.5-83.6-45.5,78.7c-.6,1.1-2,1.5-3.1.8-1.1-.6-1.5-2-.8-3.1l58.6-101.5c.6-1,1.9-1.5,3-.9,1.1.5,1.6,1.8,1.2,2.9l-39.5,108.4c-.3.8-1.2,1.4-2.2,1.4"/>
    <path class="st0" d="M406.2,280.3h-.4c-1.3-.2-2.1-1.4-1.9-2.7l15.3-86.5-30.5,83.6c-.4,1.2-1.7,1.8-3,1.4-1.2-.4-1.8-1.8-1.4-3l39.5-108.4c.4-1.1,1.6-1.7,2.8-1.4,1.1.3,1.9,1.4,1.7,2.6l-19.8,112.4c-.3,1.2-1.2,2-2.3,2"/>
    <path class="st0" d="M369.3,268.3l-4-2.3,45.5-78.7-60.1,71.6c-.8,1-2.3,1.1-3.2.3-1-.8-1.1-2.3-.3-3.2l77-91.7c.8-.9,2.1-1.1,3.1-.4s1.3,2,.7,3l-58.7,101.4Z"/>
    <path class="st0" d="M426.1,167.9c-1.3,0-2.3-1-2.3-2.3s1-2.3,2.3-2.3h.1c1.3,0,2.3,1,2.3,2.3-.1,1.3-1.1,2.3-2.4,2.3"/>
    <path class="st0" d="M426,165.6"/>
    <path class="st0" d="M426.1,167.9c-1.3,0-2.3-1-2.3-2.3s1-2.3,2.3-2.3h.1c1.3,0,2.3,1,2.3,2.3-.1,1.3-1.1,2.3-2.4,2.3"/>
    <path class="st0" d="M426,165.6h0Z"/>
    <path class="st0" d="M426.1,167.9c-1.3,0-2.3-1-2.3-2.3s1-2.3,2.3-2.3h.1c1.3,0,2.3,1,2.3,2.3-.1,1.3-1.1,2.3-2.4,2.3"/>
    <path class="st0" d="M426.1,167.9c-1.3,0-2.3-1-2.3-2.3s1-2.3,2.3-2.3h.1c1.3,0,2.3,1,2.3,2.3-.1,1.3-1.1,2.3-2.4,2.3"/>
    <path class="st0" d="M426.1,167.9c-1.3,0-2.3-1-2.3-2.3s1-2.3,2.3-2.3h.1c1.3,0,2.3,1,2.3,2.3-.1,1.3-1.1,2.3-2.4,2.3"/>
    <path class="st0" d="M426.1,167.9c-1.3,0-2.3-1-2.3-2.3s1-2.3,2.3-2.3h.1c1.3,0,2.3,1,2.3,2.3-.1,1.3-1.1,2.3-2.4,2.3"/>
    <path class="st0" d="M426,165.6h0Z"/>
    <path class="st0" d="M426.1,167.9c-1.3,0-2.3-1-2.3-2.3s1-2.3,2.3-2.3h.1c1.3,0,2.3,1,2.3,2.3-.1,1.3-1.1,2.3-2.4,2.3"/>
    <path class="st0" d="M426,148.9c-8.9,0-16.1-7.2-16.1-16.1s7.2-16.1,16.1-16.1,16.1,7.2,16.1,16.1-7.2,16.1-16.1,16.1M426,121.3c-6.3,0-11.5,5.1-11.5,11.5s5.1,11.5,11.5,11.5,11.5-5.1,11.5-11.5-5.2-11.5-11.5-11.5"/>
    <path class="st0" d="M434.9,11.2c0,4.9-4,8.9-8.9,8.9s-8.9-4-8.9-8.9,4-8.9,8.9-8.9,8.9,4,8.9,8.9"/>
    <path class="st0" d="M426,22.4c-6.2,0-11.2-5-11.2-11.2s5-11.2,11.2-11.2,11.2,5,11.2,11.2-5,11.2-11.2,11.2M426,4.6c-3.6,0-6.6,3-6.6,6.6s3,6.6,6.6,6.6,6.6-3,6.6-6.6-3-6.6-6.6-6.6"/>
    <path class="st0" d="M426,119.3c-1.3,0-2.3-1-2.3-2.3V8c0-1.3,1-2.3,2.3-2.3s2.3,1,2.3,2.3v109c0,1.3-1,2.3-2.3,2.3"/>
    <path class="st0" d="M458.9,47.1h-63.9c-1.3,0-2.3-1-2.3-2.3s1-2.3,2.3-2.3h63.9c1.3,0,2.3,1,2.3,2.3s-1,2.3-2.3,2.3"/>
    <path class="st0" d="M458.9,69.3h-63.9c-1.3,0-2.3-1-2.3-2.3s1-2.3,2.3-2.3h63.9c1.3,0,2.3,1,2.3,2.3s-1,2.3-2.3,2.3"/>
    <path class="st0" d="M458.9,91.5h-63.9c-1.3,0-2.3-1-2.3-2.3s1-2.3,2.3-2.3h63.9c1.3,0,2.3,1,2.3,2.3s-1,2.3-2.3,2.3"/>
  </g>
  <g>
    <g>
      <path class="st0" d="M132.5,390.3c-21.6-27.1-64.6-38.7-97.2-26.4-17.7,6.6-33.4,19.8-15.2,37.3,9.6,8.9,28,17.5,56,24.6,22.8,6.1,58.7,17.3,62.4,45.3,2.3,18.7-14.8,31.9-32.8,39.6-28.4,12.1-75.3,6.8-101.3-3.9v-29.1c24.8,38.7,70.3,44.4,101.5,30.3,11.8-5.2,19.3-14.1,19.3-26.4,0-41.6-123.1-30.3-123.1-79s5.2-23,15.2-31.2c13.2-11.4,34.6-15.5,52.3-15.5,42.3,0,62.8,12.5,62.8,12.7v21.7h.1Z"/>
      <path class="st0" d="M64.5,519.7c-21.9,0-44.8-4.3-60.9-11l-1.3-.5v-37.6l3.8,6c14.2,22.1,33.4,30.7,47.1,34,17.2,4.2,36.1,2.6,51.8-4.5,8.3-3.7,18.1-10.9,18.1-24.5s-27.4-25.9-56.4-33.8C33.9,438.8,0,429.6,0,402.7s5.5-24.2,16-32.8c5.5-4.8,21.9-15.9,53.7-15.9s38.3,3.5,47.9,6.4c5.6,1.7,9.6,3.4,11.9,4.5,5.1,2.4,5.1,2.9,5.1,4v27.6l-3.7-4.6c-10.2-12.7-25.6-22.4-43.4-27.3-17.8-4.8-36.1-4.3-51.4,1.5-12.4,4.6-20.4,11.1-21.8,17.9-1,5,1.4,10.4,7.2,16,9.8,9.1,28.9,17.5,55,24.1,17.9,4.8,59.9,16.2,63.9,47,1.2,9.6-1.7,27.9-34,41.8-11.6,4.6-26.5,6.8-41.9,6.8ZM6.5,505.4c13.3,5.3,31.1,9,49,9.9-1.1-.2-2.1-.5-3.2-.7-18.5-4.5-34.2-15-45.8-30.3,0,0,0,21.1,0,21.1ZM10.5,381.9c-4.1,6.1-6.3,13.1-6.3,20.7,0,23.7,32.4,32.6,63.6,41.1,30.6,8.4,59.5,16.3,59.5,37.9s-2.4,13.5-7,18.7c9.4-6.7,17.6-16.3,16.1-28.9-3.2-24.8-32.6-35.9-60.8-43.5-26.8-6.8-46.5-15.4-56.9-25.1-7-6.7-9.8-13.4-8.4-19.9,0-.4.1-.7.2-1ZM79.4,358.2c19.5,3.3,38.1,12.6,51.1,26.5v-14.9c-3.7-2-20.2-10.1-51.1-11.6Z"/>
    </g>
    <g>
      <path class="st0" d="M251.3,467.4c-12.5,3.9-25.5.2-37.5-3.2-12.3-3.4-23.4-6.6-30.7-.5l-22.3,52.6h-2.5l58.3-136.1-9.3-23.2h22.5l62.8,159.3h-22.1l-19.2-48.9ZM184.7,459.9c16.2-8.2,42.8,12.5,65.8,5.5l-32.8-82.2-33,76.7Z"/>
      <path class="st0" d="M295.6,518.4h-26.5l-19-48.5c-12.6,3.2-25.4-.5-36.9-3.7h-.4c-11.6-3.3-21.7-6.1-28.1-1.2l-22.6,53.4h-7l59.2-138.2-10.2-25.2h27l64.5,163.4ZM271.9,514.3h17.6l-61.2-155.1h-18l8.5,21.2h0c0,0,33.7,84.7,33.7,84.7h.1l19.3,49.2ZM193.7,455.9c6.5,0,13.8,2.1,21.3,4.2,10.9,3.1,22.1,6.3,32.6,3.9l-30-75.3-29.2,67.8c1.7-.5,3.5-.6,5.3-.6Z"/>
    </g>
    <g>
      <path class="st0" d="M458.2,506.1v-149h2.3v152.2l5,7.1h-25.3l-109.4-149.1v149.1h-2v-152.3l-5.2-7.1h25.5l109.1,149.1Z"/>
      <path class="st0" d="M469.5,518.4h-30.3l-106.4-144.8v144.8h-6.2v-153.6l-7.3-9.8h30.7l106.1,144.8v-144.8h6.4v153.7l7,9.7ZM441.3,514.3h20.2l-4.9-6.9-108.7-148.3h-20.3l3.2,4.3v.4l110.5,150.5Z"/>
    </g>
    <g>
      <path class="st0" d="M589.5,467.4c-12.5,3.9-25.5.2-37.5-3.2-12.3-3.4-23.4-6.6-30.7-.5l-22.3,52.6h-2.5l58.3-136.1-9.3-23.2h22.5l62.8,159.3h-22.1l-19.2-48.9ZM522.8,459.9c16.2-8.2,42.8,12.5,65.8,5.5l-32.8-82.2-33,76.7Z"/>
      <path class="st0" d="M633.8,518.4h-26.5l-18.9-48.5c-12.6,3.2-25.4-.5-36.9-3.7h-.4c-11.6-3.3-21.7-6.1-28.1-1.2l-22.6,53.4h-7l59.2-138.2-10.2-25.3h27l64.4,163.5ZM610,514.3h17.6l-61.2-155.1h-18l8.5,21.2h0c0,0,33.7,84.7,33.7,84.7h0l19.3,49.2ZM531.9,455.9c6.5,0,13.8,2.1,21.3,4.2,10.9,3.1,22.1,6.3,32.6,3.9l-30-75.3-29.2,67.8c1.7-.5,3.5-.6,5.3-.6Z"/>
    </g>
    <g>
      <path class="st0" d="M839.4,357.1v159.3h-20.7v-155.5l-76.7,110.8h-2.5l-70.5-103.8v148.4h-2.3v-151.5l-5-7.7h23.9l66.9,95.8,66.2-95.8h20.7Z"/>
      <path class="st0" d="M841.5,518.4h-24.9v-150.8l-73.5,106.2h-4.7l-67.4-99.1v143.7h-6.4v-153l-6.7-10.4h28.8l65.8,94.2,65.1-94.2h2.7l.5-.7v.7h20.7v163.4h0ZM820.7,514.3h16.6v-155.2h-16.6v155.2ZM740.6,469.7h.3l10.3-14.9-.5-.7-66.3-94.9h-19l1.4,2.1h0l73.8,108.4Z"/>
    </g>
  </g>
</svg>