<svg xmlns="http://www.w3.org/2000/svg" id="Capa_1" width="486" height="293.7" viewBox="0 0 486 293.7"><defs><style>      .st0 {        fill: #fff;      }    </style></defs><path class="st0" d="M79.3,186.6c0-.2-.3-.2-1-.2-11,0-19,.3-24.1.9-5.1.6-9,1.9-11.7,4-2.7,2-5.2,5.4-7.3,10.2,0,.2-.2.2-.5.2s-.5,0-.7-.2c-.2-.1-.3-.2-.2-.3l4.9-20.5c0,0,.2-.1.5-.1.8,0,1.1.1,1,.4,0,.2-.1.6-.1,1,0,1,.5,1.6,1.4,2,.9.3,2.8.5,5.7.5h44.6c.4,0,.7.2.9.6.2.4.2.7,0,1l-44.2,71.5-.4.7c0,.2.3.2,1,.2h26.9c4.7,0,8.8-1.5,12.4-4.4,3.5-2.9,5.7-6.7,6.5-11.3,0-.1.3-.2.7-.2s.6,0,.6.2l-1.7,17c0,.2-.1.5-.3.8-.2.3-.5.4-.8.4-12.2-.2-31.6-.2-58.5-.2s-.7-.2-.9-.5c-.2-.4-.1-.7.1-1l44.8-71.8.4-.7Z"></path><path class="st0" d="M134,256.3c.4,1.1,1.3,1.9,2.6,2.3,1.3.4,3.3.6,6.1.6s.4.2.4.7-.1.7-.4.7c-2.6,0-4.7,0-6.2-.1h-9.1c0-.1-8.8,0-8.8,0-1.5,0-3.7.1-6.4.1s-.4-.2-.4-.7.1-.7.4-.7c2.8,0,4.8-.2,6.1-.6,1.3-.4,2.1-1.2,2.6-2.4.5-1.2.7-3,.7-5.4v-56.6c0-2.4-.2-4.2-.7-5.4-.5-1.1-1.4-1.9-2.6-2.4-1.3-.4-3.3-.7-6.1-.7s-.4-.2-.4-.7.1-.7.4-.7h6.4c3.6.3,6.5.4,8.8.4s5.6,0,9.2-.2h6.1c.2-.1.4.1.4.6s-.1.7-.4.7c-2.7,0-4.7.2-6,.7-1.3.5-2.2,1.3-2.6,2.5-.5,1.2-.7,3-.7,5.4v56.4c0,2.5.2,4.4.7,5.5"></path><path class="st0" d="M159.1,260c0-.5.1-.7.4-.7,2.8,0,4.8-.2,6.1-.6,1.3-.4,2.1-1.2,2.6-2.4.4-1.2.7-3,.7-5.4v-56.6c0-2.4-.2-4.2-.7-5.4-.5-1.1-1.3-1.9-2.6-2.4-1.3-.4-3.3-.7-6-.7s-.4-.2-.4-.7.1-.7.4-.7h50.9c.8,0,1.2.4,1.2,1.1l.2,15.9c0,.2-.2.3-.7.3-.4,0-.7,0-.8-.3-2-9.2-7.6-13.8-16.9-13.8h-5c-3,0-5.1.5-6.3,1.6-1.2,1.1-1.8,2.9-1.8,5.4v55.9c0,2.7.5,4.6,1.5,5.6,1,1.1,2.8,1.6,5.4,1.6h6c10.9,0,17.9-5.3,20.8-15.8,0-.2.2-.2.6-.2s.9.1.9.4c-.8,6.2-1.2,11.9-1.2,17s-.1,1.1-.4,1.4c-.2.3-.7.4-1.5.4h-53.1c-.2,0-.4-.2-.4-.7M192.1,222.6h-17.1v-3.2h17.2c9,0,13.5-3,13.5-9.1s.2-.4.7-.4.7.1.7.4v10.6c-.1,0,0,5.7,0,5.7.2,2.6.2,4.7.2,6.4s-.2.2-.7.2-.7,0-.7-.2c0-7-4.6-10.5-13.7-10.5"></path><path class="st0" d="M304.2,263c-.4,0-.7,0-.9-.1l-58.8-68.5c-2.8-3.2-5.2-5.4-7.3-6.7-2.1-1.3-4.2-1.9-6.2-1.9s-.4-.2-.4-.7.1-.7.4-.7h4.9c1,.2,2.4.2,4.4.2h7.8c1-.2,2.1-.2,3.4-.2s1.1.2,1.5.5c.3.3.8,1,1.5,2,1.4,1.9,2.4,3.2,3.1,3.9l46.4,54.5,1,17.2c0,.2-.2.4-.6.5M242.7,187.1l3.3.2v58.6c0,4.3.8,7.6,2.5,9.9,1.7,2.3,4.1,3.4,7.4,3.4s.4.2.4.7-.1.7-.4.7c-2.1,0-3.8,0-4.9-.1h-6.5c0-.1-7.2,0-7.2,0-1.3,0-3.2.1-5.6.1s-.4-.2-.4-.7.1-.7.4-.7c3.5,0,6.2-1.1,8.1-3.4,1.9-2.3,2.9-5.6,2.9-9.9v-58.8Z"></path><path class="st0" d="M355.7,263c-.4,0-.7,0-.9-.1l-58.8-68.5c-2.8-3.2-5.2-5.4-7.3-6.7-2.1-1.3-4.2-1.9-6.2-1.9s-.4-.2-.4-.7.1-.7.4-.7h4.9c1,.2,2.4.2,4.4.2h7.8c1-.2,2.1-.2,3.4-.2s1.1.2,1.5.5c.3.3.8,1,1.5,2,1.4,1.9,2.4,3.2,3.1,3.9l46.4,54.5,1,17.2c0,.2-.2.4-.6.5M356.3,262.5l-3.3-3.7v-59.6c0-4.3-.8-7.6-2.5-10-1.7-2.3-4.1-3.5-7.4-3.5s-.2-.2-.2-.7,0-.7.2-.7h5c2.6.3,4.8.4,6.5.4s3.8,0,6.7-.2h5.1c.2-.1.4.1.4.6s-.1.7-.4.7c-3.3,0-5.8,1.2-7.5,3.5-1.8,2.3-2.6,5.6-2.6,10v63.2Z"></path><path class="st0" d="M456.7,260c0,.5-.2.7-.5.7-1.6,0-4,0-7.5-.2-3.4-.2-5.9-.2-7.5-.2s-4.4,0-7.2.2c-2.8.2-4.9.2-6.5.2s-.5-.2-.5-.7.2-.7.5-.7c2.4,0,4.2-.3,5.3-.8,1.1-.5,1.6-1.4,1.6-2.6s-.7-3.3-2.1-6.2l-25.6-52,5-8.2-24.2,54.5c-1.1,2.4-1.6,4.6-1.6,6.6,0,2.9,1,5,3.1,6.5,2,1.5,4.9,2.2,8.6,2.2s.6.2.6.7-.2.7-.6.7c-1.5,0-3.6,0-6.4-.2-3.1-.2-5.8-.2-8.1-.2s-4.8,0-7.7.2c-2.6.2-4.8.2-6.5.2s-.6-.2-.6-.7.2-.7.6-.7c2.3,0,4.2-.4,5.7-1.3,1.5-.9,3.1-2.5,4.5-4.8,1.5-2.3,3.2-5.8,5.3-10.3l26.3-59.2c.2-.2.5-.4,1.1-.4s.9.1,1,.4l30,60.4c2.8,5.9,5.1,9.9,7,12,1.9,2.2,4,3.2,6.3,3.2s.5.2.5.7M392.7,227.7h34.2l.9,3.1h-36.7l1.6-3.1Z"></path><path class="st0" d="M259.9,57.9h9.2c.3,0,.6.2.8.5.2.3.2.6,0,.8l-37.3,60.3s-1.7,2.7-1.9,3c-1.4,0-6.6-.2-9.5-.2s-.6-.2-.7-.5c-.1-.3-.1-.6.1-.9l37.7-60.5s.7-1.1,1.6-2.6"></path><path class="st0" d="M242.8,57.8c-5.4,0-10.3,2-14.1,5.3l-.7.5c0,0-.1,0-.2.1-2.3,1.7-4.3,4.6-6.1,8.6-.1.2-.1.2-.4.2s-.4,0-.6-.2c-.2-.1-.2-.1-.2-.3l4.1-17.3c0,0,.1-.1.4-.1.7,0,.9,0,.8.3,0,.2-.1.5-.1.8,0,.8.4,1.4,1.2,1.7.8.3,2.4.4,4.8.4h11.1Z"></path><path class="st0" d="M247.7,121.9c5.4,0,10.3-2,14.1-5.3l.7-.5c0,0,.1,0,.2-.1,2.3-1.7,4.3-4.6,6.1-8.6.1-.2.1-.2.4-.2s.4,0,.6.2c.2.1.2.1.2.3l-4.1,17.3c0,0-.1.1-.4.1-.7,0-.9,0-.8-.3,0-.2.1-.5.1-.8,0-.8-.4-1.4-1.2-1.7-.8-.3-2.4-.4-4.8-.4h-11.1Z"></path><path class="st0" d="M245.4,152h-.3c-23.1,0-41.9-18.8-41.9-41.9v-40.3c0-23.1,18.8-41.9,41.9-41.9h.3c23.1,0,41.9,18.8,41.9,41.9v40.3c0,23.1-18.8,41.9-41.9,41.9M245.1,31.1c-21.3,0-38.6,17.3-38.6,38.6v40.3c0,21.3,17.3,38.6,38.6,38.6h.3c21.3,0,38.6-17.3,38.6-38.6v-40.3c0-21.3-17.3-38.6-38.6-38.6h-.3Z"></path></svg>