<svg xmlns="http://www.w3.org/2000/svg" id="Capa_1" width="8.9cm" height="1.7cm" viewBox="0 0 251.2 46.9"><defs><style>      .st0 {        fill: #fff;      }    </style></defs><path class="st0" d="M230.6,16.9l6.3,13.7h-12.5l6.2-13.7ZM226.9,8.9l-16.9,37.1h7.4l3.5-7.7h19.5l3.5,7.7h7.4l-17-37.1-3.7-8.1-3.7,8.1Z"></path><polygon class="st0" points="1.2 .8 1.2 46 2.6 46 8.5 46 25.9 46 25.9 38.3 8.5 38.3 8.5 .8 1.2 .8"></polygon><polygon class="st0" points="192 .8 191.8 .8 190.4 .8 186.1 .8 184.7 .8 184.5 .8 171.9 .8 171.9 8.4 184.5 8.4 184.5 46 184.7 46 191.8 46 192 46 192 8.4 204.6 8.4 204.6 .8 192 .8"></polygon><path class="st0" d="M55.2,46.8c-12.6,0-22.9-10.5-22.9-23.4S42.6,0,55.2,0s22.9,10.5,22.9,23.4-10.3,23.4-22.9,23.4M55.2,7.5c-8.6,0-15.6,7.1-15.6,15.9s7,15.9,15.6,15.9,15.6-7.1,15.6-15.9c-.1-8.8-7-15.9-15.6-15.9"></path><polygon class="st0" points="162.4 8.9 162.4 .8 139.7 .8 139.7 .8 134.1 .8 134.1 46 162.4 46 162.4 37.9 142.2 37.9 142.2 27.4 155.4 27.4 155.4 19.3 142.2 19.3 142.2 8.9 162.4 8.9"></polygon><path class="st0" d="M107.4,21.2h-11.6v-12.3h11.6c3.1.3,5.6,3,5.6,6.2.1,3.2-2.4,5.8-5.6,6.1M114.8,26.9c3.8-2.6,6.4-6.9,6.4-11.9,0-7.9-6.4-14.3-14.3-14.3h-19v45.3h8.1v-16.7h11l5.9,16.7h8.5l-6.6-19.1Z"></path></svg>