<svg xmlns="http://www.w3.org/2000/svg" xmlns:xlink="http://www.w3.org/1999/xlink" id="Capa_1" width="569.5" height="340.9" viewBox="0 0 569.5 340.9"><defs><style>      .st0 {        fill: none;      }      .st1 {        fill: #f9f3e6;      }    </style><clipPath id="clippath"><rect class="st0" x="868.6" y="-637.7" width="2801.9" height="1576.4"></rect></clipPath></defs><path class="st1" d="M258.9,129.5c-2.1-15.3,23.2-80.4,88.7-92.2-13.4,15.1-12.5,37.9-12.6,44.3.4,15.9-1.1,40.5-11.2,51.9-10.1,11.3-25.5,26-55.9,21.5.7-49.2,45.4-78.9,45.4-78.9,0,0-31.1,39.7-28.9,64.7,18.6,2.4,32-17.9,36.3-28.9,4.3-10,5.7-17.9,6.4-28.2.7-10.3,2.9-29.2,8.8-37,0,0-56.9,14.9-77.1,82.9"></path><path class="st1" d="M223.4,40.9c34.2,11.9,54.6,45,54.6,45l3.4-5.2c-15.8-35.8-65.7-45.2-65.7-45.2,0,0,16.4,19.8,15.2,54.6-1.2,34.8,27.6,39.2,27.6,39.2l3.9-10.1s-20.4-1.3-24.4-33.7c-4-32.3-14.6-44.5-14.6-44.5"></path><path class="st1" d="M267.2,106.5s-5.4-22.5-21.1-38.6c0,0,22.8,22,25.2,30.2-2.2,4.9-4.2,8.5-4.2,8.5"></path><polygon class="st1" points="57.4 192.2 77 233.4 95.2 192.2 99.3 192.2 75.8 245.2 73.5 245.2 48.2 192.2 57.4 192.2"></polygon><rect class="st1" x="122.5" y="192.2" width="8.7" height="51.8"></rect><polygon class="st1" points="161.3 192.2 170.1 192.2 170.1 240.7 196.2 240.7 196.2 244 161.3 244 161.3 192.2"></polygon><polygon class="st1" points="220 192.2 228.7 192.2 228.7 240.7 254.8 240.7 254.8 244 220 244 220 192.2"></polygon><path class="st1" d="M298.9,191l24.4,53h-8.9l-7.9-17.3h-22.2l-8.2,17.3h-4.4l25-53h2.2ZM285.8,223.4h19.1l-9.4-20.5-9.7,20.5Z"></path><polygon class="st1" points="346.5 192.2 355.2 192.2 355.2 240.7 381.3 240.7 381.3 244 346.5 244 346.5 192.2"></polygon><polygon class="st1" points="445.8 192.2 445.8 195.6 427 195.6 427 244 418.3 244 418.3 195.6 399.6 195.6 399.6 192.2 445.8 192.2"></polygon><path class="st1" d="M490.6,191l24.4,53h-8.9l-7.9-17.3h-22.2l-8.2,17.3h-4.4l25-53h2.2ZM477.5,223.4h19.1l-9.4-20.5-9.7,20.5Z"></path><polygon class="st1" points="183 269.1 187 269.1 187 294.7 200.4 294.7 200.4 298.4 183 298.4 183 269.1"></polygon><path class="st1" d="M219.8,269.1h3.6l12.5,29.3h-4.6l-2.9-7.2h-13.9l-2.9,7.2h-4.6l12.9-29.3ZM226.9,287.7l-5.5-13.4h0l-5.5,13.4h11.1Z"></path><path class="st1" d="M270.9,282v14.4c-.7.4-1.5.8-2.4,1.2-.9.3-1.9.6-2.8.8-1,.2-2,.4-3,.5-1,.1-1.9.2-2.8.2-2.5,0-4.7-.4-6.6-1.2-1.9-.8-3.6-1.9-4.9-3.3-1.3-1.4-2.4-3-3.1-4.9-.7-1.9-1.1-3.8-1.1-5.9s.4-4.2,1.1-6.1c.8-1.9,1.8-3.5,3.1-4.9,1.3-1.4,2.9-2.5,4.8-3.2,1.9-.8,3.9-1.2,6.2-1.2s4.9.3,6.6,1c1.7.7,3.1,1.6,4.3,2.8l-2.8,3c-1.2-1.2-2.5-2-3.8-2.4-1.3-.5-2.8-.7-4.3-.7s-3.2.3-4.5.9-2.5,1.5-3.5,2.5c-1,1-1.7,2.3-2.2,3.7-.5,1.4-.8,2.9-.8,4.5s.3,3.2.9,4.6c.6,1.4,1.4,2.7,2.4,3.7,1,1,2.2,1.9,3.6,2.5,1.4.6,2.9.9,4.5.9s2.7-.1,4-.4c1.3-.3,2.3-.6,3.2-1.1v-8.1h-6.5v-3.7h10.5Z"></path><path class="st1" d="M287.7,269.1v17.9c0,.9.1,1.9.4,2.8.2,1,.7,1.9,1.2,2.7.6.8,1.3,1.5,2.3,2,.9.5,2.1.8,3.5.8s2.5-.3,3.5-.8c.9-.5,1.7-1.2,2.3-2,.6-.8,1-1.7,1.2-2.7.2-1,.4-1.9.4-2.8v-17.9h4v18.6c0,1.7-.3,3.3-.9,4.6-.6,1.4-1.4,2.6-2.4,3.6-1,1-2.2,1.8-3.6,2.4-1.4.6-2.9.8-4.5.8s-3.1-.3-4.5-.8c-1.4-.6-2.6-1.3-3.6-2.4-1-1-1.8-2.2-2.4-3.6-.6-1.4-.9-2.9-.9-4.6v-18.6h4Z"></path><polygon class="st1" points="319.6 269.1 324.8 269.1 340.9 293.2 341 293.2 341 269.1 344.9 269.1 344.9 298.4 339.9 298.4 323.6 274.3 323.5 274.3 323.5 298.4 319.6 298.4 319.6 269.1"></polygon><path class="st1" d="M367.8,269.1h3.6l12.5,29.3h-4.6l-2.9-7.2h-13.9l-2.9,7.2h-4.6l12.9-29.3ZM374.9,287.7l-5.5-13.4h0l-5.5,13.4h11.1Z"></path></svg>