<svg xmlns="http://www.w3.org/2000/svg" id="Capa_1" width="355.7" height="122.4" viewBox="0 0 355.7 122.4"><defs><style>      .st0 {        fill: #fff;      }    </style></defs><path class="st0" d="M110.1,59.5h0c-1.8-1.4-3.9-2.5-6.1-3.3-2.1-.8-4.1-1.5-6.1-2.1-1.5-.5-3.1-1.1-4.6-1.6-1.2-.5-2.4-1-3.3-1.7-.9-.6-1.5-1.4-2.1-2.2-.5-.8-.7-1.9-.7-3.2s.3-2.6.8-3.5c.6-1,1.3-1.8,2.1-2.5.9-.7,2-1.2,3.1-1.6,1.2-.4,2.4-.5,3.6-.5,2.3,0,4.3.4,5.8,1.3,1.6.9,2.9,2,3.9,3.4l1.6,2.3,8.8-7.1-1.5-2c-1.7-2.2-4.1-4.1-7.2-5.7-3.1-1.6-6.9-2.3-11.2-2.3s-4.7.3-7.1,1c-2.5.7-4.7,1.8-6.8,3.3-2.1,1.5-3.8,3.5-5.1,5.8-1.3,2.4-2,5.2-2,8.4s.5,5.6,1.6,7.8c1.1,2.1,2.5,3.9,4.2,5.4,1.7,1.4,3.6,2.5,5.6,3.4,1.9.8,3.8,1.5,5.8,2.1,1.8.6,3.6,1.2,5.2,1.8,1.5.5,2.8,1.2,3.9,1.9,1,.7,1.8,1.5,2.3,2.5.5.9.8,2.1.8,3.7s-.3,2.5-.8,3.5c-.6,1.1-1.4,2-2.3,2.7-1,.7-2,1.3-3.2,1.7-1.3.4-2.5.6-3.7.6-2.6,0-4.7-.5-6.5-1.7-1.9-1.2-3.3-2.6-4.4-4.3l-1.5-2.5-9.5,7,1.5,2.1c1.2,1.6,2.5,3,4.1,4.2,1.5,1.2,3.2,2.2,5,3,1.7.8,3.6,1.4,5.5,1.8,1.9.4,3.8.6,5.7.6s5-.4,7.5-1.1c2.6-.7,4.9-1.9,6.9-3.5,2-1.6,3.7-3.6,5-6,1.3-2.5,1.9-5.4,1.9-8.7s-.6-6.1-1.9-8.4c-1.2-2.2-2.8-4-4.7-5.5"></path><polygon class="st0" points="246.4 27.9 242.3 27.9 242.3 91.4 246.4 91.4 252.6 91.4 276.6 91.4 276.6 80.6 252.6 80.6 252.6 65 269.5 65 269.5 54.3 252.6 54.3 252.6 38.7 276.6 38.7 276.6 27.9 252.6 27.9 246.4 27.9"></polygon><polygon class="st0" points="36.2 27.9 32.1 27.9 32.1 91.4 36.2 91.4 42.3 91.4 66.4 91.4 66.4 80.6 42.3 80.6 42.3 65 59.3 65 59.3 54.3 42.3 54.3 42.3 38.7 66.4 38.7 66.4 27.9 42.3 27.9 36.2 27.9"></polygon><polygon class="st0" points="225.8 27.9 219.6 27.9 219.6 38.7 219.6 54.3 208.6 54.3 202.7 54.3 191.6 54.3 191.6 38.7 191.6 27.9 185.5 27.9 181.4 27.9 181.4 91.4 185.5 91.4 191.6 91.4 191.6 80.6 191.6 65 202.7 65 208.6 65 219.6 65 219.6 80.6 219.6 91.4 225.8 91.4 229.9 91.4 229.9 27.9 225.8 27.9"></polygon><polygon class="st0" points="153.7 38.7 153.7 91.4 143.4 91.4 143.4 39 126.2 38.7 126.2 27.9 145.4 27.9 153.7 27.9 171.2 27.9 171.2 38.7 153.7 38.7"></polygon><path class="st0" d="M317.6,56.6h-16.2v-17.4h16.2c4.4.4,7.9,4.1,7.9,8.7s-3.5,8.3-7.9,8.7M327.9,64.6c5.4-3.6,8.9-9.7,8.9-16.7,0-11.1-9-20-20-20h-25.6s-1.2,0-1.2,0v63.5h11.4v-23.5h15.7l8.2,23.5h12l-9.4-26.8Z"></path></svg>