<?xml version="1.0" encoding="UTF-8"?>
<svg id="Capa_1" xmlns="http://www.w3.org/2000/svg" width="1254.2" height="130.5" version="1.1" viewBox="0 0 1254.2 130.5">
  <!-- Generator: Adobe Illustrator 30.4.0, SVG Export Plug-In . SVG Version: 2.1.4 Build 226)  -->
  <defs>
    <style>
      .st0 {
        fill: #212121;
      }
    </style>
  </defs>
  <path class="st0" d="M217.7,74.3V6.8h20.6v66.6c0,21.7,11.1,33.2,29.7,33.2s29.4-10.9,29.4-32.6V6.5h20.6v66.3c0,34.9-19.7,52.6-50.3,52.6s-49.7-17.4-49.7-51.4l-.3.3Z"/>
  <path class="st0" d="M621.8,26h-37.2V6.8h94.9v19.1h-37.2v98h-20.9V26h.3Z"/>
  <path class="st0" d="M797,26h-37.2V6.8h94.9v19.1h-37.2v98h-20.9V26h.3Z"/>
  <path class="st0" d="M1126.2,66h0c0-33.2,25.4-60.9,61.4-60.9s61.2,27.1,61.2,60.3h0c0,33.2-25.4,60.9-61.4,60.9s-61.2-27.1-61.2-60.3h0ZM1227.1,66h0c0-23.1-16.6-42-39.7-42s-39.4,18.6-39.4,41.2h0c0,23.1,16.6,41.7,39.7,41.7s39.4-18.3,39.4-41.2v.3Z"/>
  <polygon class="st0" points="469.5 6.2 450.3 6.2 398.9 124 420.1 124 432.1 95.7 439.5 77.4 459.5 30.8 479.8 77.4 487.2 95.7 499.2 124 520.9 124 469.5 6.2"/>
  <path class="st0" d="M1011.3,79.7c16.3-4.6,27.7-16.3,27.7-35.4h0c0-10.6-3.4-19.1-9.7-25.7-7.4-7.4-19.1-11.7-33.7-11.7h-52.3v117.2h20.6V25.7h30c15.1,0,24.3,6.9,24.3,19.4h0c0,12.3-9.4,20-24,20h-4.3v18.3l28.9,40.9h24.3l-31.7-44.3v-.3Z"/>
  <path class="st0" d="M66,5.1C32.5,5.1,5.4,32.2,5.4,65.7s27.1,60.6,60.6,60.6,60.6-27.1,60.6-60.6S99.4,5.1,66,5.1ZM66,106.8c-22.9,0-41.4-18.6-41.4-41.4s18.6-41.4,41.4-41.4,41.4,18.6,41.4,41.4-18.6,41.4-41.4,41.4Z"/>
  <rect class="st0" x="61.4" y="4.5" width="20.9" height="133.7" transform="translate(-29.5 71.7) rotate(-45)"/>
</svg>