<?xml version="1.0" encoding="UTF-8"?>
<svg id="Capa_1" xmlns="http://www.w3.org/2000/svg" width="381.9" height="80.7" xmlns:x="http://ns.adobe.com/Extensibility/1.0/" version="1.1" viewBox="0 0 381.9 80.7">
  <!-- Generator: Adobe Illustrator 30.6.0, SVG Export Plug-In . SVG Version: 2.1.4 Build 109)  -->
  <defs>
    <style>
      .st0 {
        fill: #fab413;
      }
    </style>
  </defs>
  <g>
    <g>
      <path d="M101.9,8.6h-12V.6h32.7v8h-12v31.5h-8.7V8.6Z"/>
      <path d="M140.5.6h18.1c5,0,8.9,1.4,11.5,4,2.2,2.2,3.4,5.3,3.4,9v.2c0,6.4-3.4,10.4-8.5,12.2l9.7,14.1h-10.1l-8.5-12.7h-6.8v12.7h-8.8V.6ZM157.9,19.8c4.3,0,6.6-2.3,6.6-5.6v-.2c0-3.7-2.6-5.6-6.8-5.6h-8.6v11.4h8.8Z"/>
      <path d="M192.4.6h29.8v7.7h-21.2v8h18.6v7.7h-18.6v8.3h21.4v7.7h-30V.6h0Z"/>
      <path d="M238.7,34.4l5.1-6.2c3.6,3,7.2,4.8,11.8,4.8s5.7-1.4,5.7-3.7h0c0-2.3-1.4-3.4-7.9-5.1-7.9-2.1-13.1-4.3-13.1-12v-.2c0-7.2,5.8-11.9,13.8-11.9s10.7,1.8,14.6,5l-4.5,6.6c-3.5-2.4-6.9-3.9-10.3-3.9s-5.1,1.5-5.1,3.4v.2c0,2.6,1.7,3.4,8.5,5.2,8,2.1,12.5,5,12.5,11.8h0c0,7.9-5.9,12.3-14.5,12.3-5.9,0-12-2.1-16.7-6.3Z"/>
      <path d="M286.9,20.5h0c0-11.3,8.8-20.5,21-20.5s21,9.1,21,20.3h0c0,11.3-8.8,20.5-21,20.5s-21-9.1-21-20.3ZM319.7,20.5h0c0-6.9-5-12.5-12-12.5s-11.8,5.5-11.8,12.3h0c0,6.9,5,12.5,12,12.5,7,0,11.8-5.6,11.8-12.3Z"/>
      <path d="M347.8.6h18.1c5,0,8.9,1.4,11.5,4,2.2,2.2,3.4,5.3,3.4,9v.2c0,6.4-3.4,10.4-8.5,12.2l9.6,14.1h-10.1l-8.5-12.7h-6.9v12.7h-8.7V.6h0ZM365.2,19.8c4.2,0,6.6-2.3,6.6-5.6v-.2c0-3.7-2.6-5.6-6.9-5.6h-8.6v11.4h8.8Z"/>
    </g>
    <g>
      <path d="M160.5,80.4c-.2-.5-.3-.8-.3-2.5v-3.2c0-1.9-.6-2.6-2.1-2.6h-1.1v8.3h-3.2v-20.4h4.9c3.4,0,4.7,1.5,4.7,4.7v1.6c0,2.1-.7,3.4-2.1,4.1h0c1.6.8,2.1,2.3,2.1,4.4v3.1c0,1,0,1.8.4,2.5h-3.2ZM157,62.9v6.3h1.3c1.2,0,1.9-.5,1.9-2.1v-2c0-1.4-.5-2.1-1.7-2.1h-1.5Z"/>
      <path d="M174.5,68.6h4.4v2.9h-4.4v6h5.6v2.9h-8.8v-20.4h8.8v2.9h-5.6v5.7Z"/>
      <path d="M198.3,80.4h-3.3l-.5-3.7h-4l-.5,3.7h-3l3.3-20.4h4.7l3.3,20.4ZM191,73.9h3.1l-1.5-10.4h0l-1.5,10.4Z"/>
      <path d="M205.6,60h3.2v17.5h5.3v2.9h-8.5v-20.4h0Z"/>
      <path d="M234.9,68.6h4.4v2.9h-4.4v6h5.6v2.9h-8.8v-20.4h8.8v2.9h-5.6v5.7Z"/>
      <path d="M252.6,59.8c3.1,0,4.7,1.8,4.7,5.2v.6h-3v-.8c0-1.4-.6-2-1.6-2s-1.6.5-1.6,2,.6,2.6,2.7,4.4c2.7,2.4,3.5,4,3.5,6.4s-1.6,5.2-4.8,5.2-4.8-1.8-4.8-5.2v-1.2h3v1.4c0,1.4.6,2,1.7,2s1.7-.5,1.7-2-.6-2.6-2.7-4.4c-2.7-2.4-3.5-4-3.5-6.4,0-3.3,1.6-5.2,4.7-5.2Z"/>
      <path d="M264.1,60h9.9v2.9h-3.4v17.5h-3.2v-17.5h-3.4v-2.9h0Z"/>
      <path d="M291.6,80.4h-3.3l-.5-3.7h-4l-.5,3.7h-3l3.3-20.4h4.7l3.3,20.4ZM284.3,73.9h3.1l-1.5-10.4h0l-1.5,10.4Z"/>
      <path d="M298,60h9.9v2.9h-3.4v17.5h-3.2v-17.5h-3.4v-2.9Z"/>
      <path d="M318.4,68.6h4.4v2.9h-4.4v6h5.6v2.9h-8.8v-20.4h8.8v2.9h-5.6v5.7Z"/>
    </g>
  </g>
  <path class="st0" d="M55.7,0H13.6L0,15.2l36.1,50L70.4,15.1,55.7,0ZM55.8,7.8l6.6,6.8h-19.1l12.5-6.8ZM35.5,12.8l-12.9-7.4h26.4l-13.5,7.4ZM40.2,19.9l-8.2,30.6L10,19.9h30.3ZM45.9,19.9h14.9l-24.4,35.7,9.6-35.7ZM62.8,15.1l.6.6-.6,1v-1.6ZM14.6,7l13.2,7.5H7.9l6.8-7.5Z"/>
</svg>