<?xml version="1.0" encoding="UTF-8"?>
<svg id="Capa_1" xmlns="http://www.w3.org/2000/svg" width="435.2" height="283.1" version="1.1" viewBox="0 0 435.2 283.1">
  <!-- Generator: Adobe Illustrator 30.6.0, SVG Export Plug-In . SVG Version: 2.1.4 Build 109)  -->
  <defs>
    <style>
      .st0 {
        fill: #fff;
      }
    </style>
  </defs>
  <g>
    <path class="st0" d="M231.4,4.6c-6.6-2.9-13.9-4.6-21.6-4.6-29.4,0-53.2,23.8-53.2,53.2s1.9,16.1,5.3,23.1c3.8-37.1,32.7-66.8,69.5-71.7Z"/>
    <path class="st0" d="M283.7,91.1c3.4-6.4,5.6-13.5,6.2-21.2,2.3-29.3-19.6-54.9-48.9-57.1-8.3-.6-16.2.6-23.4,3.5,36.7,6.6,64,37.8,66.1,74.8h0Z"/>
    <path class="st0" d="M203.7,148c6.6,2.9,13.9,4.6,21.6,4.6,29.4,0,53.2-23.8,53.2-53.2s-1.9-16.1-5.3-23.1c-3.8,37.1-32.7,66.8-69.5,71.7h0Z"/>
    <path class="st0" d="M151.5,61.6c-3.4,6.4-5.6,13.5-6.2,21.2-2.3,29.3,19.6,54.9,48.9,57.1,8.3.6,16.2-.6,23.4-3.5-36.7-6.6-64-37.8-66.1-74.8h0Z"/>
  </g>
  <g>
    <path class="st0" d="M74.4,213.1v-23.6h7.2v23.3c0,7.6,3.9,11.6,10.4,11.6s10.3-3.8,10.3-11.4v-23.6h7.2v23.2c0,12.2-6.9,18.4-17.6,18.4s-17.4-6.1-17.4-18h0Z"/>
    <path class="st0" d="M215.7,196.2h-13v-6.7h33.2v6.7h-13v34.3h-7.3v-34.3h.1Z"/>
    <path class="st0" d="M277.1,196.2h-13v-6.7h33.2v6.7h-13v34.3h-7.3v-34.3h0Z"/>
    <path class="st0" d="M392.3,210.2h0c0-11.6,8.9-21.3,21.5-21.3s21.4,9.5,21.4,21.1h0c0,11.6-8.9,21.3-21.5,21.3s-21.4-9.5-21.4-21.1ZM427.5,210.2h0c0-8.1-5.8-14.7-13.9-14.7s-13.8,6.5-13.8,14.4h0c0,8.1,5.8,14.6,13.9,14.6s13.8-6.4,13.8-14.4h0Z"/>
    <polygon class="st0" points="162.5 189.3 155.8 189.3 137.8 230.5 145.1 230.5 149.4 220.6 152 214.2 159 197.9 166.1 214.2 168.7 220.6 172.9 230.5 180.5 230.5 162.5 189.3"/>
    <path class="st0" d="M352.1,215c5.7-1.6,9.7-5.7,9.7-12.4h0c0-3.7-1.2-6.7-3.4-9-2.6-2.6-6.7-4.1-11.8-4.1h-18.3v41h7.2v-34.4h10.5c5.3,0,8.5,2.4,8.5,6.8h0c0,4.3-3.3,7-8.4,7h-1.5v6.4l10.1,14.3h8.5l-11.1-15.5h0Z"/>
    <path class="st0" d="M21.2,188.9c-11.7,0-21.2,9.5-21.2,21.2s9.5,21.2,21.2,21.2,21.2-9.5,21.2-21.2-9.5-21.2-21.2-21.2ZM21.2,224.5c-8,0-14.5-6.5-14.5-14.5s6.5-14.5,14.5-14.5,14.5,6.5,14.5,14.5-6.5,14.5-14.5,14.5Z"/>
    <rect class="st0" x="19.7" y="188.7" width="7.3" height="46.8" transform="translate(-143.1 78.6) rotate(-45)"/>
  </g>
  <g>
    <path class="st0" d="M55.4,270.7c-.5.9-1.1,1.7-1.9,2.3-.8.6-1.7,1.1-2.8,1.4-1.1.3-2.2.5-3.4.5h-5.4v7.8h-2.5v-22.2h8.3c1.2,0,2.4.2,3.4.5s1.9.8,2.6,1.4,1.3,1.3,1.7,2.2.6,1.9.6,3-.2,2.3-.7,3.2h.1ZM51.9,264c-1.1-.8-2.5-1.2-4.3-1.2h-5.6v9.7h5.5c.9,0,1.7-.1,2.5-.3.8-.2,1.4-.6,1.9-1s1-.9,1.2-1.6c.3-.6.4-1.3.4-2,0-1.6-.5-2.8-1.6-3.6Z"/>
    <path class="st0" d="M70.1,260.5h2.5v19.8h12.5v2.3h-15v-22.2h0Z"/>
    <path class="st0" d="M119.8,282.7h-2.7l-2.6-5.9h-12.1l-2.6,5.9h-2.6l10.1-22.3h2.3l10.1,22.3h0ZM108.5,263.3l-5.1,11.3h10.1l-5-11.3Z"/>
    <path class="st0" d="M133.1,262.7v-2.2h17.3v1.7l-14.4,18.3h14.4v2.2h-17.8v-1.7l14.3-18.3h-13.9,0Z"/>
    <path class="st0" d="M185.7,282.7h-2.7l-2.6-5.9h-12.1l-2.6,5.9h-2.6l10.1-22.3h2.3l10.1,22.3h.1ZM174.4,263.3l-5.1,11.3h10.1l-5-11.3Z"/>
    <path class="st0" d="M235.8,280.8c-.6.5-1.3.9-2,1.2-.7.3-1.5.6-2.3.8-.8.2-1.7.3-2.8.3-1.6,0-3.1-.3-4.4-.9-1.4-.6-2.5-1.4-3.5-2.4s-1.8-2.2-2.3-3.6c-.6-1.4-.8-2.9-.8-4.5s.3-3.1.8-4.5c.6-1.4,1.3-2.6,2.3-3.7,1-1,2.2-1.9,3.5-2.5,1.4-.6,2.9-.9,4.5-.9s1.9,0,2.7.3c.8.2,1.6.4,2.3.7.7.3,1.3.7,1.9,1.1s1.2.9,1.7,1.4l-1.7,1.8c-.9-.9-2-1.6-3.1-2.2s-2.4-.9-3.9-.9-2.4.2-3.4.7-2,1.1-2.7,1.9c-.8.8-1.4,1.8-1.8,2.9-.4,1.1-.6,2.3-.6,3.6s.2,2.5.6,3.6c.4,1.1,1,2.1,1.8,2.9s1.7,1.5,2.7,1.9c1,.5,2.2.7,3.4.7s2.8-.3,3.9-.8c1.1-.6,2.2-1.3,3.2-2.4l1.6,1.6c-.6.6-1.2,1.1-1.8,1.6l.2.3Z"/>
    <path class="st0" d="M267.5,262.8h-13.5v7.6h12.1v2.3h-12.1v7.8h13.7v2.3h-16.2v-22.2h16v2.3h0Z"/>
    <path class="st0" d="M298.4,260.5h2.4v22.2h-2l-14.3-18.2v18.2h-2.4v-22.2h2.3l14,17.8v-17.8Z"/>
    <path class="st0" d="M325,282.7h-2.5v-19.8h-7.4v-2.3h17.4v2.3h-7.4v19.8h-.1Z"/>
    <path class="st0" d="M362.7,262.8h-13.5v7.6h12.1v2.3h-12.1v7.8h13.7v2.3h-16.2v-22.2h16v2.3h0Z"/>
    <path class="st0" d="M392.6,282.7l-6.4-8.6h-6.3v8.6h-2.5v-22.2h9.5c1.2,0,2.3.2,3.3.5s1.8.8,2.5,1.3c.7.6,1.2,1.3,1.6,2.1.4.8.6,1.7.6,2.7s-.1,1.8-.4,2.5-.7,1.4-1.2,1.9-1.2,1-1.9,1.3c-.7.4-1.5.6-2.4.8l6.8,9h-3.2ZM390.9,264c-1-.8-2.4-1.2-4.2-1.2h-6.9v9h6.8c.8,0,1.6-.1,2.3-.3s1.3-.5,1.8-.9.9-.9,1.2-1.4c.3-.6.4-1.2.4-1.9,0-1.4-.5-2.5-1.5-3.3h.1Z"/>
  </g>
</svg>