<?xml version="1.0" encoding="UTF-8"?>
<svg id="Capa_1" xmlns="http://www.w3.org/2000/svg" width="200.9" height="30" version="1.1" viewBox="0 0 200.9 30">
  <!-- Generator: Adobe Illustrator 30.6.0, SVG Export Plug-In . SVG Version: 2.1.4 Build 109)  -->
  <defs>
    <style>
      .st0 {
        fill: #fff;
      }
    </style>
  </defs>
  <polygon class="st0" points="132.6 5.5 132.6 0 117.6 0 117.6 0 113.9 0 113.9 30 132.6 30 132.6 24.7 119.2 24.7 119.2 17.7 127.9 17.7 127.9 12.4 119.2 12.4 119.2 5.5 132.6 5.5"/>
  <path class="st0" d="M45.9,18.4l3.6-10.4,3.6,10.4h-7.3.1ZM52.4,0h-5.6l-10.5,29.9h5.6l2.2-6.1h11l2.1,6.1h5.6L52.3,0h0Z"/>
  <path class="st0" d="M184.1,18.5l3.6-10.4,3.6,10.4h-7.3,0ZM190.5,0h-5.6l-10.5,29.9h5.6l2.2-6.1h11l2.1,6.1h5.6L190.4,0h0Z"/>
  <path class="st0" d="M155.3,13.6h-7.6V5.4h7.6c2.1.2,3.7,1.9,3.7,4.1s-1.6,3.9-3.7,4.1M160.2,17.4c2.5-1.7,4.2-4.6,4.2-7.8,0-5.2-4.2-9.4-9.4-9.4h-12.5v29.8h5.3v-11h7.4l3.9,11h5.6l-4.4-12.6h-.1Z"/>
  <rect class="st0" x="98.8" y="0" width="5.3" height="29.8"/>
  <polygon class="st0" points="85.5 0 84.1 4.1 79 18.5 77.8 22 77.1 19.9 71.7 4.7 70.1 0 64.5 0 75 30 75 30 80.6 30 80.6 30 91.1 0 85.5 0"/>
  <polygon class="st0" points="29.4 0 22.2 0 14.7 10.1 7.3 .2 7.2 0 0 0 11.1 14.9 .7 28.9 0 29.9 7.1 29.9 14.7 19.7 22 29.6 22.2 29.9 29.4 29.9 18.3 14.9 29.4 0"/>
</svg>