<svg xmlns="http://www.w3.org/2000/svg" id="Capa_1" width="1293.3" height="273.9" viewBox="0 0 1293.3 273.9"><defs><style>      .st0 {        fill: #fff;      }    </style></defs><path class="st0" d="M58.5,147.2c2.1-8.6,1.4-17.4,1.4-26.2v-39.9c0-8.8.7-17.7-1.4-26.2h-1.8,60.2c29.6,0,42.2,9.7,42.2,24.5s-7.6,17-23.5,19.7c20.8,2.6,32.8,10.8,32.8,22.8s-15.3,25.3-46.5,25.3H56.7h1.8ZM109.3,94.9c19.6,0,30-5.1,30-14.6s-7.8-15.4-27.5-15.4h-32v30h29.4ZM118.5,137.1c19.4,0,28-6.3,28-16.4s-12-16.1-31.2-16.1h-35.5v32.5h38.6Z"></path><path class="st0" d="M326.9,147.2h-25.9l-.4-1.5c-1.6-6.9-4.2-13.5-7.9-19.6h-63.9c-3.6,6.1-6.4,12.7-8,19.6l-.4,1.6h-22.8l47-78.6c2.5-4.2,4.2-9.6,1.6-13.7h-1.8,27.7l54.7,92.4ZM286.9,115.7l-26.1-44-25.9,44h52Z"></path><path class="st0" d="M471.6,147.1h-30.4c-3.1-6.9-7.6-13.1-13.1-18.2l-20.3-18.9h-29.2v10.7c0,8.9,1.3,17.8,3.7,26.4h-27.1,1.8c2.1-8.6,1.4-17.4,1.4-26.2v-39.9c0-8.8.7-17.7-1.4-26.2h-1.8,61.2c31.2,0,45.9,9.7,45.9,27.3s-11.8,23.1-34.1,25.7l43.3,39.4ZM410.8,99.6c19.6,0,31.6-6,31.6-17.5s-9.2-17.5-28.8-17.5h-35.3v35.1h32.6Z"></path><path class="st0" d="M501.1,147.2c2.1-8.6,1.4-17.4,1.4-26.2v-39.9c0-8.8.7-17.7-1.4-26.2h48.6c46.5,0,69,14.5,69,46s-22.6,46.3-69,46.3h-50.4,1.8ZM550.6,136.9c31.6,0,47.3-10.4,47.3-36s-15.3-35.7-47.1-35.7h-28.2v71.8h28Z"></path><path class="st0" d="M756.6,133.8l-2.9,13.4h-96.5c2.1-8.6,1.4-17.4,1.4-26.2v-39.9c0-8.8.7-17.7-1.4-26.2h-1.8,97.3l2.7,13.4c-12.1-2-24.4-3.1-36.7-3.1h-40.1v29.8h28.2c10.1,0,20.2-.5,30.3-1.5v13.1c-10.1-1-20.2-1.5-30.3-1.5h-28.2v32h40.9c12.4,0,24.9-1,37.1-3.1"></path><path class="st0" d="M919.5,54.8h0c-2.1,8.6-3.1,17.4-3.1,26.2v66.1h-28l-68.4-80.5v54.3c0,8.8,1,17.6,2.9,26.2h-21.6c2.1-8.6,1.4-17.4,1.4-26.2v-39.9c0-8.8.7-17.7-1.4-26.2h29.8l68.1,80.1v-53.9c0-8.8-1-17.6-2.9-26.2h23.3Z"></path><path class="st0" d="M1079.4,54.8h0c-2.1,8.6-3.1,17.4-3.1,26.2v66.1h-28l-68.4-80.5v54.3c0,8.8,1,17.6,2.9,26.2h-21.6c2.1-8.6,1.4-17.4,1.4-26.2v-39.9c0-8.8.7-17.7-1.4-26.2h29.8l68.1,80.1v-53.9c0-8.8-1-17.6-2.9-26.2h23.3Z"></path><path class="st0" d="M1239.8,147.2h-25.9l-.3-1.5c-1.6-6.9-4.2-13.5-7.9-19.6h-63.9c-3.6,6.1-6.4,12.7-8,19.6l-.4,1.6h-22.8l47-78.6c2.5-4.2,4.2-9.6,1.6-13.7h-1.8,27.7l54.7,92.4ZM1199.8,115.7l-26.1-44-25.9,44h52Z"></path><path class="st0" d="M438,223.6h-5.9v-31.6h11.7c9.5,0,16.4,4,16.4,11.1s-2.7,7.4-7.1,9.4l11.5,11.1h-7.7l-9.6-9.5c-1.5.2-3,.3-4.6.3h-4.8v9.2ZM442.3,210.9c7.9,0,11.7-2.8,11.7-7.4s-3.9-7.8-11.7-7.8h-4.4v15.2h4.4Z"></path><polygon class="st0" points="479.2 192 505.4 192 505.4 195.7 485.1 195.7 485.1 205.7 503.4 205.7 503.4 209.3 485.1 209.3 485.1 219.9 506 219.9 506 223.6 479.2 223.6 479.2 192"></polygon><path class="st0" d="M522.3,221.7l-1-4.4c4.2,1.7,9.3,2.7,13.9,2.7s9.8-2.1,9.8-5.4-1.4-3.7-7.7-5.2l-2.1-.5c-8.5-2-12.2-4-12.2-9.1s5.3-8.7,14.1-8.7,8.2.7,10.9,1.6l1,4.2c-2.8-1.1-7.5-2-11.5-2-5.8,0-8.5,1.9-8.5,4.7s1.7,3.9,8,5.4l2.1.5c8.9,2.1,11.9,4.5,11.9,8.9s-5.8,9.2-16.2,9.2-9-.7-12.5-2"></path><rect class="st0" x="568.4" y="192" width="5.9" height="31.6"></rect><path class="st0" d="M593.7,192h13.2c17.3,0,23.7,6,23.7,15.4s-7.7,16.2-24,16.2h-12.9v-31.6ZM605.7,219.9c13,0,18.7-4,18.7-12.3s-5.1-11.9-18.6-11.9h-6.1v24.2h6.1Z"></path><polygon class="st0" points="647.2 192 673.4 192 673.4 195.7 653.1 195.7 653.1 205.7 671.4 205.7 671.4 209.3 653.1 209.3 653.1 219.9 674.1 219.9 674.1 223.6 647.2 223.6 647.2 192"></polygon><polygon class="st0" points="696.5 200.3 696.5 223.6 690.9 223.6 690.9 192 693.5 192 723.2 215.3 723.2 192 728.9 192 728.9 223.6 726.2 223.6 696.5 200.3"></polygon><path class="st0" d="M745.5,208.4c0-11.5,8.7-17.1,20.6-17.1s8.8.7,11.6,2l1,4.5c-3.8-1.9-7.8-2.6-12-2.6-9.9,0-15.3,4.7-15.3,12.7s7.1,12.6,15.5,12.6,8.5-.8,12.5-2.7l-1,4.4c-3.5,1.5-7.6,2.1-12.6,2.1-9.9,0-20.2-3.8-20.2-15.8"></path><polygon class="st0" points="794.7 192 820.8 192 820.8 195.7 800.6 195.7 800.6 205.7 818.9 205.7 818.9 209.3 800.6 209.3 800.6 219.9 821.5 219.9 821.5 223.6 794.7 223.6 794.7 192"></polygon><path class="st0" d="M837.8,221.7l-1-4.4c4.2,1.7,9.3,2.7,13.9,2.7s9.8-2.1,9.8-5.4-1.4-3.7-7.7-5.2l-2.1-.5c-8.5-2-12.2-4-12.2-9.1s5.3-8.7,14.1-8.7,8.2.7,10.9,1.6l1,4.2c-2.8-1.1-7.5-2-11.5-2-5.8,0-8.5,1.9-8.5,4.7s1.7,3.9,8,5.4l2.1.5c8.9,2.1,11.9,4.5,11.9,8.9s-5.8,9.2-16.2,9.2-9-.7-12.5-2"></path></svg>