<?xml version="1.0" encoding="UTF-8"?>
<svg id="Capa_1" xmlns="http://www.w3.org/2000/svg" width="576.7" height="276.7" xmlns:xlink="http://www.w3.org/1999/xlink" version="1.1" viewBox="0 0 576.7 276.7">
  <!-- Generator: Adobe Illustrator 30.6.0, SVG Export Plug-In . SVG Version: 2.1.4 Build 109)  -->
  <defs>
    <style>
      .st0 {
        fill: none;
      }

      .st1 {
        fill: #fff;
      }

      .st2 {
        clip-path: url(#clippath);
      }
    </style>
    <clipPath id="clippath">
      <rect class="st0" width="576.7" height="276.7"/>
    </clipPath>
  </defs>
  <g class="st2">
    <g>
      <path class="st1" d="M138.3,273.8h-1.4v-10.7h4.1c2.3,0,3.7,1.1,3.7,3.1s-1.5,3.1-3.7,3.1h-2.7v4.5ZM140.9,268c1.5,0,2.4-.7,2.4-1.9s-.9-1.9-2.4-1.9h-2.6v3.8h2.6Z"/>
      <path class="st1" d="M163.9,263h1.4v9.5h5.4v1.3h-6.8v-10.7Z"/>
      <path class="st1" d="M194.7,263l4.1,10.7h-1.5l-1.1-2.8h-4.8l-1.1,2.8h-1.4l4.1-10.7h1.6ZM192,269.7h3.9l-1.9-5-1.9,5Z"/>
      <path class="st1" d="M223.5,263h1.5l-3.9,6.2v4.5h-1.4v-4.5l-3.9-6.2h1.6l3.1,4.9,3.1-4.9Z"/>
      <path class="st1" d="M247.7,263l4.1,10.7h-1.5l-1.1-2.8h-4.8l-1.1,2.8h-1.4l4.1-10.7h1.6ZM244.9,269.7h3.9l-1.9-5-1.9,5Z"/>
      <path class="st1" d="M296,272.7c1.4,0,2.4-.8,2.8-2.2l1.4.4c-.6,1.9-2.1,3-4.1,3s-4.8-2.3-4.8-5.5,2-5.5,4.8-5.5,3.5,1.1,4.1,3l-1.4.4c-.4-1.4-1.4-2.2-2.8-2.2-2,0-3.4,1.7-3.4,4.3s1.4,4.3,3.4,4.3Z"/>
      <path class="st1" d="M323.6,262.9c2.8,0,4.9,2.3,4.9,5.5s-2,5.5-4.9,5.5-4.9-2.3-4.9-5.5,2.1-5.5,4.9-5.5ZM323.6,264.1c-2,0-3.4,1.7-3.4,4.3s1.4,4.3,3.4,4.3,3.4-1.7,3.4-4.3-1.4-4.3-3.4-4.3Z"/>
      <path class="st1" d="M356.4,273.8h-1.2l-5.9-8.6v8.6h-1.4v-10.7h1.5l5.6,8.3v-8.3h1.4v10.7Z"/>
      <path class="st1" d="M376.5,263h3.4c3.3,0,5.3,2.1,5.3,5.4s-2.1,5.4-5.3,5.4h-3.4v-10.7ZM379.9,272.5c2.4,0,3.9-1.6,3.9-4.1s-1.5-4.1-3.9-4.1h-2v8.3h2Z"/>
      <path class="st1" d="M409,262.9c2.8,0,4.9,2.3,4.9,5.5s-2,5.5-4.9,5.5-4.9-2.3-4.9-5.5,2.1-5.5,4.9-5.5ZM409,264.1c-2,0-3.4,1.7-3.4,4.3s1.4,4.3,3.4,4.3,3.4-1.7,3.4-4.3-1.4-4.3-3.4-4.3Z"/>
      <path class="st1" d="M433.3,270.7c.7,1.3,1.9,2,3.3,2s2.5-.7,2.5-1.9-1.2-1.5-2.9-1.9c-1.7-.4-3.4-.9-3.4-2.9s1.6-3.1,3.7-3.1,3.2.9,3.9,2.1l-1.1.9c-.6-1-1.4-1.7-2.8-1.7s-2.2.7-2.2,1.8,1,1.4,2.5,1.7c1.8.4,3.7.8,3.7,3.1s-1.8,3.3-3.9,3.3-3.6-.9-4.4-2.4l1.1-.9Z"/>
    </g>
    <path class="st1" d="M48.5,158.1v19.9h-2.6c-.1-4.2-.4-7.5-.8-9.9-.4-2.4-1.2-4.1-2.3-5.3s-2.7-1.8-4.8-2.1c-2.1-.3-5-.4-8.5-.4h-15.9v29.5h11.6c2.3,0,4.1-.4,5.3-1.3,1.2-.9,1.8-2.7,1.8-5.4v-2.9h2.6v21.7h-2.6v-2.9c0-2.8-.6-4.7-1.8-5.5-1.2-.8-3-1.2-5.3-1.2h-11.6v25.2c0,1,.2,1.8.5,2.2.3.4,1,.6,1.9.6h6.5v2.3H0v-2.3h5.5c.9,0,1.5-.2,1.8-.6.3-.4.5-1.2.5-2.2v-54.2c0-1-.2-1.8-.6-2.2-.4-.4-1-.6-1.7-.6H0v-2.3h48.5Z"/>
    <path class="st1" d="M72.2,215.8l21.2-57.7h5l20.9,56.8c.7,1.9,1.3,3.3,2,4.1.6.8,1.7,1.2,3.2,1.2h3.4v2.3h-22v-2.3h5.2c1.5,0,2.5-.3,2.9-1,.4-.6.4-1.7-.1-3.1l-5.8-15.8v.4h-27.1l-5.6,15.8c-.6,1.5-.6,2.5-.2,3,.4.5,1.2.7,2.3.7h5.2v2.3h-18.6v-2.3h3.7c1.1,0,2-.3,2.7-.9.7-.6,1.4-1.8,2-3.6M81.7,198.4h25.6l-12.9-35.7-12.7,35.7Z"/>
    <path class="st1" d="M194.2,164.8l-21.6,57.9h-4.8l-20-57.2c-.6-1.8-1.2-3.1-1.8-3.8-.6-.8-1.4-1.2-2.5-1.2h-4.2v-2.3h21.7v2.3h-5.6c-1.2,0-1.9.3-2.2.9-.3.6-.2,1.5.2,2.8l18.4,53.7,19.4-53.7c.5-1.5.6-2.5.2-2.9-.4-.5-1.1-.7-2.2-.7h-5.4v-2.3h18.7v2.3h-4.2c-.9,0-1.6.3-2.2.9-.6.6-1.2,1.7-1.8,3.5"/>
    <path class="st1" d="M285.2,190.4c0,6.6-1.3,12.4-3.8,17.4-2.5,5-6.1,8.8-10.6,11.6-4.5,2.8-9.9,4.1-15.9,4.1s-11.4-1.4-15.9-4.1c-4.5-2.8-8.1-6.6-10.6-11.6-2.5-5-3.8-10.8-3.8-17.4s1.3-12.5,3.8-17.5c2.5-4.9,6-8.8,10.6-11.6,4.5-2.8,9.9-4.1,15.9-4.1s11.4,1.4,15.9,4.1c4.5,2.8,8.1,6.6,10.6,11.6,2.5,4.9,3.8,10.8,3.8,17.5M230.9,190.4c0,9.8,2.1,17.4,6.4,22.8,4.2,5.4,10.2,8.1,17.8,8.1s13.4-2.7,17.6-8.1c4.2-5.4,6.3-13,6.3-22.8s-2.1-17.4-6.3-22.8c-4.2-5.4-10.1-8.1-17.7-8.1s-13.5,2.7-17.7,8.1c-4.2,5.4-6.3,13-6.3,22.8"/>
    <path class="st1" d="M315,160.4v-2.3h24.1c9.2,0,15.9,1.5,20.4,4.5,4.4,3,6.6,7.3,6.6,13s-1.2,7.2-3.5,10.1c-2.3,2.9-6.2,4.9-11.6,6.1,4.4.7,7.8,2.2,10.3,4.7,2.5,2.4,3.7,5.7,3.7,9.7v7.7c0,2.6.3,4.5.8,5.4.5,1,1.3,1.5,2.3,1.5s1.8-.3,2.3-1c.5-.7.7-1.9.7-3.6v-4.8h2.5v5c0,2.4-.5,4.2-1.6,5.3-1,1.2-2.7,1.8-5,1.8s-4.1-.7-5.5-2.1c-1.4-1.4-2.1-3.9-2.1-7.5v-6.3c0-5.5-1.4-9.3-4.3-11.4-2.9-2.1-7.6-3.2-14.1-3.2h-12.7v24.3c0,1,.2,1.8.6,2.2.4.4,1,.6,1.8.6h6.2v2.3h-22v-2.3h5.5c.7,0,1.3-.2,1.7-.6.4-.4.6-1.2.6-2.2v-54.2c0-1-.2-1.8-.6-2.2-.4-.4-1-.6-1.7-.6h-5.5ZM337.2,160.4h-8.8v30.4h9.6c5.8,0,10.3-.6,13.5-1.9,3.2-1.3,5.4-3.1,6.6-5.3,1.3-2.3,1.9-4.9,1.9-7.8s-.6-5.8-1.9-8.1c-1.3-2.3-3.6-4.1-6.9-5.3-3.3-1.3-8-1.9-14-1.9"/>
    <path class="st1" d="M400.4,158.1h21.4v2.3h-5.5c-.8,0-1.4.2-1.8.6-.4.4-.6,1.2-.6,2.2v54.2c0,1,.2,1.8.6,2.2.4.4,1,.6,1.8.6h5.5v2.3h-21.4v-2.3h5.5c.7,0,1.3-.2,1.7-.6.4-.4.6-1.2.6-2.2v-54.2c0-1-.2-1.8-.6-2.2-.4-.4-1-.6-1.7-.6h-5.5v-2.3Z"/>
    <path class="st1" d="M485.9,220.3v2.3h-23.3v-2.3h6.4c.8,0,1.4-.2,1.8-.6.4-.4.6-1.2.6-2.2v-57h-5.3c-3.5,0-6.3.1-8.3.4-2.1.3-3.6,1-4.7,2.1-1.1,1.1-1.8,2.9-2.2,5.3-.4,2.4-.7,5.7-.9,10h-2.6v-20.1h53.7v20.1h-2.6c-.1-4.2-.4-7.6-.8-10-.4-2.4-1.2-4.2-2.3-5.3-1.1-1.1-2.6-1.8-4.7-2.1s-4.8-.4-8.2-.4h-5.4v57c0,1,.2,1.8.6,2.2.4.4,1,.6,1.8.6h6.4Z"/>
    <path class="st1" d="M540.2,187.9h13.1c2.3,0,4.1-.4,5.3-1.3,1.2-.9,1.8-2.7,1.8-5.4v-3h2.6v21.7h-2.6v-3c0-2.8-.6-4.6-1.8-5.4-1.2-.9-3-1.3-5.3-1.3h-13.1v26.6c0,.9.2,1.6.6,2.2.4.5,1.3.9,2.8,1.1,1.4.2,3.8.3,7,.3h7.1c3.6,0,6.4-.2,8.5-.5,2.1-.3,3.7-1,4.8-2.2,1.1-1.1,1.8-2.9,2.3-5.3.5-2.4.7-5.7.8-9.9h2.7v20.1h-49.9v-2.3h5.5c.7,0,1.3-.2,1.7-.6.4-.4.6-1.2.6-2.2v-54.2c0-1-.2-1.8-.6-2.2-.4-.4-1-.6-1.7-.6h-5.5v-2.3h49.9v19.9h-2.7c0-4.2-.3-7.5-.8-9.9-.5-2.4-1.2-4.1-2.3-5.3-1.1-1.1-2.7-1.8-4.8-2.1-2.1-.3-5-.4-8.5-.4h-17.4v27.5Z"/>
    <path class="st1" d="M289.7,59.7c-.8-.6-.6-12.9-.6-15,.4-10,2.8-20.4,2.1-30.4-.3-4.8-1.9-9.6-2.4-14.4-6.8,19.4,1.3,39.8-1.3,59.7-3.6-2.7-6.9-5.9-9.7-9.4-3-3.7-5.7-9.4-9.2-12.3-2.9-2.5-6.7-3.6-10-5.5,4.1,14.1,18.9,17.8,27.2,28.6-.5.8-1,.7-1.8.8-12.3,1.3-26.4-2.5-38.8-1.6-3.4.3-6.8,1.5-10.2,1.6-.2,1.4,0,.8.8,1.1,12.8,3.9,26.7.6,39.8,0l10.2.6c-2.9,3-5.7,6.4-8.9,9.2-7.1,6.1-15.8,9.3-18.3,19.6,14-4.4,17.4-19.8,28.8-27.2l.6,12.3c0,10.5-2.6,22.2-2.1,32.5.2,4.9,1.9,10,2.1,14.9,1.4.1.9,0,1-.8.9-4.6,2-11.2,2.1-15.7.2-8.7-1.8-18.4-2.1-27.3,0-2-.2-14.9.3-15.5.7-.9.7-.2,1.3.3,8.2,6.2,12.6,17.7,20.3,22.7,2.2,1.4,4.9,2.2,7,3.8-4-13.7-19-18.1-26.7-28.8,6.1-.4,12.5-.5,18.6,0,6.1.5,13.4,2.5,19.4,2.1,4-.3,8.2-2.3,12.3-2.6.1-1.3,0-.8-.8-1.1-13.3-3.9-26.3-.4-39.8,0-1.3,0-9.7.4-9.7-.8,7.8-10.9,23.1-14.1,26.7-28-.4-.4-9,4.7-10,5.5-6.9,5.7-10.2,16.5-18.3,21.2"/>
  </g>
</svg>