<?xml version="1.0"?>
<svg id="Capa_1" xmlns="http://www.w3.org/2000/svg" width="7.8cm" height="8.1cm" xmlns:xlink="http://www.w3.org/1999/xlink" version="1.1" viewBox="0 0 220 229.4">
  
  <defs>
    
  </defs>
  <path class="st0" d="M123.6,43.3c-6.6-2.9-13.9-4.6-21.6-4.6-29.4,0-53.2,23.8-53.2,53.2s1.9,16.1,5.3,23.1c3.8-37.1,32.7-66.8,69.5-71.7Z"></path>
  <path class="st0" d="M175.9,129.7c3.4-6.3,5.6-13.5,6.2-21.2,2.3-29.3-19.6-54.9-48.9-57.1-8.3-.6-16.2.6-23.4,3.5,36.7,6.6,64,37.8,66.1,74.8Z"></path>
  <path class="st0" d="M95.9,186.7c6.6,2.9,13.9,4.6,21.6,4.6,29.4,0,53.2-23.8,53.2-53.2s-1.9-16.1-5.3-23.1c-3.8,37.1-32.7,66.8-69.5,71.7Z"></path>
  <path class="st0" d="M43.6,100.2c-3.4,6.3-5.6,13.5-6.2,21.2-2.3,29.3,19.6,54.9,48.9,57.1,8.3.6,16.2-.6,23.5-3.5-36.7-6.7-64-37.8-66.1-74.8Z"></path>
</svg>