<?xml version="1.0"?>
<svg id="Capa_1" xmlns="http://www.w3.org/2000/svg" width="478.3" height="424" version="1.1" viewBox="0 0 478.3 424">
  
  <defs>
    
  </defs>
  <g>
    <g>
      <path class="st1" d="M253.9,27c-6.6-2.9-13.9-4.6-21.6-4.6-29.4,0-53.2,23.8-53.2,53.2s1.9,16.1,5.3,23.1c3.8-37.1,32.7-66.8,69.5-71.7Z"></path>
      <path class="st1" d="M306.2,113.5c3.4-6.4,5.6-13.5,6.2-21.2,2.3-29.3-19.6-54.9-48.9-57.1-8.3-.6-16.2.6-23.4,3.5,36.7,6.6,64,37.8,66.1,74.8Z"></path>
      <path class="st1" d="M226.2,170.4c6.6,2.9,13.9,4.6,21.6,4.6,29.4,0,53.2-23.8,53.2-53.2s-1.9-16.1-5.3-23.1c-3.8,37.1-32.7,66.8-69.5,71.7Z"></path>
      <path class="st1" d="M174,84c-3.4,6.4-5.6,13.5-6.2,21.2-2.3,29.3,19.6,54.9,48.9,57.1,8.3.6,16.2-.6,23.4-3.5-36.7-6.6-64-37.8-66.1-74.8Z"></path>
    </g>
    <g>
      <path class="st1" d="M96.9,235.5v-23.6h7.2v23.3c0,7.6,3.9,11.6,10.4,11.6s10.3-3.8,10.3-11.4v-23.6h7.2v23.2c0,12.2-6.9,18.4-17.6,18.4s-17.4-6.1-17.4-18Z"></path>
      <path class="st1" d="M238.2,218.6h-13v-6.7h33.2v6.7h-13v34.3h-7.3v-34.3Z"></path>
      <path class="st1" d="M299.6,218.6h-13v-6.7h33.2v6.7h-13v34.3h-7.3v-34.3Z"></path>
      <path class="st1" d="M414.8,232.6h0c0-11.6,8.9-21.3,21.5-21.3s21.4,9.5,21.4,21.1h0c0,11.6-8.9,21.3-21.5,21.3s-21.4-9.5-21.4-21.1ZM450,232.6h0c0-8.1-5.8-14.7-13.9-14.7s-13.8,6.5-13.8,14.4h0c0,8.1,5.8,14.6,13.9,14.6s13.8-6.4,13.8-14.4Z"></path>
      <polygon class="st1" points="185 211.7 178.3 211.7 160.3 252.9 167.6 252.9 171.9 243 174.5 236.6 181.5 220.3 188.6 236.6 191.2 243 195.4 252.9 203 252.9 185 211.7"></polygon>
      <path class="st1" d="M374.6,237.4c5.7-1.6,9.7-5.7,9.7-12.4h0c0-3.7-1.2-6.7-3.4-9-2.6-2.6-6.7-4.1-11.8-4.1h-18.3v41h7.2v-34.4h10.5c5.3,0,8.5,2.4,8.5,6.8h0c0,4.3-3.3,7-8.4,7h-1.5v6.4l10.1,14.3h8.5l-11.1-15.5Z"></path>
      <path class="st1" d="M43.7,211.3c-11.7,0-21.2,9.5-21.2,21.2s9.5,21.2,21.2,21.2,21.2-9.5,21.2-21.2-9.5-21.2-21.2-21.2ZM43.7,246.9c-8,0-14.5-6.5-14.5-14.5s6.5-14.5,14.5-14.5,14.5,6.5,14.5,14.5-6.5,14.5-14.5,14.5Z"></path>
      <rect class="st1" x="42.2" y="211.1" width="7.3" height="46.8" transform="translate(-152.4 101.1) rotate(-45)"></rect>
    </g>
    <g>
      <path class="st1" d="M77.9,293.1c-.5.9-1.1,1.7-1.9,2.3-.8.6-1.7,1.1-2.8,1.4-1.1.3-2.2.5-3.4.5h-5.4v7.8h-2.5v-22.2h8.3c1.2,0,2.4.2,3.4.5,1,.3,1.9.8,2.6,1.4.7.6,1.3,1.3,1.7,2.2s.6,1.9.6,3-.2,2.3-.7,3.2ZM74.4,286.4c-1.1-.8-2.5-1.2-4.3-1.2h-5.6v9.7h5.5c.9,0,1.7-.1,2.5-.3.8-.2,1.4-.6,1.9-1,.5-.4,1-.9,1.2-1.6.3-.6.4-1.3.4-2,0-1.6-.5-2.8-1.6-3.6Z"></path>
      <path class="st1" d="M92.6,282.9h2.5v19.8h12.5v2.3h-15v-22.2Z"></path>
      <path class="st1" d="M142.3,305.1h-2.7l-2.6-5.9h-12.1l-2.6,5.9h-2.6l10.1-22.3h2.3l10.1,22.3ZM131,285.7l-5.1,11.3h10.1l-5-11.3Z"></path>
      <path class="st1" d="M155.6,285.1v-2.2h17.3v1.7l-14.4,18.3h14.4v2.2h-17.8v-1.7l14.3-18.3h-13.9Z"></path>
      <path class="st1" d="M208.2,305.1h-2.7l-2.6-5.9h-12.1l-2.6,5.9h-2.6l10.1-22.3h2.3l10.1,22.3ZM196.9,285.7l-5.1,11.3h10.1l-5-11.3Z"></path>
      <path class="st1" d="M258.3,303.2c-.6.5-1.3.9-2,1.2-.7.3-1.5.6-2.3.8-.8.2-1.7.3-2.8.3-1.6,0-3.1-.3-4.4-.9-1.4-.6-2.5-1.4-3.5-2.4-1-1-1.8-2.2-2.3-3.6-.6-1.4-.8-2.9-.8-4.5s.3-3.1.8-4.5c.6-1.4,1.3-2.6,2.3-3.7,1-1,2.2-1.9,3.5-2.5,1.4-.6,2.9-.9,4.5-.9s1.9,0,2.7.3c.8.2,1.6.4,2.3.7.7.3,1.3.7,1.9,1.1s1.2.9,1.7,1.4l-1.7,1.8c-.9-.9-2-1.6-3.1-2.2-1.1-.6-2.4-.9-3.9-.9s-2.4.2-3.4.7c-1,.5-2,1.1-2.7,1.9-.8.8-1.4,1.8-1.8,2.9-.4,1.1-.6,2.3-.6,3.6s.2,2.5.6,3.6c.4,1.1,1,2.1,1.8,2.9.8.8,1.7,1.5,2.7,1.9,1,.5,2.2.7,3.4.7s2.8-.3,3.9-.8c1.1-.6,2.2-1.3,3.2-2.4l1.6,1.6c-.6.6-1.2,1.1-1.8,1.6Z"></path>
      <path class="st1" d="M290,285.2h-13.5v7.6h12.1v2.3h-12.1v7.8h13.7v2.3h-16.2v-22.2h16v2.3Z"></path>
      <path class="st1" d="M320.9,282.9h2.4v22.2h-2l-14.3-18.2v18.2h-2.4v-22.2h2.3l14,17.8v-17.8Z"></path>
      <path class="st1" d="M347.5,305.1h-2.5v-19.8h-7.4v-2.3h17.4v2.3h-7.4v19.8Z"></path>
      <path class="st1" d="M385.2,285.2h-13.5v7.6h12.1v2.3h-12.1v7.8h13.7v2.3h-16.2v-22.2h16v2.3Z"></path>
      <path class="st1" d="M415.1,305.1l-6.4-8.6h-6.3v8.6h-2.5v-22.2h9.5c1.2,0,2.3.2,3.3.5,1,.3,1.8.8,2.5,1.3.7.6,1.2,1.3,1.6,2.1.4.8.6,1.7.6,2.7s-.1,1.8-.4,2.5c-.3.7-.7,1.4-1.2,1.9-.5.5-1.2,1-1.9,1.3-.7.4-1.5.6-2.4.8l6.8,9h-3.1ZM413.4,286.4c-1-.8-2.4-1.2-4.2-1.2h-6.9v9h6.8c.8,0,1.6-.1,2.3-.3s1.3-.5,1.8-.9c.5-.4.9-.9,1.2-1.4.3-.6.4-1.2.4-1.9,0-1.4-.5-2.5-1.5-3.3Z"></path>
    </g>
  </g>
  <line class="st0" x1="25.5" y1="343.3" x2="454.7" y2="343.3"></line>
  <g>
    <path class="st1" d="M156.4,388h3.1v8.8c-2.3,1.9-5.4,2.9-8.6,2.9-6.9,0-12-4.9-12-11.6s5.1-11.6,12.1-11.6,6.6,1.2,8.7,3.5l-2,2c-1.9-1.8-4-2.6-6.6-2.6-5.2,0-9,3.6-9,8.7s3.8,8.7,9,8.7,3.7-.4,5.3-1.5v-7.4Z"></path>
    <path class="st1" d="M186.6,393.8h-12l-2.5,5.7h-3.3l10.2-22.6h3.2l10.3,22.6h-3.4l-2.5-5.7ZM185.4,391.2l-4.9-11.1-4.9,11.1h9.8Z"></path>
    <path class="st1" d="M217.4,399.4l-4.9-6.9c-.5,0-.9,0-1.4,0h-5.6v6.9h-3.2v-22.6h8.8c5.9,0,9.4,3,9.4,7.9s-1.8,6-5,7.1l5.4,7.6h-3.5ZM217.3,384.7c0-3.2-2.2-5.1-6.3-5.1h-5.5v10.2h5.5c4.1,0,6.3-1.9,6.3-5.1Z"></path>
    <path class="st1" d="M232.2,376.8h9.5c7.3,0,12.2,4.6,12.2,11.3s-4.9,11.3-12.2,11.3h-9.5v-22.6ZM241.5,396.6c5.6,0,9.2-3.4,9.2-8.5s-3.6-8.5-9.2-8.5h-6.1v17h6.1Z"></path>
    <path class="st1" d="M281.7,396.6v2.8h-16.4v-22.6h16v2.8h-12.7v6.9h11.3v2.7h-11.3v7.3h13.2Z"></path>
    <path class="st1" d="M312.9,376.8v22.6h-2.6l-13.6-16.9v16.9h-3.2v-22.6h2.6l13.6,16.9v-16.9h3.2Z"></path>
    <path class="st1" d="M324,396.9l1.2-2.5c1.7,1.5,4.6,2.6,7.5,2.6s5.6-1.5,5.6-3.5c0-5.5-13.7-2-13.7-10.4s2.7-6.5,8.7-6.5,5.4.7,7.3,2l-1.1,2.6c-2-1.3-4.2-1.8-6.2-1.8-3.8,0-5.5,1.6-5.5,3.6,0,5.5,13.7,2.1,13.7,10.4s-2.8,6.4-8.8,6.4-6.8-1.2-8.7-2.8Z"></path>
  </g>
</svg>