<?xml version="1.0" encoding="utf-8"?>
<!-- Generator: Adobe Illustrator 27.2.0, SVG Export Plug-In . SVG Version: 6.00 Build 0)  -->
<svg version="1.1" id="Capa_1" xmlns="http://www.w3.org/2000/svg" xmlns:xlink="http://www.w3.org/1999/xlink" x="0px" y="0px"
	 viewBox="0 0 408 220" style="enable-background:new 0 0 408 220;" xml:space="preserve">
<style type="text/css">
	.st0{fill:#FFFFFF;}
	.st1{fill:#FAB413;}
</style>
<g>
	<g>
		<path class="st0" d="M29.22,115.48H13.46v-10.51h42.91v10.51H40.61v41.28H29.22L29.22,115.48L29.22,115.48z"/>
		<path class="st0" d="M79.75,104.97h23.67c6.58,0,11.69,1.85,15.09,5.25c2.88,2.88,4.44,6.95,4.44,11.84v0.15
			c0,8.36-4.51,13.61-11.1,16.05l12.65,18.49h-13.32l-11.1-16.57h-8.95v16.57H79.74v-51.78H79.75z M102.68,130.13
			c5.55,0,8.73-2.96,8.73-7.32v-0.15c0-4.88-3.4-7.4-8.95-7.4H91.14v14.87H102.68z"/>
		<path class="st0" d="M147.96,104.97h39.06v10.14h-27.74v10.51h24.41v10.13h-24.41v10.87h28.11v10.14h-39.43L147.96,104.97
			L147.96,104.97z"/>
		<path class="st0" d="M208.63,149.21l6.73-8.06c4.66,3.85,9.54,6.29,15.46,6.29c4.66,0,7.47-1.85,7.47-4.88v-0.15
			c0-2.89-1.78-4.36-10.43-6.58c-10.43-2.66-17.16-5.55-17.16-15.83v-0.15c0-9.39,7.55-15.61,18.12-15.61
			c7.55,0,13.98,2.37,19.23,6.58l-5.92,8.58c-4.59-3.18-9.1-5.1-13.46-5.1s-6.66,2-6.66,4.51v0.15c0,3.4,2.22,4.51,11.17,6.81
			c10.51,2.74,16.42,6.51,16.42,15.54v0.15c0,10.28-7.84,16.05-19.01,16.05C222.76,157.5,214.84,154.76,208.63,149.21z"/>
		<path class="st0" d="M271.88,131.01v-0.15c0-14.72,11.61-26.78,27.59-26.78s27.45,11.91,27.45,26.63v0.15
			c0,14.72-11.61,26.78-27.59,26.78C283.35,157.65,271.88,145.73,271.88,131.01z M315.01,131.01v-0.15
			c0-8.88-6.51-16.27-15.68-16.27c-9.17,0-15.54,7.25-15.54,16.13v0.15c0,8.88,6.51,16.28,15.68,16.28
			C308.65,147.14,315.01,139.89,315.01,131.01z"/>
		<path class="st0" d="M351.78,104.97h23.67c6.58,0,11.69,1.85,15.09,5.25c2.88,2.88,4.44,6.95,4.44,11.84v0.15
			c0,8.36-4.51,13.61-11.1,16.05l12.65,18.49h-13.32l-11.1-16.57h-8.95v16.57h-11.39L351.78,104.97L351.78,104.97z M374.72,130.13
			c5.55,0,8.73-2.96,8.73-7.32v-0.15c0-4.88-3.4-7.4-8.95-7.4h-11.32v14.87H374.72z"/>
	</g>
	<g>
		<path class="st0" d="M106.07,209.69c-0.23-0.69-0.38-1.11-0.38-3.3v-4.22c0-2.49-0.84-3.41-2.76-3.41h-1.46v10.93h-4.22v-26.84
			h6.37c4.37,0,6.25,2.03,6.25,6.17v2.11c0,2.76-0.88,4.52-2.76,5.41v0.08c2.11,0.88,2.8,2.88,2.8,5.67v4.14
			c0,1.3,0.04,2.26,0.46,3.26L106.07,209.69L106.07,209.69z M101.47,186.69v8.24h1.65c1.57,0,2.53-0.69,2.53-2.84v-2.65
			c0-1.92-0.65-2.76-2.15-2.76h-2.03V186.69z"/>
		<path class="st0" d="M124.48,194.16h5.79V198h-5.79v7.86h7.29v3.83h-11.5v-26.84h11.5v3.83h-7.29V194.16z"/>
		<path class="st0" d="M155.66,209.69h-4.26l-0.73-4.87h-5.18l-0.73,4.87h-3.87l4.29-26.84h6.17L155.66,209.69z M146.03,201.18h4.06
			l-1.99-13.58h-0.08L146.03,201.18z"/>
		<path class="st0" d="M165.24,182.85h4.22v23.01h6.94v3.83h-11.16V182.85z"/>
		<path class="st0" d="M203.67,194.16h5.79V198h-5.79v7.86h7.29v3.83h-11.5v-26.84h11.5v3.83h-7.29V194.16z"/>
		<path class="st0" d="M226.87,182.54c4.1,0,6.21,2.45,6.21,6.75v0.84h-3.99v-1.11c0-1.92-0.77-2.65-2.11-2.65s-2.11,0.73-2.11,2.65
			c0,1.96,0.84,3.41,3.6,5.83c3.53,3.11,4.64,5.33,4.64,8.4c0,4.29-2.15,6.75-6.29,6.75s-6.29-2.45-6.29-6.75v-1.65h3.99v1.92
			c0,1.92,0.84,2.61,2.19,2.61c1.34,0,2.19-0.69,2.19-2.61c0-1.96-0.84-3.41-3.6-5.83c-3.53-3.11-4.64-5.33-4.64-8.4
			C220.66,185,222.77,182.54,226.87,182.54z"/>
		<path class="st0" d="M241.95,182.85h13.04v3.83h-4.41v23.01h-4.22v-23.01h-4.41V182.85z"/>
		<path class="st0" d="M278.11,209.69h-4.26l-0.73-4.87h-5.18l-0.73,4.87h-3.87l4.29-26.84h6.17L278.11,209.69z M268.48,201.18h4.06
			l-1.99-13.58h-0.08L268.48,201.18z"/>
		<path class="st0" d="M286.43,182.85h13.04v3.83h-4.41v23.01h-4.22v-23.01h-4.41V182.85z"/>
		<path class="st0" d="M313.16,194.16h5.79V198h-5.79v7.86h7.29v3.83h-11.5v-26.84h11.5v3.83h-7.29V194.16z"/>
	</g>
	<path class="st1" d="M203.49,71.5l-34.03-47.13L182.27,10h39.67l13.76,14.26L203.49,71.5z M175.93,24.71l27.44,37.98l25.84-37.88
		l-9.42-9.76h-35.25L175.93,24.71z"/>
	<rect x="172.69" y="23.73" class="st1" width="56.03" height="5.05"/>
	<polygon class="st1" points="202.78,27.87 182.49,16.23 185.01,11.83 202.84,22.07 220.65,12.28 223.08,16.72 	"/>
	
		<rect x="187.3" y="42.85" transform="matrix(0.2591 -0.9659 0.9659 0.2591 108.4378 232.1212)" class="st1" width="36.42" height="5.06"/>
</g>
</svg>
