<?xml version="1.0" encoding="utf-8"?>
<!-- Generator: Adobe Illustrator 27.2.0, SVG Export Plug-In . SVG Version: 6.00 Build 0)  -->
<svg version="1.1" id="Capa_1" xmlns="http://www.w3.org/2000/svg" xmlns:xlink="http://www.w3.org/1999/xlink" x="0px" y="0px"
	 viewBox="0 0 612 432.76" style="enable-background:new 0 0 612 432.76;" xml:space="preserve">
<style type="text/css">
	.st0{fill:#010202;}
</style>
<g>
	<g>
		<g>
			<path class="st0" d="M324.38,23.77c-9.08-4.04-19.12-6.3-29.7-6.3c-40.4,0-73.16,32.75-73.16,73.16
				c0,11.39,2.61,22.18,7.25,31.79C233.98,71.35,273.79,30.56,324.38,23.77z"/>
		</g>
		<g>
			<path class="st0" d="M396.27,142.73c4.73-8.74,7.76-18.58,8.58-29.12c3.13-40.28-26.99-75.47-67.28-78.6
				c-11.36-0.88-22.31,0.88-32.26,4.77C355.82,48.92,393.42,91.77,396.27,142.73z"/>
		</g>
		<g>
			<path class="st0" d="M286.25,221.07c9.08,4.04,19.12,6.3,29.7,6.3c40.4,0,73.16-32.75,73.16-73.16c0-11.39-2.61-22.18-7.25-31.79
				C376.65,173.49,336.84,214.28,286.25,221.07z"/>
		</g>
		<g>
			<path class="st0" d="M214.36,102.11c-4.73,8.74-7.76,18.58-8.58,29.12c-3.13,40.28,26.99,75.47,67.28,78.6
				c11.36,0.88,22.31-0.88,32.26-4.77C254.81,195.92,217.21,153.07,214.36,102.11z"/>
		</g>
	</g>
	<g>
		<path class="st0" d="M108.31,310.65v-32.43h9.9v32.03c0,10.47,5.39,16.02,14.24,16.02c8.77,0,14.17-5.23,14.17-15.62v-32.43h9.9
			v31.96c0,16.82-9.5,25.27-24.23,25.27C117.65,335.44,108.31,326.99,108.31,310.65z"/>
		<path class="st0" d="M302.78,287.39h-17.87v-9.17h45.71v9.17h-17.87v47.17h-9.98V287.39z"/>
		<path class="st0" d="M387.18,287.39h-17.86v-9.17h45.71v9.17h-17.87v47.17h-9.98V287.39z"/>
		<path class="st0" d="M545.67,306.54v-0.16c0-15.86,12.24-29.14,29.54-29.14s29.38,13.12,29.38,28.97v0.16
			c0,15.85-12.24,29.13-29.54,29.13C557.75,335.52,545.67,322.4,545.67,306.54z M594.2,306.54v-0.16c0-10.95-7.97-20.04-19.15-20.04
			c-11.19,0-19,8.93-19,19.88v0.16c0,10.94,7.97,19.96,19.16,19.96C586.4,326.34,594.2,317.49,594.2,306.54z"/>
		<polygon class="st0" points="229.5,277.81 220.32,277.81 195.53,334.55 205.67,334.55 211.47,320.95 215.09,312.18 224.75,289.64 
			234.49,312.18 238.11,320.95 243.82,334.55 254.29,334.55 		"/>
		<path class="st0" d="M490.41,313.22c7.81-2.25,13.36-7.81,13.36-17.06V296c0-4.91-1.69-9.09-4.67-12.15
			c-3.62-3.55-9.18-5.64-16.26-5.64h-25.11v56.34h9.9v-19.64v-8.77v-18.91h14.4c7.33,0,11.67,3.3,11.67,9.33v0.16
			c0,5.71-4.51,9.42-11.59,9.42h-2.09v8.77l13.84,19.64h11.75L490.41,313.22z"/>
		<path class="st0" d="M35.18,277.25c-16.09,0-29.13,13.04-29.13,29.13c0,16.09,13.04,29.13,29.13,29.13
			c16.09,0,29.13-13.04,29.13-29.13C64.31,290.29,51.27,277.25,35.18,277.25z M35.18,326.34c-11.04,0-20-8.95-20-20s8.95-20,20-20
			c11.04,0,20,8.95,20,20S46.22,326.34,35.18,326.34z"/>
		
			<rect x="33.03" y="277.03" transform="matrix(0.7071 -0.7071 0.7071 0.7071 -207.5201 117.4531)" class="st0" width="9.98" height="64.38"/>
	</g>
	<g>
		<path class="st0" d="M82.14,389.9c-0.64,1.25-1.5,2.29-2.59,3.13c-1.09,0.84-2.36,1.47-3.81,1.89c-1.45,0.42-2.99,0.63-4.62,0.63
			h-7.4v10.76h-3.44v-30.48h11.41c1.71,0,3.27,0.22,4.68,0.67c1.41,0.45,2.61,1.09,3.61,1.92c1,0.83,1.77,1.84,2.31,3.05
			c0.54,1.21,0.81,2.56,0.81,4.07C83.09,387.2,82.77,388.65,82.14,389.9z M77.4,380.69c-1.5-1.12-3.49-1.68-5.96-1.68h-7.73v13.41
			h7.55c1.25,0,2.39-0.16,3.43-0.48c1.03-0.32,1.92-0.78,2.66-1.37c0.74-0.59,1.31-1.31,1.7-2.13c0.39-0.83,0.59-1.75,0.59-2.77
			C79.65,383.47,78.9,381.81,77.4,380.69z"/>
		<path class="st0" d="M102.43,375.84h3.44v27.3h17.16v3.18h-20.6V375.84z"/>
		<path class="st0" d="M170.83,406.32h-3.7l-3.57-8.06h-16.59l-3.61,8.06h-3.53l13.89-30.7h3.22L170.83,406.32z M155.29,379.67
			l-6.97,15.55h13.89L155.29,379.67z"/>
		<path class="st0" d="M189.16,378.89v-3.05h23.77v2.31l-19.77,25.12h19.77v3.05h-24.43v-2.31l19.73-25.12H189.16z"/>
		<path class="st0" d="M261.53,406.32h-3.7l-3.57-8.06h-16.59l-3.61,8.06h-3.53l13.89-30.7h3.22L261.53,406.32z M245.99,379.67
			l-6.97,15.55h13.89L245.99,379.67z"/>
		<path class="st0" d="M330.4,403.68c-0.86,0.65-1.78,1.21-2.77,1.68c-0.99,0.46-2.05,0.83-3.18,1.09c-1.13,0.26-2.4,0.39-3.79,0.39
			c-2.21,0-4.24-0.41-6.1-1.22c-1.86-0.81-3.47-1.92-4.83-3.33c-1.37-1.41-2.43-3.07-3.2-4.99c-0.77-1.92-1.15-3.98-1.15-6.18
			c0-2.18,0.38-4.22,1.15-6.14c0.77-1.92,1.84-3.59,3.2-5.03c1.36-1.44,2.99-2.57,4.88-3.4c1.89-0.83,3.95-1.24,6.18-1.24
			c1.39,0,2.65,0.12,3.77,0.35c1.12,0.23,2.16,0.56,3.11,0.98c0.96,0.42,1.84,0.93,2.66,1.52c0.81,0.6,1.6,1.25,2.35,1.98
			l-2.35,2.53c-1.31-1.22-2.71-2.22-4.2-3c-1.5-0.78-3.29-1.18-5.38-1.18c-1.68,0-3.24,0.32-4.68,0.96
			c-1.44,0.64-2.69,1.52-3.74,2.66c-1.06,1.13-1.89,2.46-2.48,3.98c-0.6,1.52-0.89,3.17-0.89,4.94c0,1.77,0.3,3.43,0.89,4.96
			c0.59,1.54,1.42,2.87,2.48,4.01c1.06,1.13,2.31,2.02,3.74,2.68c1.44,0.65,3,0.98,4.68,0.98c2.09,0,3.89-0.38,5.4-1.15
			c1.51-0.77,2.99-1.85,4.44-3.24l2.26,2.22C332.07,402.3,331.25,403.03,330.4,403.68z"/>
		<path class="st0" d="M373.96,378.97h-18.59v10.41H372v3.13h-16.63v10.67h18.81v3.13h-22.25v-30.48h22.03V378.97z"/>
		<path class="st0" d="M416.59,375.84h3.35v30.48h-2.74l-19.68-24.99v24.99h-3.35v-30.48h3.22l19.2,24.43V375.84z"/>
		<path class="st0" d="M453.12,406.32h-3.44v-27.3h-10.23v-3.18h23.91v3.18h-10.23V406.32z"/>
		<path class="st0" d="M504.94,378.97h-18.59v10.41h16.63v3.13h-16.63v10.67h18.81v3.13h-22.25v-30.48h22.03V378.97z"/>
		<path class="st0" d="M546.13,406.32l-8.84-11.84h-8.71v11.84h-3.44v-30.48h13.11c1.68,0,3.2,0.22,4.55,0.65
			c1.35,0.44,2.5,1.05,3.46,1.85c0.96,0.8,1.7,1.76,2.22,2.88c0.52,1.12,0.78,2.36,0.78,3.73c0,1.28-0.2,2.42-0.61,3.42
			c-0.41,1-0.98,1.87-1.72,2.61c-0.74,0.74-1.62,1.36-2.63,1.85c-1.02,0.49-2.12,0.84-3.31,1.05l9.36,12.44H546.13z M543.77,380.61
			c-1.37-1.06-3.29-1.59-5.76-1.59h-9.43v12.41h9.38c1.14,0,2.18-0.15,3.14-0.44c0.96-0.29,1.79-0.71,2.49-1.25
			c0.7-0.54,1.24-1.2,1.64-1.99c0.39-0.79,0.59-1.68,0.59-2.67C545.83,383.17,545.14,381.67,543.77,380.61z"/>
	</g>
</g>
</svg>
