<?xml version="1.0"?>
<svg fill="currentColor" id="Capa_1" xmlns="http://www.w3.org/2000/svg" width="478.3" height="424" version="1.1" viewBox="0 0 478.3 424">
  
  <defs>
    
  </defs>
  <g>
    <g>
      <path class="st1" d="M253.9,27c-6.6-2.9-13.9-4.6-21.6-4.6-29.4,0-53.2,23.8-53.2,53.2s1.9,16.1,5.3,23.1c3.8-37.1,32.7-66.8,69.5-71.7Z"></path>
      <path class="st1" d="M306.2,113.5c3.4-6.4,5.6-13.5,6.2-21.2,2.3-29.3-19.6-54.9-48.9-57.1-8.3-.6-16.2.6-23.4,3.5,36.7,6.6,64,37.8,66.1,74.8Z"></path>
      <path class="st1" d="M226.2,170.4c6.6,2.9,13.9,4.6,21.6,4.6,29.4,0,53.2-23.8,53.2-53.2s-1.9-16.1-5.3-23.1c-3.8,37.1-32.7,66.8-69.5,71.7Z"></path>
      <path class="st1" d="M174,84c-3.4,6.4-5.6,13.5-6.2,21.2-2.3,29.3,19.6,54.9,48.9,57.1,8.3.6,16.2-.6,23.4-3.5-36.7-6.6-64-37.8-66.1-74.8Z"></path>
    </g>
    <g>
      <path class="st1" d="M96.9,235.5v-23.6h7.2v23.3c0,7.6,3.9,11.6,10.4,11.6s10.3-3.8,10.3-11.4v-23.6h7.2v23.2c0,12.2-6.9,18.4-17.6,18.4s-17.4-6.1-17.4-18Z"></path>
      <path class="st1" d="M238.2,218.6h-13v-6.7h33.2v6.7h-13v34.3h-7.3v-34.3Z"></path>
      <path class="st1" d="M299.6,218.6h-13v-6.7h33.2v6.7h-13v34.3h-7.3v-34.3Z"></path>
      <path class="st1" d="M414.8,232.6h0c0-11.6,8.9-21.3,21.5-21.3s21.4,9.5,21.4,21.1h0c0,11.6-8.9,21.3-21.5,21.3s-21.4-9.5-21.4-21.1ZM450,232.6h0c0-8.1-5.8-14.7-13.9-14.7s-13.8,6.5-13.8,14.4h0c0,8.1,5.8,14.6,13.9,14.6s13.8-6.4,13.8-14.4Z"></path>
      <polygon class="st1" points="185 211.7 178.3 211.7 160.3 252.9 167.6 252.9 171.9 243 174.5 236.7 181.5 220.3 188.6 236.7 191.2 243 195.4 252.9 203 252.9 185 211.7"></polygon>
      <path class="st1" d="M374.6,237.4c5.7-1.6,9.7-5.7,9.7-12.4h0c0-3.7-1.2-6.7-3.4-9-2.6-2.6-6.7-4.1-11.8-4.1h-18.3v41h7.2v-34.4h10.5c5.3,0,8.5,2.4,8.5,6.8h0c0,4.3-3.3,7-8.4,7h-1.5v6.4l10.1,14.3h8.5l-11.1-15.5Z"></path>
      <path class="st1" d="M43.7,211.3c-11.7,0-21.2,9.5-21.2,21.2s9.5,21.2,21.2,21.2,21.2-9.5,21.2-21.2-9.5-21.2-21.2-21.2ZM43.7,247c-8,0-14.5-6.5-14.5-14.5s6.5-14.5,14.5-14.5,14.5,6.5,14.5,14.5-6.5,14.5-14.5,14.5Z"></path>
      <rect class="st1" x="42.2" y="211.1" width="7.3" height="46.8" transform="translate(-152.4 101.1) rotate(-45)"></rect>
    </g>
    <g>
      <path class="st1" d="M77.9,293.2c-.5.9-1.1,1.7-1.9,2.3-.8.6-1.7,1.1-2.8,1.4-1.1.3-2.2.5-3.4.5h-5.4v7.8h-2.5v-22.2h8.3c1.2,0,2.4.2,3.4.5,1,.3,1.9.8,2.6,1.4.7.6,1.3,1.3,1.7,2.2s.6,1.9.6,3-.2,2.3-.7,3.2ZM74.4,286.5c-1.1-.8-2.5-1.2-4.3-1.2h-5.6v9.7h5.5c.9,0,1.7-.1,2.5-.3.8-.2,1.4-.6,1.9-1,.5-.4,1-.9,1.2-1.6.3-.6.4-1.3.4-2,0-1.6-.5-2.8-1.6-3.6Z"></path>
      <path class="st1" d="M92.6,282.9h2.5v19.8h12.5v2.3h-15v-22.2Z"></path>
      <path class="st1" d="M142.3,305.1h-2.7l-2.6-5.9h-12.1l-2.6,5.9h-2.6l10.1-22.3h2.3l10.1,22.3ZM131,285.7l-5.1,11.3h10.1l-5-11.3Z"></path>
      <path class="st1" d="M155.6,285.1v-2.2h17.3v1.7l-14.4,18.3h14.4v2.2h-17.8v-1.7l14.3-18.3h-13.9Z"></path>
      <path class="st1" d="M208.2,305.1h-2.7l-2.6-5.9h-12.1l-2.6,5.9h-2.6l10.1-22.3h2.3l10.1,22.3ZM196.9,285.7l-5.1,11.3h10.1l-5-11.3Z"></path>
      <path class="st1" d="M258.3,303.2c-.6.5-1.3.9-2,1.2-.7.3-1.5.6-2.3.8-.8.2-1.7.3-2.8.3-1.6,0-3.1-.3-4.4-.9-1.4-.6-2.5-1.4-3.5-2.4-1-1-1.8-2.2-2.3-3.6-.6-1.4-.8-2.9-.8-4.5s.3-3.1.8-4.5c.6-1.4,1.3-2.6,2.3-3.7,1-1,2.2-1.9,3.5-2.5,1.4-.6,2.9-.9,4.5-.9s1.9,0,2.7.3c.8.2,1.6.4,2.3.7.7.3,1.3.7,1.9,1.1s1.2.9,1.7,1.4l-1.7,1.8c-.9-.9-2-1.6-3.1-2.2-1.1-.6-2.4-.9-3.9-.9s-2.4.2-3.4.7c-1,.5-2,1.1-2.7,1.9-.8.8-1.4,1.8-1.8,2.9-.4,1.1-.6,2.3-.6,3.6s.2,2.5.6,3.6c.4,1.1,1,2.1,1.8,2.9.8.8,1.7,1.5,2.7,1.9,1,.5,2.2.7,3.4.7s2.8-.3,3.9-.8c1.1-.6,2.2-1.3,3.2-2.4l1.6,1.6c-.6.6-1.2,1.1-1.8,1.6Z"></path>
      <path class="st1" d="M290,285.2h-13.5v7.6h12.1v2.3h-12.1v7.8h13.7v2.3h-16.2v-22.2h16v2.3Z"></path>
      <path class="st1" d="M320.9,282.9h2.4v22.2h-2l-14.3-18.2v18.2h-2.4v-22.2h2.3l14,17.8v-17.8Z"></path>
      <path class="st1" d="M347.5,305.1h-2.5v-19.8h-7.4v-2.3h17.4v2.3h-7.4v19.8Z"></path>
      <path class="st1" d="M385.2,285.2h-13.5v7.6h12.1v2.3h-12.1v7.8h13.7v2.3h-16.2v-22.2h16v2.3Z"></path>
      <path class="st1" d="M415.1,305.1l-6.4-8.6h-6.3v8.6h-2.5v-22.2h9.5c1.2,0,2.3.2,3.3.5,1,.3,1.8.8,2.5,1.3.7.6,1.2,1.3,1.6,2.1.4.8.6,1.7.6,2.7s-.1,1.8-.4,2.5c-.3.7-.7,1.4-1.2,1.9-.5.5-1.2,1-1.9,1.3-.7.4-1.5.6-2.4.8l6.8,9h-3.1ZM413.4,286.4c-1-.8-2.4-1.2-4.2-1.2h-6.9v9h6.8c.8,0,1.6-.1,2.3-.3s1.3-.5,1.8-.9c.5-.4.9-.9,1.2-1.4.3-.6.4-1.2.4-1.9,0-1.4-.5-2.5-1.5-3.3Z"></path>
    </g>
  </g>
  <line class="st0" x1="25.5" y1="343.3" x2="454.7" y2="343.3"></line>
  <g>
    <path class="st1" d="M96.4,376.9h2.4v20.5h12.7v2.1h-15v-22.6Z"></path>
    <path class="st1" d="M119.4,388.2c0-6.6,5-11.5,11.9-11.5s11.8,4.9,11.8,11.5-5.1,11.5-11.8,11.5-11.9-4.9-11.9-11.5ZM140.8,388.2c0-5.4-4-9.4-9.5-9.4s-9.5,4-9.5,9.4,4.1,9.4,9.5,9.4,9.5-4,9.5-9.4Z"></path>
    <path class="st1" d="M173.9,376.9v22.6h-2l-14.5-18.3v18.3h-2.4v-22.6h2l14.6,18.3v-18.3h2.4Z"></path>
    <path class="st1" d="M203.6,388.2h2.3v8.6c-2.1,1.9-5.2,2.9-8.3,2.9-6.9,0-11.9-4.9-11.9-11.5s5-11.5,11.9-11.5,6.4,1.1,8.4,3.3l-1.5,1.5c-1.9-1.9-4.2-2.6-6.8-2.6-5.6,0-9.7,4-9.7,9.4s4.1,9.4,9.7,9.4,4.2-.5,5.9-1.7v-7.6Z"></path>
    <path class="st1" d="M234,376.9h2.4v22.6h-2.4v-22.6Z"></path>
    <path class="st1" d="M248.1,396.7l.9-1.8c1.6,1.6,4.5,2.7,7.5,2.7,4.2,0,6.1-1.8,6.1-4,0-6.2-13.9-2.4-13.9-10.8s2.6-6.2,8.3-6.2,5.2.7,7,2l-.8,1.9c-1.9-1.3-4.2-1.9-6.2-1.9-4.1,0-6,1.8-6,4.1,0,6.2,13.9,2.5,13.9,10.7s-2.6,6.2-8.4,6.2-6.7-1.2-8.4-2.9Z"></path>
    <path class="st1" d="M276.6,376.9h2.4v20.5h12.7v2.1h-15v-22.6Z"></path>
    <path class="st1" d="M316.3,393.4h-12.6l-2.7,6h-2.5l10.3-22.6h2.4l10.3,22.6h-2.5l-2.7-6ZM315.4,391.5l-5.4-12.1-5.4,12.1h10.8Z"></path>
    <path class="st1" d="M350.6,376.9v22.6h-2l-14.5-18.3v18.3h-2.4v-22.6h2l14.6,18.3v-18.3h2.4Z"></path>
    <path class="st1" d="M364.4,376.9h9.2c7.2,0,12.1,4.6,12.1,11.3s-4.9,11.3-12.1,11.3h-9.2v-22.6ZM373.5,397.4c6,0,9.9-3.8,9.9-9.2s-3.9-9.2-9.9-9.2h-6.7v18.5h6.7Z"></path>
  </g>
</svg>