<?xml version="1.0" encoding="UTF-8"?>
<svg id="Capa_1" xmlns="http://www.w3.org/2000/svg" width="21.6cm" height="27.9cm" version="1.1" viewBox="0 0 612 792">
  <!-- Generator: Adobe Illustrator 30.4.0, SVG Export Plug-In . SVG Version: 2.1.4 Build 226)  -->
  <defs>
    <style>
      .st0 {
        fill: #1d1d1b;
      }

      .st1 {
        fill: #fff;
      }
    </style>
  </defs>
  <g>
    <g>
      <path d="M1780.2,1046.1c-6.6-2.9-13.9-4.6-21.6-4.6-29.4,0-53.2,23.8-53.2,53.2s1.9,16.1,5.3,23.1c3.8-37.1,32.7-66.8,69.5-71.7Z"/>
      <path d="M1832.5,1132.6c3.4-6.4,5.6-13.5,6.2-21.2,2.3-29.3-19.6-54.9-48.9-57.1-8.3-.6-16.2.6-23.4,3.5,36.7,6.6,64,37.8,66.1,74.8Z"/>
      <path d="M1752.5,1189.5c6.6,2.9,13.9,4.6,21.6,4.6,29.4,0,53.2-23.8,53.2-53.2s-1.9-16.1-5.3-23.1c-3.8,37.1-32.7,66.8-69.5,71.7Z"/>
      <path d="M1700.3,1103c-3.4,6.4-5.6,13.5-6.2,21.2-2.3,29.3,19.6,54.9,48.9,57.1,8.3.6,16.2-.6,23.4-3.5-36.7-6.6-64-37.8-66.1-74.8Z"/>
    </g>
    <g>
      <path d="M1623.2,1254.6v-23.6h7.2v23.3c0,7.6,3.9,11.6,10.4,11.6s10.3-3.8,10.3-11.4v-23.6h7.2v23.2c0,12.2-6.9,18.4-17.6,18.4s-17.4-6.1-17.4-18Z"/>
      <path d="M1764.6,1237.7h-13v-6.7h33.2v6.7h-13v34.3h-7.3v-34.3Z"/>
      <path d="M1825.9,1237.7h-13v-6.7h33.2v6.7h-13v34.3h-7.3v-34.3Z"/>
      <path d="M1941.1,1251.6h0c0-11.6,8.9-21.3,21.5-21.3s21.4,9.5,21.4,21.1h0c0,11.6-8.9,21.3-21.5,21.3s-21.4-9.5-21.4-21.1ZM1976.4,1251.6h0c0-8.1-5.8-14.7-13.9-14.7s-13.8,6.5-13.8,14.4h0c0,8.1,5.8,14.6,13.9,14.6s13.8-6.4,13.8-14.4Z"/>
      <polygon points="1711.3 1230.7 1704.6 1230.7 1686.6 1272 1694 1272 1698.2 1262.1 1700.8 1255.7 1707.8 1239.3 1714.9 1255.7 1717.5 1262.1 1721.7 1272 1729.3 1272 1711.3 1230.7"/>
      <path d="M1900.9,1256.5c5.7-1.6,9.7-5.7,9.7-12.4h0c0-3.7-1.2-6.7-3.4-9-2.6-2.6-6.7-4.1-11.8-4.1h-18.3v41h7.2v-34.4h10.5c5.3,0,8.5,2.4,8.5,6.8h0c0,4.3-3.3,7-8.4,7h-1.5v6.4l10.1,14.3h8.5l-11.1-15.5Z"/>
      <path d="M1570,1230.3c-11.7,0-21.2,9.5-21.2,21.2s9.5,21.2,21.2,21.2,21.2-9.5,21.2-21.2-9.5-21.2-21.2-21.2ZM1570,1266c-8,0-14.5-6.5-14.5-14.5s6.5-14.5,14.5-14.5,14.5,6.5,14.5,14.5-6.5,14.5-14.5,14.5Z"/>
      <rect x="1568.5" y="1230.2" width="7.3" height="46.8" transform="translate(-425.9501 1478.8138) rotate(-45)"/>
    </g>
    <g>
      <path d="M1604.2,1312.2c-.5.9-1.1,1.7-1.9,2.3-.8.6-1.7,1.1-2.8,1.4-1.1.3-2.2.5-3.4.5h-5.4v7.8h-2.5v-22.2h8.3c1.2,0,2.4.2,3.4.5,1,.3,1.9.8,2.6,1.4.7.6,1.3,1.3,1.7,2.2s.6,1.9.6,3-.2,2.3-.7,3.2ZM1600.7,1305.5c-1.1-.8-2.5-1.2-4.3-1.2h-5.6v9.7h5.5c.9,0,1.7-.1,2.5-.3.8-.2,1.4-.6,1.9-1,.5-.4,1-.9,1.2-1.6.3-.6.4-1.3.4-2,0-1.6-.5-2.8-1.6-3.6Z"/>
      <path d="M1618.9,1302h2.5v19.8h12.5v2.3h-15v-22.2Z"/>
      <path d="M1668.6,1324.1h-2.7l-2.6-5.9h-12.1l-2.6,5.9h-2.6l10.1-22.3h2.3l10.1,22.3ZM1657.3,1304.8l-5.1,11.3h10.1l-5-11.3Z"/>
      <path d="M1682,1304.2v-2.2h17.3v1.7l-14.4,18.3h14.4v2.2h-17.8v-1.7l14.3-18.3h-13.9Z"/>
      <path d="M1734.6,1324.1h-2.7l-2.6-5.9h-12.1l-2.6,5.9h-2.6l10.1-22.3h2.3l10.1,22.3ZM1723.3,1304.8l-5.1,11.3h10.1l-5-11.3Z"/>
      <path d="M1784.6,1322.2c-.6.5-1.3.9-2,1.2-.7.3-1.5.6-2.3.8-.8.2-1.7.3-2.8.3-1.6,0-3.1-.3-4.4-.9-1.4-.6-2.5-1.4-3.5-2.4-1-1-1.8-2.2-2.3-3.6-.6-1.4-.8-2.9-.8-4.5s.3-3.1.8-4.5c.6-1.4,1.3-2.6,2.3-3.7,1-1,2.2-1.9,3.5-2.5,1.4-.6,2.9-.9,4.5-.9s1.9,0,2.7.3c.8.2,1.6.4,2.3.7.7.3,1.3.7,1.9,1.1s1.2.9,1.7,1.4l-1.7,1.8c-.9-.9-2-1.6-3.1-2.2-1.1-.6-2.4-.9-3.9-.9s-2.4.2-3.4.7c-1,.5-2,1.1-2.7,1.9-.8.8-1.4,1.8-1.8,2.9-.4,1.1-.6,2.3-.6,3.6s.2,2.5.6,3.6c.4,1.1,1,2.1,1.8,2.9.8.8,1.7,1.5,2.7,1.9,1,.5,2.2.7,3.4.7s2.8-.3,3.9-.8c1.1-.6,2.2-1.3,3.2-2.4l1.6,1.6c-.6.6-1.2,1.1-1.8,1.6Z"/>
      <path d="M1816.3,1304.3h-13.5v7.6h12.1v2.3h-12.1v7.8h13.7v2.3h-16.2v-22.2h16v2.3Z"/>
      <path d="M1847.3,1302h2.4v22.2h-2l-14.3-18.2v18.2h-2.4v-22.2h2.3l14,17.8v-17.8Z"/>
      <path d="M1873.8,1324.1h-2.5v-19.8h-7.4v-2.3h17.4v2.3h-7.4v19.8Z"/>
      <path d="M1911.5,1304.3h-13.5v7.6h12.1v2.3h-12.1v7.8h13.7v2.3h-16.2v-22.2h16v2.3Z"/>
      <path d="M1941.4,1324.1l-6.4-8.6h-6.3v8.6h-2.5v-22.2h9.5c1.2,0,2.3.2,3.3.5,1,.3,1.8.8,2.5,1.3.7.6,1.2,1.3,1.6,2.1.4.8.6,1.7.6,2.7s-.1,1.8-.4,2.5c-.3.7-.7,1.4-1.2,1.9-.5.5-1.2,1-1.9,1.3-.7.4-1.5.6-2.4.8l6.8,9h-3.1ZM1939.7,1305.5c-1-.8-2.4-1.2-4.2-1.2h-6.9v9h6.8c.8,0,1.6-.1,2.3-.3s1.3-.5,1.8-.9c.5-.4.9-.9,1.2-1.4.3-.6.4-1.2.4-1.9,0-1.4-.5-2.5-1.5-3.3Z"/>
    </g>
  </g>
  <path d="M1551.8,1362.4c137.5-.6,291.7-.6,429.2,0-137.5.6-291.7.6-429.2,0h0Z"/>
  <g>
    <g>
      <path class="st1" d="M1769.8,201.3c-6.6-2.9-13.9-4.6-21.6-4.6-29.4,0-53.2,23.8-53.2,53.2s1.9,16.1,5.3,23.1c3.8-37.1,32.7-66.8,69.5-71.7Z"/>
      <path class="st1" d="M1822,287.8c3.4-6.4,5.6-13.5,6.2-21.2,2.3-29.3-19.6-54.9-48.9-57.1-8.3-.6-16.2.6-23.4,3.5,36.7,6.6,64,37.8,66.1,74.8Z"/>
      <path class="st1" d="M1742.1,344.7c6.6,2.9,13.9,4.6,21.6,4.6,29.4,0,53.2-23.8,53.2-53.2s-1.9-16.1-5.3-23.1c-3.8,37.1-32.7,66.8-69.5,71.7Z"/>
      <path class="st1" d="M1689.8,258.3c-3.4,6.4-5.6,13.5-6.2,21.2-2.3,29.3,19.6,54.9,48.9,57.1,8.3.6,16.2-.6,23.4-3.5-36.7-6.6-64-37.8-66.1-74.8Z"/>
    </g>
    <g>
      <path class="st1" d="M1612.7,409.9v-23.6h7.2v23.3c0,7.6,3.9,11.6,10.4,11.6s10.3-3.8,10.3-11.4v-23.6h7.2v23.2c0,12.2-6.9,18.4-17.6,18.4s-17.4-6.1-17.4-18Z"/>
      <path class="st1" d="M1754.1,392.9h-13v-6.7h33.2v6.7h-13v34.3h-7.3v-34.3Z"/>
      <path class="st1" d="M1815.4,392.9h-13v-6.7h33.2v6.7h-13v34.3h-7.3v-34.3Z"/>
      <path class="st1" d="M1930.6,406.9h0c0-11.6,8.9-21.3,21.5-21.3s21.4,9.5,21.4,21.1h0c0,11.6-8.9,21.3-21.5,21.3s-21.4-9.5-21.4-21.1ZM1965.9,406.9h0c0-8.1-5.8-14.7-13.9-14.7s-13.8,6.5-13.8,14.4h0c0,8.1,5.8,14.6,13.9,14.6s13.8-6.4,13.8-14.4Z"/>
      <polygon class="st1" points="1700.8 386 1694.1 386 1676.1 427.2 1683.5 427.2 1687.7 417.3 1690.3 411 1697.3 394.6 1704.4 411 1707.1 417.3 1711.2 427.2 1718.8 427.2 1700.8 386"/>
      <path class="st1" d="M1890.4,411.7c5.7-1.6,9.7-5.7,9.7-12.4h0c0-3.7-1.2-6.7-3.4-9-2.6-2.6-6.7-4.1-11.8-4.1h-18.3v41h7.2v-34.4h10.5c5.3,0,8.5,2.4,8.5,6.8h0c0,4.3-3.3,7-8.4,7h-1.5v6.4l10.1,14.3h8.5l-11.1-15.5Z"/>
      <path class="st1" d="M1559.6,385.6c-11.7,0-21.2,9.5-21.2,21.2s9.5,21.2,21.2,21.2,21.2-9.5,21.2-21.2-9.5-21.2-21.2-21.2ZM1559.6,421.3c-8,0-14.5-6.5-14.5-14.5s6.5-14.5,14.5-14.5,14.5,6.5,14.5,14.5-6.5,14.5-14.5,14.5Z"/>
      <rect class="st1" x="1558" y="385.4" width="7.3" height="46.8" transform="translate(168.3084 1223.9756) rotate(-45)"/>
    </g>
    <g>
      <path class="st1" d="M1593.7,467.5c-.5.9-1.1,1.7-1.9,2.3-.8.6-1.7,1.1-2.8,1.4-1.1.3-2.2.5-3.4.5h-5.4v7.8h-2.5v-22.2h8.3c1.2,0,2.4.2,3.4.5,1,.3,1.9.8,2.6,1.4.7.6,1.3,1.3,1.7,2.2s.6,1.9.6,3-.2,2.3-.7,3.2ZM1590.3,460.8c-1.1-.8-2.5-1.2-4.3-1.2h-5.6v9.7h5.5c.9,0,1.7-.1,2.5-.3.8-.2,1.4-.6,1.9-1,.5-.4,1-.9,1.2-1.6.3-.6.4-1.3.4-2,0-1.6-.5-2.8-1.6-3.6Z"/>
      <path class="st1" d="M1608.4,457.2h2.5v19.8h12.5v2.3h-15v-22.2Z"/>
      <path class="st1" d="M1658.2,479.4h-2.7l-2.6-5.9h-12.1l-2.6,5.9h-2.6l10.1-22.3h2.3l10.1,22.3ZM1646.9,460l-5.1,11.3h10.1l-5-11.3Z"/>
      <path class="st1" d="M1671.5,459.5v-2.2h17.3v1.7l-14.4,18.3h14.4v2.2h-17.8v-1.7l14.3-18.3h-13.9Z"/>
      <path class="st1" d="M1724.1,479.4h-2.7l-2.6-5.9h-12.1l-2.6,5.9h-2.6l10.1-22.3h2.3l10.1,22.3ZM1712.8,460l-5.1,11.3h10.1l-5-11.3Z"/>
      <path class="st1" d="M1774.1,477.5c-.6.5-1.3.9-2,1.2-.7.3-1.5.6-2.3.8-.8.2-1.7.3-2.8.3-1.6,0-3.1-.3-4.4-.9-1.4-.6-2.5-1.4-3.5-2.4-1-1-1.8-2.2-2.3-3.6-.6-1.4-.8-2.9-.8-4.5s.3-3.1.8-4.5c.6-1.4,1.3-2.6,2.3-3.7,1-1,2.2-1.9,3.5-2.5,1.4-.6,2.9-.9,4.5-.9s1.9,0,2.7.3c.8.2,1.6.4,2.3.7.7.3,1.3.7,1.9,1.1s1.2.9,1.7,1.4l-1.7,1.8c-.9-.9-2-1.6-3.1-2.2-1.1-.6-2.4-.9-3.9-.9s-2.4.2-3.4.7c-1,.5-2,1.1-2.7,1.9-.8.8-1.4,1.8-1.8,2.9-.4,1.1-.6,2.3-.6,3.6s.2,2.5.6,3.6c.4,1.1,1,2.1,1.8,2.9.8.8,1.7,1.5,2.7,1.9,1,.5,2.2.7,3.4.7s2.8-.3,3.9-.8c1.1-.6,2.2-1.3,3.2-2.4l1.6,1.6c-.6.6-1.2,1.1-1.8,1.6Z"/>
      <path class="st1" d="M1805.8,459.5h-13.5v7.6h12.1v2.3h-12.1v7.8h13.7v2.3h-16.2v-22.2h16v2.3Z"/>
      <path class="st1" d="M1836.8,457.2h2.4v22.2h-2l-14.3-18.2v18.2h-2.4v-22.2h2.3l14,17.8v-17.8Z"/>
      <path class="st1" d="M1863.3,479.4h-2.5v-19.8h-7.4v-2.3h17.4v2.3h-7.4v19.8Z"/>
      <path class="st1" d="M1901,459.5h-13.5v7.6h12.1v2.3h-12.1v7.8h13.7v2.3h-16.2v-22.2h16v2.3Z"/>
      <path class="st1" d="M1930.9,479.4l-6.4-8.6h-6.3v8.6h-2.5v-22.2h9.5c1.2,0,2.3.2,3.3.5,1,.3,1.8.8,2.5,1.3.7.6,1.2,1.3,1.6,2.1.4.8.6,1.7.6,2.7s-.1,1.8-.4,2.5c-.3.7-.7,1.4-1.2,1.9-.5.5-1.2,1-1.9,1.3-.7.4-1.5.6-2.4.8l6.8,9h-3.1ZM1929.2,460.7c-1-.8-2.4-1.2-4.2-1.2h-6.9v9h6.8c.8,0,1.6-.1,2.3-.3s1.3-.5,1.8-.9c.5-.4.9-.9,1.2-1.4.3-.6.4-1.2.4-1.9,0-1.4-.5-2.5-1.5-3.3Z"/>
    </g>
  </g>
  <path class="st1" d="M1541.3,517.6c137.5-.6,291.7-.6,429.2,0-137.5.6-291.7.6-429.2,0h0Z"/>
  <g>
    <g>
      <path d="M-1055.6,1033.2c-6.6-2.9-13.9-4.6-21.6-4.6-29.4,0-53.2,23.8-53.2,53.2s1.9,16.1,5.3,23.1c3.8-37.1,32.7-66.8,69.5-71.7Z"/>
      <path d="M-1003.4,1119.7c3.4-6.4,5.6-13.5,6.2-21.2,2.3-29.3-19.6-54.9-48.9-57.1-8.3-.6-16.2.6-23.4,3.5,36.7,6.6,64,37.8,66.1,74.8Z"/>
      <path d="M-1083.3,1176.6c6.6,2.9,13.9,4.6,21.6,4.6,29.4,0,53.2-23.8,53.2-53.2s-1.9-16.1-5.3-23.1c-3.8,37.1-32.7,66.8-69.5,71.7Z"/>
      <path d="M-1135.6,1090.2c-3.4,6.4-5.6,13.5-6.2,21.2-2.3,29.3,19.6,54.9,48.9,57.1,8.3.6,16.2-.6,23.4-3.5-36.7-6.6-64-37.8-66.1-74.8Z"/>
    </g>
    <g>
      <path d="M-1212.7,1241.7v-23.6h7.2v23.3c0,7.6,3.9,11.6,10.4,11.6s10.3-3.8,10.3-11.4v-23.6h7.2v23.2c0,12.2-6.9,18.4-17.6,18.4s-17.4-6.1-17.4-18Z"/>
      <path d="M-1071.3,1224.8h-13v-6.7h33.2v6.7h-13v34.3h-7.3v-34.3Z"/>
      <path d="M-1010,1224.8h-13v-6.7h33.2v6.7h-13v34.3h-7.3v-34.3Z"/>
      <path d="M-894.8,1238.7h0c0-11.6,8.9-21.3,21.5-21.3s21.4,9.5,21.4,21.1h0c0,11.6-8.9,21.3-21.5,21.3s-21.4-9.5-21.4-21.1ZM-859.5,1238.7h0c0-8.1-5.8-14.7-13.9-14.7s-13.8,6.5-13.8,14.4h0c0,8.1,5.8,14.6,13.9,14.6s13.8-6.4,13.8-14.4Z"/>
      <polygon points="-1124.6 1217.9 -1131.3 1217.9 -1149.3 1259.1 -1141.9 1259.1 -1137.7 1249.2 -1135.1 1242.8 -1128 1226.5 -1121 1242.8 -1118.3 1249.2 -1114.2 1259.1 -1106.6 1259.1 -1124.6 1217.9"/>
      <path d="M-935,1243.6c5.7-1.6,9.7-5.7,9.7-12.4h0c0-3.7-1.2-6.7-3.4-9-2.6-2.6-6.7-4.1-11.8-4.1h-18.3v41h7.2v-34.4h10.5c5.3,0,8.5,2.4,8.5,6.8h0c0,4.3-3.3,7-8.4,7h-1.5v6.4l10.1,14.3h8.5l-11.1-15.5Z"/>
      <path d="M-1265.8,1217.5c-11.7,0-21.2,9.5-21.2,21.2s9.5,21.2,21.2,21.2,21.2-9.5,21.2-21.2-9.5-21.2-21.2-21.2ZM-1265.8,1253.1c-8,0-14.5-6.5-14.5-14.5s6.5-14.5,14.5-14.5,14.5,6.5,14.5,14.5-6.5,14.5-14.5,14.5Z"/>
      <rect x="-1267.4" y="1217.3" width="7.3" height="46.8" transform="translate(-1247.454 -530.2307) rotate(-45)"/>
    </g>
    <g>
      <path d="M-1231.7,1299.3c-.5.9-1.1,1.7-1.9,2.3-.8.6-1.7,1.1-2.8,1.4-1.1.3-2.2.5-3.4.5h-5.4v7.8h-2.5v-22.2h8.3c1.2,0,2.4.2,3.4.5,1,.3,1.9.8,2.6,1.4.7.6,1.3,1.3,1.7,2.2s.6,1.9.6,3-.2,2.3-.7,3.2ZM-1235.1,1292.6c-1.1-.8-2.5-1.2-4.3-1.2h-5.6v9.7h5.5c.9,0,1.7-.1,2.5-.3.8-.2,1.4-.6,1.9-1,.5-.4,1-.9,1.2-1.6.3-.6.4-1.3.4-2,0-1.6-.5-2.8-1.6-3.6Z"/>
      <path d="M-1217,1289.1h2.5v19.8h12.5v2.3h-15v-22.2Z"/>
      <path d="M-1167.2,1311.3h-2.7l-2.6-5.9h-12.1l-2.6,5.9h-2.6l10.1-22.3h2.3l10.1,22.3ZM-1178.5,1291.9l-5.1,11.3h10.1l-5-11.3Z"/>
      <path d="M-1153.9,1291.3v-2.2h17.3v1.7l-14.4,18.3h14.4v2.2h-17.8v-1.7l14.3-18.3h-13.9Z"/>
      <path d="M-1101.3,1311.3h-2.7l-2.6-5.9h-12.1l-2.6,5.9h-2.6l10.1-22.3h2.3l10.1,22.3ZM-1112.6,1291.9l-5.1,11.3h10.1l-5-11.3Z"/>
      <path d="M-1051.3,1309.4c-.6.5-1.3.9-2,1.2-.7.3-1.5.6-2.3.8-.8.2-1.7.3-2.8.3-1.6,0-3.1-.3-4.4-.9-1.4-.6-2.5-1.4-3.5-2.4-1-1-1.8-2.2-2.3-3.6-.6-1.4-.8-2.9-.8-4.5s.3-3.1.8-4.5c.6-1.4,1.3-2.6,2.3-3.7,1-1,2.2-1.9,3.5-2.5,1.4-.6,2.9-.9,4.5-.9s1.9,0,2.7.3c.8.2,1.6.4,2.3.7.7.3,1.3.7,1.9,1.1s1.2.9,1.7,1.4l-1.7,1.8c-.9-.9-2-1.6-3.1-2.2-1.1-.6-2.4-.9-3.9-.9s-2.4.2-3.4.7c-1,.5-2,1.1-2.7,1.9-.8.8-1.4,1.8-1.8,2.9-.4,1.1-.6,2.3-.6,3.6s.2,2.5.6,3.6c.4,1.1,1,2.1,1.8,2.9.8.8,1.7,1.5,2.7,1.9,1,.5,2.2.7,3.4.7s2.8-.3,3.9-.8c1.1-.6,2.2-1.3,3.2-2.4l1.6,1.6c-.6.6-1.2,1.1-1.8,1.6Z"/>
      <path d="M-1019.6,1291.4h-13.5v7.6h12.1v2.3h-12.1v7.8h13.7v2.3h-16.2v-22.2h16v2.3Z"/>
      <path d="M-988.6,1289.1h2.4v22.2h-2l-14.3-18.2v18.2h-2.4v-22.2h2.3l14,17.8v-17.8Z"/>
      <path d="M-962.1,1311.3h-2.5v-19.8h-7.4v-2.3h17.4v2.3h-7.4v19.8Z"/>
      <path d="M-924.4,1291.4h-13.5v7.6h12.1v2.3h-12.1v7.8h13.7v2.3h-16.2v-22.2h16v2.3Z"/>
      <path d="M-894.5,1311.3l-6.4-8.6h-6.3v8.6h-2.5v-22.2h9.5c1.2,0,2.3.2,3.3.5,1,.3,1.8.8,2.5,1.3.7.6,1.2,1.3,1.6,2.1.4.8.6,1.7.6,2.7s-.1,1.8-.4,2.5c-.3.7-.7,1.4-1.2,1.9-.5.5-1.2,1-1.9,1.3-.7.4-1.5.6-2.4.8l6.8,9h-3.1ZM-896.2,1292.6c-1-.8-2.4-1.2-4.2-1.2h-6.9v9h6.8c.8,0,1.6-.1,2.3-.3s1.3-.5,1.8-.9c.5-.4.9-.9,1.2-1.4.3-.6.4-1.2.4-1.9,0-1.4-.5-2.5-1.5-3.3Z"/>
    </g>
  </g>
  <path d="M-1284.1,1349.5c137.5-.6,291.7-.6,429.2,0-137.5.6-291.7.6-429.2,0h0Z"/>
  <rect class="st0" x="-1377.9" y=".2" width="612" height="792"/>
  <g>
    <g>
      <path class="st1" d="M-1058,198.9c-6.6-2.9-13.9-4.6-21.6-4.6-29.4,0-53.2,23.8-53.2,53.2s1.9,16.1,5.3,23.1c3.8-37.1,32.7-66.8,69.5-71.7Z"/>
      <path class="st1" d="M-1005.8,285.4c3.4-6.4,5.6-13.5,6.2-21.2,2.3-29.3-19.6-54.9-48.9-57.1-8.3-.6-16.2.6-23.4,3.5,36.7,6.6,64,37.8,66.1,74.8Z"/>
      <path class="st1" d="M-1085.7,342.4c6.6,2.9,13.9,4.6,21.6,4.6,29.4,0,53.2-23.8,53.2-53.2s-1.9-16.1-5.3-23.1c-3.8,37.1-32.7,66.8-69.5,71.7Z"/>
      <path class="st1" d="M-1138,255.9c-3.4,6.4-5.6,13.5-6.2,21.2-2.3,29.3,19.6,54.9,48.9,57.1,8.3.6,16.2-.6,23.4-3.5-36.7-6.6-64-37.8-66.1-74.8Z"/>
    </g>
    <g>
      <path class="st1" d="M-1215.1,407.5v-23.6h7.2v23.3c0,7.6,3.9,11.6,10.4,11.6s10.3-3.8,10.3-11.4v-23.6h7.2v23.2c0,12.2-6.9,18.4-17.6,18.4s-17.4-6.1-17.4-18Z"/>
      <path class="st1" d="M-1073.7,390.6h-13v-6.7h33.2v6.7h-13v34.3h-7.3v-34.3Z"/>
      <path class="st1" d="M-1012.4,390.6h-13v-6.7h33.2v6.7h-13v34.3h-7.3v-34.3Z"/>
      <path class="st1" d="M-897.2,404.5h0c0-11.6,8.9-21.3,21.5-21.3s21.4,9.5,21.4,21.1h0c0,11.6-8.9,21.3-21.5,21.3s-21.4-9.5-21.4-21.1ZM-861.9,404.5h0c0-8.1-5.8-14.7-13.9-14.7s-13.8,6.5-13.8,14.4h0c0,8.1,5.8,14.6,13.9,14.6s13.8-6.4,13.8-14.4Z"/>
      <polygon class="st1" points="-1127 383.6 -1133.7 383.6 -1151.7 424.8 -1144.3 424.8 -1140.1 415 -1137.5 408.6 -1130.4 392.2 -1123.4 408.6 -1120.7 415 -1116.6 424.8 -1109 424.8 -1127 383.6"/>
      <path class="st1" d="M-937.3,409.3c5.7-1.6,9.7-5.7,9.7-12.4h0c0-3.7-1.2-6.7-3.4-9-2.6-2.6-6.7-4.1-11.8-4.1h-18.3v41h7.2v-34.4h10.5c5.3,0,8.5,2.4,8.5,6.8h0c0,4.3-3.3,7-8.4,7h-1.5v6.4l10.1,14.3h8.5l-11.1-15.5Z"/>
      <path class="st1" d="M-1268.2,383.2c-11.7,0-21.2,9.5-21.2,21.2s9.5,21.2,21.2,21.2,21.2-9.5,21.2-21.2-9.5-21.2-21.2-21.2ZM-1268.2,418.9c-8,0-14.5-6.5-14.5-14.5s6.5-14.5,14.5-14.5,14.5,6.5,14.5,14.5-6.5,14.5-14.5,14.5Z"/>
      <rect class="st1" x="-1269.8" y="383" width="7.3" height="46.8" transform="translate(-658.2 -776.3) rotate(-45)"/>
    </g>
    <g>
      <path class="st1" d="M-1234.1,465.1c-.5.9-1.1,1.7-1.9,2.3-.8.6-1.7,1.1-2.8,1.4-1.1.3-2.2.5-3.4.5h-5.4v7.8h-2.5v-22.2h8.3c1.2,0,2.4.2,3.4.5,1,.3,1.9.8,2.6,1.4.7.6,1.3,1.3,1.7,2.2s.6,1.9.6,3-.2,2.3-.7,3.2ZM-1237.5,458.4c-1.1-.8-2.5-1.2-4.3-1.2h-5.6v9.7h5.5c.9,0,1.7-.1,2.5-.3.8-.2,1.4-.6,1.9-1,.5-.4,1-.9,1.2-1.6.3-.6.4-1.3.4-2,0-1.6-.5-2.8-1.6-3.6Z"/>
      <path class="st1" d="M-1219.3,454.8h2.5v19.8h12.5v2.3h-15v-22.2Z"/>
      <path class="st1" d="M-1169.6,477h-2.7l-2.6-5.9h-12.1l-2.6,5.9h-2.6l10.1-22.3h2.3l10.1,22.3ZM-1180.9,457.6l-5.1,11.3h10.1l-5-11.3Z"/>
      <path class="st1" d="M-1156.3,457.1v-2.2h17.3v1.7l-14.4,18.3h14.4v2.2h-17.8v-1.7l14.3-18.3h-13.9Z"/>
      <path class="st1" d="M-1103.7,477h-2.7l-2.6-5.9h-12.1l-2.6,5.9h-2.6l10.1-22.3h2.3l10.1,22.3ZM-1115,457.6l-5.1,11.3h10.1l-5-11.3Z"/>
      <path class="st1" d="M-1053.6,475.1c-.6.5-1.3.9-2,1.2-.7.3-1.5.6-2.3.8-.8.2-1.7.3-2.8.3-1.6,0-3.1-.3-4.4-.9-1.4-.6-2.5-1.4-3.5-2.4-1-1-1.8-2.2-2.3-3.6-.6-1.4-.8-2.9-.8-4.5s.3-3.1.8-4.5c.6-1.4,1.3-2.6,2.3-3.7,1-1,2.2-1.9,3.5-2.5,1.4-.6,2.9-.9,4.5-.9s1.9,0,2.7.3c.8.2,1.6.4,2.3.7.7.3,1.3.7,1.9,1.1s1.2.9,1.7,1.4l-1.7,1.8c-.9-.9-2-1.6-3.1-2.2-1.1-.6-2.4-.9-3.9-.9s-2.4.2-3.4.7c-1,.5-2,1.1-2.7,1.9-.8.8-1.4,1.8-1.8,2.9-.4,1.1-.6,2.3-.6,3.6s.2,2.5.6,3.6c.4,1.1,1,2.1,1.8,2.9.8.8,1.7,1.5,2.7,1.9,1,.5,2.2.7,3.4.7s2.8-.3,3.9-.8c1.1-.6,2.2-1.3,3.2-2.4l1.6,1.6c-.6.6-1.2,1.1-1.8,1.6Z"/>
      <path class="st1" d="M-1022,457.1h-13.5v7.6h12.1v2.3h-12.1v7.8h13.7v2.3h-16.2v-22.2h16v2.3Z"/>
      <path class="st1" d="M-991,454.8h2.4v22.2h-2l-14.3-18.2v18.2h-2.4v-22.2h2.3l14,17.8v-17.8Z"/>
      <path class="st1" d="M-964.4,477h-2.5v-19.8h-7.4v-2.3h17.4v2.3h-7.4v19.8Z"/>
      <path class="st1" d="M-926.8,457.1h-13.5v7.6h12.1v2.3h-12.1v7.8h13.7v2.3h-16.2v-22.2h16v2.3Z"/>
      <path class="st1" d="M-896.8,477l-6.4-8.6h-6.3v8.6h-2.5v-22.2h9.5c1.2,0,2.3.2,3.3.5,1,.3,1.8.8,2.5,1.3.7.6,1.2,1.3,1.6,2.1.4.8.6,1.7.6,2.7s-.1,1.8-.4,2.5c-.3.7-.7,1.4-1.2,1.9-.5.5-1.2,1-1.9,1.3-.7.4-1.5.6-2.4.8l6.8,9h-3.1ZM-898.5,458.3c-1-.8-2.4-1.2-4.2-1.2h-6.9v9h6.8c.8,0,1.6-.1,2.3-.3s1.3-.5,1.8-.9c.5-.4.9-.9,1.2-1.4.3-.6.4-1.2.4-1.9,0-1.4-.5-2.5-1.5-3.3Z"/>
    </g>
  </g>
  <path class="st1" d="M-1286.5,515.2c137.5-.6,291.7-.6,429.2,0-137.5.6-291.7.6-429.2,0h0Z"/>
  <g>
    <path class="st1" d="M-1215.6,548.8h2.4v20.5h12.7v2.1h-15v-22.6Z"/>
    <path class="st1" d="M-1192.5,560.1c0-6.6,5-11.5,11.9-11.5s11.8,4.9,11.8,11.5-5.1,11.5-11.8,11.5-11.9-4.9-11.9-11.5ZM-1171.2,560.1c0-5.4-4-9.4-9.5-9.4s-9.5,4-9.5,9.4,4.1,9.4,9.5,9.4,9.5-4,9.5-9.4Z"/>
    <path class="st1" d="M-1138.1,548.8v22.6h-2l-14.5-18.3v18.3h-2.4v-22.6h2l14.6,18.3v-18.3h2.4Z"/>
    <path class="st1" d="M-1108.3,560.1h2.3v8.6c-2.1,1.9-5.2,2.9-8.3,2.9-6.9,0-11.9-4.9-11.9-11.5s5-11.5,11.9-11.5,6.4,1.1,8.4,3.3l-1.5,1.5c-1.9-1.9-4.2-2.6-6.8-2.6-5.6,0-9.7,4-9.7,9.4s4.1,9.4,9.7,9.4,4.2-.5,5.9-1.7v-7.6Z"/>
    <path class="st1" d="M-1077.9,548.8h2.4v22.6h-2.4v-22.6Z"/>
    <path class="st1" d="M-1063.9,568.6l.9-1.8c1.6,1.6,4.5,2.7,7.5,2.7,4.2,0,6.1-1.8,6.1-4,0-6.2-13.9-2.4-13.9-10.8s2.6-6.2,8.3-6.2,5.2.7,7,2l-.8,1.9c-1.9-1.3-4.2-1.9-6.2-1.9-4.1,0-6,1.8-6,4.1,0,6.2,13.9,2.5,13.9,10.7s-2.6,6.2-8.4,6.2-6.7-1.2-8.4-2.9Z"/>
    <path class="st1" d="M-1035.4,548.8h2.4v20.5h12.7v2.1h-15v-22.6Z"/>
    <path class="st1" d="M-995.7,565.3h-12.6l-2.7,6h-2.5l10.3-22.6h2.4l10.3,22.6h-2.5l-2.7-6ZM-996.5,563.4l-5.4-12.1-5.4,12.1h10.8Z"/>
    <path class="st1" d="M-961.3,548.8v22.6h-2l-14.5-18.3v18.3h-2.4v-22.6h2l14.6,18.3v-18.3h2.4Z"/>
    <path class="st1" d="M-947.5,548.8h9.2c7.2,0,12.1,4.6,12.1,11.3s-4.9,11.3-12.1,11.3h-9.2v-22.6ZM-938.4,569.3c6,0,9.9-3.8,9.9-9.2s-3.9-9.2-9.9-9.2h-6.7v18.5h6.7Z"/>
  </g>
  <g>
    <path class="st1" d="M1698.7,551.2v22.6h-2.3v-18.1l-8.9,15.2h-1.1l-8.9-15.1v18h-2.3v-22.6h2l9.8,16.8,9.7-16.8h2Z"/>
    <path class="st1" d="M1726.7,567.7h-12.6l-2.7,6h-2.5l10.3-22.6h2.4l10.3,22.6h-2.5l-2.7-6ZM1725.8,565.8l-5.4-12.1-5.4,12.1h10.8Z"/>
    <path class="st1" d="M1757.5,573.8l-5.2-7.3c-.6,0-1.2,0-1.8,0h-6.1v7.2h-2.4v-22.6h8.5c5.7,0,9.2,2.9,9.2,7.7s-1.9,6-5.2,7.1l5.5,7.7h-2.6ZM1757.4,558.9c0-3.6-2.4-5.7-6.9-5.7h-6v11.3h6c4.5,0,6.9-2.1,6.9-5.7Z"/>
    <path class="st1" d="M1771.9,551.2h2.4v22.6h-2.4v-22.6Z"/>
    <path class="st1" d="M1807,551.2v22.6h-2l-14.5-18.3v18.3h-2.4v-22.6h2l14.6,18.3v-18.3h2.4Z"/>
    <path class="st1" d="M1835,567.7h-12.6l-2.7,6h-2.5l10.3-22.6h2.4l10.3,22.6h-2.5l-2.7-6ZM1834.1,565.8l-5.4-12.1-5.4,12.1h10.8Z"/>
  </g>
  <g>
    <g>
      <path class="st1" d="M1017.3,209.2c-6.6-2.9-13.9-4.6-21.6-4.6-29.4,0-53.2,23.8-53.2,53.2s1.9,16.1,5.3,23.1c3.8-37.1,32.7-66.8,69.5-71.7Z"/>
      <path class="st1" d="M1069.5,295.7c3.4-6.4,5.6-13.5,6.2-21.2,2.3-29.3-19.6-54.9-48.9-57.1-8.3-.6-16.2.6-23.4,3.5,36.7,6.6,64,37.8,66.1,74.8Z"/>
      <path class="st1" d="M989.6,352.6c6.6,2.9,13.9,4.6,21.6,4.6,29.4,0,53.2-23.8,53.2-53.2s-1.9-16.1-5.3-23.1c-3.8,37.1-32.7,66.8-69.5,71.7Z"/>
      <path class="st1" d="M937.3,266.1c-3.4,6.4-5.6,13.5-6.2,21.2-2.3,29.3,19.6,54.9,48.9,57.1,8.3.6,16.2-.6,23.4-3.5-36.7-6.6-64-37.8-66.1-74.8Z"/>
    </g>
    <g>
      <path class="st1" d="M860.2,417.7v-23.6h7.2v23.3c0,7.6,3.9,11.6,10.4,11.6s10.3-3.8,10.3-11.4v-23.6h7.2v23.2c0,12.2-6.9,18.4-17.6,18.4s-17.4-6.1-17.4-18Z"/>
      <path class="st1" d="M1001.6,400.8h-13v-6.7h33.2v6.7h-13v34.3h-7.3v-34.3Z"/>
      <path class="st1" d="M1062.9,400.8h-13v-6.7h33.2v6.7h-13v34.3h-7.3v-34.3Z"/>
      <path class="st1" d="M1178.1,414.7h0c0-11.6,8.9-21.3,21.5-21.3s21.4,9.5,21.4,21.1h0c0,11.6-8.9,21.3-21.5,21.3s-21.4-9.5-21.4-21.1ZM1213.4,414.7h0c0-8.1-5.8-14.7-13.9-14.7s-13.8,6.5-13.8,14.4h0c0,8.1,5.8,14.6,13.9,14.6s13.8-6.4,13.8-14.4Z"/>
      <polygon class="st1" points="948.3 393.9 941.6 393.9 923.6 435.1 931 435.1 935.2 425.2 937.8 418.8 944.9 402.5 951.9 418.8 954.6 425.2 958.7 435.1 966.3 435.1 948.3 393.9"/>
      <path class="st1" d="M1138,419.6c5.7-1.6,9.7-5.7,9.7-12.4h0c0-3.7-1.2-6.7-3.4-9-2.6-2.6-6.7-4.1-11.8-4.1h-18.3v41h7.2v-34.4h10.5c5.3,0,8.5,2.4,8.5,6.8h0c0,4.3-3.3,7-8.4,7h-1.5v6.4l10.1,14.3h8.5l-11.1-15.5Z"/>
      <path class="st1" d="M807.1,393.4c-11.7,0-21.2,9.5-21.2,21.2s9.5,21.2,21.2,21.2,21.2-9.5,21.2-21.2-9.5-21.2-21.2-21.2ZM807.1,429.1c-8,0-14.5-6.5-14.5-14.5s6.5-14.5,14.5-14.5,14.5,6.5,14.5,14.5-6.5,14.5-14.5,14.5Z"/>
      <rect class="st1" x="805.5" y="393.3" width="7.3" height="46.8" transform="translate(-57.7 694.2) rotate(-45)"/>
    </g>
    <g>
      <path class="st1" d="M841.2,475.3c-.5.9-1.1,1.7-1.9,2.3-.8.6-1.7,1.1-2.8,1.4-1.1.3-2.2.5-3.4.5h-5.4v7.8h-2.5v-22.2h8.3c1.2,0,2.4.2,3.4.5,1,.3,1.9.8,2.6,1.4.7.6,1.3,1.3,1.7,2.2s.6,1.9.6,3-.2,2.3-.7,3.2ZM837.8,468.6c-1.1-.8-2.5-1.2-4.3-1.2h-5.6v9.7h5.5c.9,0,1.7-.1,2.5-.3.8-.2,1.4-.6,1.9-1,.5-.4,1-.9,1.2-1.6.3-.6.4-1.3.4-2,0-1.6-.5-2.8-1.6-3.6Z"/>
      <path class="st1" d="M856,465.1h2.5v19.8h12.5v2.3h-15v-22.2Z"/>
      <path class="st1" d="M905.7,487.3h-2.7l-2.6-5.9h-12.1l-2.6,5.9h-2.6l10.1-22.3h2.3l10.1,22.3ZM894.4,467.9l-5.1,11.3h10.1l-5-11.3Z"/>
      <path class="st1" d="M919,467.3v-2.2h17.3v1.7l-14.4,18.3h14.4v2.2h-17.8v-1.7l14.3-18.3h-13.9Z"/>
      <path class="st1" d="M971.6,487.3h-2.7l-2.6-5.9h-12.1l-2.6,5.9h-2.6l10.1-22.3h2.3l10.1,22.3ZM960.3,467.9l-5.1,11.3h10.1l-5-11.3Z"/>
      <path class="st1" d="M1021.7,485.3c-.6.5-1.3.9-2,1.2-.7.3-1.5.6-2.3.8-.8.2-1.7.3-2.8.3-1.6,0-3.1-.3-4.4-.9-1.4-.6-2.5-1.4-3.5-2.4-1-1-1.8-2.2-2.3-3.6-.6-1.4-.8-2.9-.8-4.5s.3-3.1.8-4.5c.6-1.4,1.3-2.6,2.3-3.7,1-1,2.2-1.9,3.5-2.5,1.4-.6,2.9-.9,4.5-.9s1.9,0,2.7.3c.8.2,1.6.4,2.3.7.7.3,1.3.7,1.9,1.1s1.2.9,1.7,1.4l-1.7,1.8c-.9-.9-2-1.6-3.1-2.2-1.1-.6-2.4-.9-3.9-.9s-2.4.2-3.4.7c-1,.5-2,1.1-2.7,1.9-.8.8-1.4,1.8-1.8,2.9-.4,1.1-.6,2.3-.6,3.6s.2,2.5.6,3.6c.4,1.1,1,2.1,1.8,2.9.8.8,1.7,1.5,2.7,1.9,1,.5,2.2.7,3.4.7s2.8-.3,3.9-.8c1.1-.6,2.2-1.3,3.2-2.4l1.6,1.6c-.6.6-1.2,1.1-1.8,1.6Z"/>
      <path class="st1" d="M1053.3,467.4h-13.5v7.6h12.1v2.3h-12.1v7.8h13.7v2.3h-16.2v-22.2h16v2.3Z"/>
      <path class="st1" d="M1084.3,465.1h2.4v22.2h-2l-14.3-18.2v18.2h-2.4v-22.2h2.3l14,17.8v-17.8Z"/>
      <path class="st1" d="M1110.9,487.3h-2.5v-19.8h-7.4v-2.3h17.4v2.3h-7.4v19.8Z"/>
      <path class="st1" d="M1148.5,467.4h-13.5v7.6h12.1v2.3h-12.1v7.8h13.7v2.3h-16.2v-22.2h16v2.3Z"/>
      <path class="st1" d="M1178.5,487.3l-6.4-8.6h-6.3v8.6h-2.5v-22.2h9.5c1.2,0,2.3.2,3.3.5,1,.3,1.8.8,2.5,1.3.7.6,1.2,1.3,1.6,2.1.4.8.6,1.7.6,2.7s-.1,1.8-.4,2.5c-.3.7-.7,1.4-1.2,1.9-.5.5-1.2,1-1.9,1.3-.7.4-1.5.6-2.4.8l6.8,9h-3.1ZM1176.7,468.6c-1-.8-2.4-1.2-4.2-1.2h-6.9v9h6.8c.8,0,1.6-.1,2.3-.3s1.3-.5,1.8-.9c.5-.4.9-.9,1.2-1.4.3-.6.4-1.2.4-1.9,0-1.4-.5-2.5-1.5-3.3Z"/>
    </g>
  </g>
  <path class="st1" d="M788.8,525.5c137.5-.6,291.7-.6,429.2,0-137.5.6-291.7.6-429.2,0h0Z"/>
  <g>
    <path class="st1" d="M946.2,559v22.6h-2.3v-18.1l-8.9,15.2h-1.1l-8.9-15.1v18h-2.3v-22.6h2l9.8,16.8,9.7-16.8h2Z"/>
    <path class="st1" d="M974.2,575.6h-12.6l-2.7,6h-2.5l10.3-22.6h2.4l10.3,22.6h-2.5l-2.7-6ZM973.3,573.7l-5.4-12.1-5.4,12.1h10.8Z"/>
    <path class="st1" d="M1005.1,581.6l-5.2-7.3c-.6,0-1.2,0-1.8,0h-6.1v7.2h-2.4v-22.6h8.5c5.7,0,9.2,2.9,9.2,7.7s-1.9,6-5.2,7.1l5.5,7.7h-2.6ZM1004.9,566.8c0-3.6-2.4-5.7-6.9-5.7h-6v11.3h6c4.5,0,6.9-2.1,6.9-5.7Z"/>
    <path class="st1" d="M1019.4,559h2.4v22.6h-2.4v-22.6Z"/>
    <path class="st1" d="M1054.5,559v22.6h-2l-14.5-18.3v18.3h-2.4v-22.6h2l14.6,18.3v-18.3h2.4Z"/>
    <path class="st1" d="M1082.5,575.6h-12.6l-2.7,6h-2.5l10.3-22.6h2.4l10.3,22.6h-2.5l-2.7-6ZM1081.7,573.7l-5.4-12.1-5.4,12.1h10.8Z"/>
  </g>
  <g>
    <g>
      <path class="st1" d="M319.9,198.7c-6.6-2.9-13.9-4.6-21.6-4.6-29.4,0-53.2,23.8-53.2,53.2s1.9,16.1,5.3,23.1c3.8-37.1,32.7-66.8,69.5-71.7Z"/>
      <path class="st1" d="M372.1,285.2c3.4-6.4,5.6-13.5,6.2-21.2,2.3-29.3-19.6-54.9-48.9-57.1-8.3-.6-16.2.6-23.4,3.5,36.7,6.6,64,37.8,66.1,74.8Z"/>
      <path class="st1" d="M292.1,342.1c6.6,2.9,13.9,4.6,21.6,4.6,29.4,0,53.2-23.8,53.2-53.2s-1.9-16.1-5.3-23.1c-3.8,37.1-32.7,66.8-69.5,71.7Z"/>
      <path class="st1" d="M239.9,255.7c-3.4,6.4-5.6,13.5-6.2,21.2-2.3,29.3,19.6,54.9,48.9,57.1,8.3.6,16.2-.6,23.4-3.5-36.7-6.6-64-37.8-66.1-74.8Z"/>
    </g>
    <g>
      <path class="st1" d="M162.8,407.2v-23.6h7.2v23.3c0,7.6,3.9,11.6,10.4,11.6s10.3-3.8,10.3-11.4v-23.6h7.2v23.2c0,12.2-6.9,18.4-17.6,18.4s-17.4-6.1-17.4-18Z"/>
      <path class="st1" d="M304.2,390.3h-13v-6.7h33.2v6.7h-13v34.3h-7.3v-34.3Z"/>
      <path class="st1" d="M365.5,390.3h-13v-6.7h33.2v6.7h-13v34.3h-7.3v-34.3Z"/>
      <path class="st1" d="M480.7,404.3h0c0-11.6,8.9-21.3,21.5-21.3s21.4,9.5,21.4,21.1h0c0,11.6-8.9,21.3-21.5,21.3s-21.4-9.5-21.4-21.1ZM516,404.3h0c0-8.1-5.8-14.7-13.9-14.7s-13.8,6.5-13.8,14.4h0c0,8.1,5.8,14.6,13.9,14.6s13.8-6.4,13.8-14.4Z"/>
      <polygon class="st1" points="250.9 383.4 244.2 383.4 226.2 424.6 233.6 424.6 237.8 414.7 240.4 408.3 247.4 392 254.5 408.3 257.1 414.7 261.3 424.6 268.9 424.6 250.9 383.4"/>
      <path class="st1" d="M440.5,409.1c5.7-1.6,9.7-5.7,9.7-12.4h0c0-3.7-1.2-6.7-3.4-9-2.6-2.6-6.7-4.1-11.8-4.1h-18.3v41h7.2v-34.4h10.5c5.3,0,8.5,2.4,8.5,6.8h0c0,4.3-3.3,7-8.4,7h-1.5v6.4l10.1,14.3h8.5l-11.1-15.5Z"/>
      <path class="st1" d="M109.7,383c-11.7,0-21.2,9.5-21.2,21.2s9.5,21.2,21.2,21.2,21.2-9.5,21.2-21.2-9.5-21.2-21.2-21.2ZM109.7,418.6c-8,0-14.5-6.5-14.5-14.5s6.5-14.5,14.5-14.5,14.5,6.5,14.5,14.5-6.5,14.5-14.5,14.5Z"/>
      <rect class="st1" x="108.1" y="382.8" width="7.3" height="46.8" transform="translate(-254.5 198) rotate(-45)"/>
    </g>
    <g>
      <path class="st1" d="M143.8,464.8c-.5.9-1.1,1.7-1.9,2.3-.8.6-1.7,1.1-2.8,1.4-1.1.3-2.2.5-3.4.5h-5.4v7.8h-2.5v-22.2h8.3c1.2,0,2.4.2,3.4.5,1,.3,1.9.8,2.6,1.4.7.6,1.3,1.3,1.7,2.2s.6,1.9.6,3-.2,2.3-.7,3.2ZM140.3,458.1c-1.1-.8-2.5-1.2-4.3-1.2h-5.6v9.7h5.5c.9,0,1.7-.1,2.5-.3.8-.2,1.4-.6,1.9-1,.5-.4,1-.9,1.2-1.6.3-.6.4-1.3.4-2,0-1.6-.5-2.8-1.6-3.6Z"/>
      <path class="st1" d="M158.5,454.6h2.5v19.8h12.5v2.3h-15v-22.2Z"/>
      <path class="st1" d="M208.3,476.8h-2.7l-2.6-5.9h-12.1l-2.6,5.9h-2.6l10.1-22.3h2.3l10.1,22.3ZM197,457.4l-5.1,11.3h10.1l-5-11.3Z"/>
      <path class="st1" d="M221.6,456.8v-2.2h17.3v1.7l-14.4,18.3h14.4v2.2h-17.8v-1.7l14.3-18.3h-13.9Z"/>
      <path class="st1" d="M274.2,476.8h-2.7l-2.6-5.9h-12.1l-2.6,5.9h-2.6l10.1-22.3h2.3l10.1,22.3ZM262.9,457.4l-5.1,11.3h10.1l-5-11.3Z"/>
      <path class="st1" d="M324.2,474.9c-.6.5-1.3.9-2,1.2-.7.3-1.5.6-2.3.8-.8.2-1.7.3-2.8.3-1.6,0-3.1-.3-4.4-.9-1.4-.6-2.5-1.4-3.5-2.4-1-1-1.8-2.2-2.3-3.6-.6-1.4-.8-2.9-.8-4.5s.3-3.1.8-4.5c.6-1.4,1.3-2.6,2.3-3.7,1-1,2.2-1.9,3.5-2.5,1.4-.6,2.9-.9,4.5-.9s1.9,0,2.7.3c.8.2,1.6.4,2.3.7.7.3,1.3.7,1.9,1.1s1.2.9,1.7,1.4l-1.7,1.8c-.9-.9-2-1.6-3.1-2.2-1.1-.6-2.4-.9-3.9-.9s-2.4.2-3.4.7c-1,.5-2,1.1-2.7,1.9-.8.8-1.4,1.8-1.8,2.9-.4,1.1-.6,2.3-.6,3.6s.2,2.5.6,3.6c.4,1.1,1,2.1,1.8,2.9.8.8,1.7,1.5,2.7,1.9,1,.5,2.2.7,3.4.7s2.8-.3,3.9-.8c1.1-.6,2.2-1.3,3.2-2.4l1.6,1.6c-.6.6-1.2,1.1-1.8,1.6Z"/>
      <path class="st1" d="M355.9,456.9h-13.5v7.6h12.1v2.3h-12.1v7.8h13.7v2.3h-16.2v-22.2h16v2.3Z"/>
      <path class="st1" d="M386.9,454.6h2.4v22.2h-2l-14.3-18.2v18.2h-2.4v-22.2h2.3l14,17.8v-17.8Z"/>
      <path class="st1" d="M413.4,476.8h-2.5v-19.8h-7.4v-2.3h17.4v2.3h-7.4v19.8Z"/>
      <path class="st1" d="M451.1,456.9h-13.5v7.6h12.1v2.3h-12.1v7.8h13.7v2.3h-16.2v-22.2h16v2.3Z"/>
      <path class="st1" d="M481,476.8l-6.4-8.6h-6.3v8.6h-2.5v-22.2h9.5c1.2,0,2.3.2,3.3.5,1,.3,1.8.8,2.5,1.3.7.6,1.2,1.3,1.6,2.1.4.8.6,1.7.6,2.7s-.1,1.8-.4,2.5c-.3.7-.7,1.4-1.2,1.9-.5.5-1.2,1-1.9,1.3-.7.4-1.5.6-2.4.8l6.8,9h-3.1ZM479.3,458.1c-1-.8-2.4-1.2-4.2-1.2h-6.9v9h6.8c.8,0,1.6-.1,2.3-.3s1.3-.5,1.8-.9c.5-.4.9-.9,1.2-1.4.3-.6.4-1.2.4-1.9,0-1.4-.5-2.5-1.5-3.3Z"/>
    </g>
  </g>
  <path class="st1" d="M91.4,515c137.5-.6,291.7-.6,429.2,0-137.5.6-291.7.6-429.2,0h0Z"/>
  <g>
    <path class="st1" d="M241.8,550.6h-7.9v-2.1h18.3v2.1h-7.9v20.5h-2.4v-20.5Z"/>
    <path class="st1" d="M261.8,561.5v-12.9h2.4v12.9c0,5.4,2.5,7.8,6.9,7.8s6.9-2.5,6.9-7.8v-12.9h2.3v12.9c0,6.5-3.5,9.8-9.3,9.8s-9.3-3.4-9.3-9.8Z"/>
    <path class="st1" d="M294,548.5h2.4v20.5h12.7v2.1h-15v-22.6Z"/>
    <path class="st1" d="M318.9,561.5v-12.9h2.4v12.9c0,5.4,2.5,7.8,6.9,7.8s6.9-2.5,6.9-7.8v-12.9h2.3v12.9c0,6.5-3.5,9.8-9.3,9.8s-9.3-3.4-9.3-9.8Z"/>
    <path class="st1" d="M374.6,548.5v22.6h-2.3v-18.1l-8.9,15.2h-1.1l-8.9-15.1v18h-2.3v-22.6h2l9.8,16.8,9.7-16.8h2Z"/>
  </g>
  <rect class="st0" x="-694.8" y="-2.6" width="612" height="792"/>
  <g>
    <g>
      <path class="st1" d="M-374.9,196.1c-6.6-2.9-13.9-4.6-21.6-4.6-29.4,0-53.2,23.8-53.2,53.2s1.9,16.1,5.3,23.1c3.8-37.1,32.7-66.8,69.5-71.7Z"/>
      <path class="st1" d="M-322.7,282.6c3.4-6.4,5.6-13.5,6.2-21.2,2.3-29.3-19.6-54.9-48.9-57.1-8.3-.6-16.2.6-23.4,3.5,36.7,6.6,64,37.8,66.1,74.8Z"/>
      <path class="st1" d="M-402.7,339.5c6.6,2.9,13.9,4.6,21.6,4.6,29.4,0,53.2-23.8,53.2-53.2s-1.9-16.1-5.3-23.1c-3.8,37.1-32.7,66.8-69.5,71.7Z"/>
      <path class="st1" d="M-454.9,253c-3.4,6.4-5.6,13.5-6.2,21.2-2.3,29.3,19.6,54.9,48.9,57.1,8.3.6,16.2-.6,23.4-3.5-36.7-6.6-64-37.8-66.1-74.8Z"/>
    </g>
    <g>
      <path class="st1" d="M-532,404.6v-23.6h7.2v23.3c0,7.6,3.9,11.6,10.4,11.6s10.3-3.8,10.3-11.4v-23.6h7.2v23.2c0,12.2-6.9,18.4-17.6,18.4s-17.4-6.1-17.4-18Z"/>
      <path class="st1" d="M-390.6,387.7h-13v-6.7h33.2v6.7h-13v34.3h-7.3v-34.3Z"/>
      <path class="st1" d="M-329.3,387.7h-13v-6.7h33.2v6.7h-13v34.3h-7.3v-34.3Z"/>
      <path class="st1" d="M-214.1,401.6h0c0-11.6,8.9-21.3,21.5-21.3s21.4,9.5,21.4,21.1h0c0,11.6-8.9,21.3-21.5,21.3s-21.4-9.5-21.4-21.1ZM-178.8,401.6h0c0-8.1-5.8-14.7-13.9-14.7s-13.8,6.5-13.8,14.4h0c0,8.1,5.8,14.6,13.9,14.6s13.8-6.4,13.8-14.4Z"/>
      <polygon class="st1" points="-443.9 380.7 -450.6 380.7 -468.6 422 -461.2 422 -457 412.1 -454.4 405.7 -447.4 389.3 -440.3 405.7 -437.7 412.1 -433.5 422 -425.9 422 -443.9 380.7"/>
      <path class="st1" d="M-254.3,406.5c5.7-1.6,9.7-5.7,9.7-12.4h0c0-3.7-1.2-6.7-3.4-9-2.6-2.6-6.7-4.1-11.8-4.1h-18.3v41h7.2v-34.4h10.5c5.3,0,8.5,2.4,8.5,6.8h0c0,4.3-3.3,7-8.4,7h-1.5v6.4l10.1,14.3h8.5l-11.1-15.5Z"/>
      <path class="st1" d="M-585.2,380.3c-11.7,0-21.2,9.5-21.2,21.2s9.5,21.2,21.2,21.2,21.2-9.5,21.2-21.2-9.5-21.2-21.2-21.2ZM-585.2,416c-8,0-14.5-6.5-14.5-14.5s6.5-14.5,14.5-14.5,14.5,6.5,14.5,14.5-6.5,14.5-14.5,14.5Z"/>
      <rect class="st1" x="-586.7" y="380.2" width="7.3" height="46.8" transform="translate(-456.2 -294.1) rotate(-45)"/>
    </g>
    <g>
      <path class="st1" d="M-551,462.2c-.5.9-1.1,1.7-1.9,2.3-.8.6-1.7,1.1-2.8,1.4-1.1.3-2.2.5-3.4.5h-5.4v7.8h-2.5v-22.2h8.3c1.2,0,2.4.2,3.4.5,1,.3,1.9.8,2.6,1.4.7.6,1.3,1.3,1.7,2.2s.6,1.9.6,3-.2,2.3-.7,3.2ZM-554.5,455.5c-1.1-.8-2.5-1.2-4.3-1.2h-5.6v9.7h5.5c.9,0,1.7-.1,2.5-.3.8-.2,1.4-.6,1.9-1,.5-.4,1-.9,1.2-1.6.3-.6.4-1.3.4-2,0-1.6-.5-2.8-1.6-3.6Z"/>
      <path class="st1" d="M-536.3,452h2.5v19.8h12.5v2.3h-15v-22.2Z"/>
      <path class="st1" d="M-486.6,474.1h-2.7l-2.6-5.9h-12.1l-2.6,5.9h-2.6l10.1-22.3h2.3l10.1,22.3ZM-497.8,454.8l-5.1,11.3h10.1l-5-11.3Z"/>
      <path class="st1" d="M-473.2,454.2v-2.2h17.3v1.7l-14.4,18.3h14.4v2.2h-17.8v-1.7l14.3-18.3h-13.9Z"/>
      <path class="st1" d="M-420.6,474.1h-2.7l-2.6-5.9h-12.1l-2.6,5.9h-2.6l10.1-22.3h2.3l10.1,22.3ZM-431.9,454.8l-5.1,11.3h10.1l-5-11.3Z"/>
      <path class="st1" d="M-370.6,472.2c-.6.5-1.3.9-2,1.2-.7.3-1.5.6-2.3.8-.8.2-1.7.3-2.8.3-1.6,0-3.1-.3-4.4-.9-1.4-.6-2.5-1.4-3.5-2.4-1-1-1.8-2.2-2.3-3.6-.6-1.4-.8-2.9-.8-4.5s.3-3.1.8-4.5c.6-1.4,1.3-2.6,2.3-3.7,1-1,2.2-1.9,3.5-2.5,1.4-.6,2.9-.9,4.5-.9s1.9,0,2.7.3c.8.2,1.6.4,2.3.7.7.3,1.3.7,1.9,1.1s1.2.9,1.7,1.4l-1.7,1.8c-.9-.9-2-1.6-3.1-2.2-1.1-.6-2.4-.9-3.9-.9s-2.4.2-3.4.7c-1,.5-2,1.1-2.7,1.9-.8.8-1.4,1.8-1.8,2.9-.4,1.1-.6,2.3-.6,3.6s.2,2.5.6,3.6c.4,1.1,1,2.1,1.8,2.9.8.8,1.7,1.5,2.7,1.9,1,.5,2.2.7,3.4.7s2.8-.3,3.9-.8c1.1-.6,2.2-1.3,3.2-2.4l1.6,1.6c-.6.6-1.2,1.1-1.8,1.6Z"/>
      <path class="st1" d="M-338.9,454.3h-13.5v7.6h12.1v2.3h-12.1v7.8h13.7v2.3h-16.2v-22.2h16v2.3Z"/>
      <path class="st1" d="M-307.9,452h2.4v22.2h-2l-14.3-18.2v18.2h-2.4v-22.2h2.3l14,17.8v-17.8Z"/>
      <path class="st1" d="M-281.4,474.1h-2.5v-19.8h-7.4v-2.3h17.4v2.3h-7.4v19.8Z"/>
      <path class="st1" d="M-243.7,454.3h-13.5v7.6h12.1v2.3h-12.1v7.8h13.7v2.3h-16.2v-22.2h16v2.3Z"/>
      <path class="st1" d="M-213.8,474.1l-6.4-8.6h-6.3v8.6h-2.5v-22.2h9.5c1.2,0,2.3.2,3.3.5,1,.3,1.8.8,2.5,1.3.7.6,1.2,1.3,1.6,2.1.4.8.6,1.7.6,2.7s-.1,1.8-.4,2.5c-.3.7-.7,1.4-1.2,1.9-.5.5-1.2,1-1.9,1.3-.7.4-1.5.6-2.4.8l6.8,9h-3.1ZM-215.5,455.5c-1-.8-2.4-1.2-4.2-1.2h-6.9v9h6.8c.8,0,1.6-.1,2.3-.3s1.3-.5,1.8-.9c.5-.4.9-.9,1.2-1.4.3-.6.4-1.2.4-1.9,0-1.4-.5-2.5-1.5-3.3Z"/>
    </g>
  </g>
  <path class="st1" d="M-603.4,512.4c137.5-.6,291.7-.6,429.2,0-137.5.6-291.7.6-429.2,0h0Z"/>
  <g>
    <path class="st1" d="M-471.5,557.2h2.3v8.6c-2.1,1.9-5.2,2.9-8.3,2.9-6.9,0-11.9-4.9-11.9-11.5s5-11.5,11.9-11.5,6.4,1.1,8.4,3.3l-1.5,1.5c-1.9-1.9-4.2-2.6-6.8-2.6-5.6,0-9.7,4-9.7,9.4s4.1,9.4,9.7,9.4,4.2-.5,5.9-1.7v-7.6Z"/>
    <path class="st1" d="M-441.8,562.5h-12.6l-2.7,6h-2.5l10.3-22.6h2.4l10.3,22.6h-2.5l-2.7-6ZM-442.7,560.5l-5.4-12.1-5.4,12.1h10.8Z"/>
    <path class="st1" d="M-411,568.5l-5.2-7.3c-.6,0-1.2,0-1.8,0h-6.1v7.2h-2.4v-22.6h8.5c5.7,0,9.2,2.9,9.2,7.7s-1.9,6-5.2,7.1l5.5,7.7h-2.6ZM-411.1,553.7c0-3.6-2.4-5.7-6.9-5.7h-6v11.3h6c4.5,0,6.9-2.1,6.9-5.7Z"/>
    <path class="st1" d="M-396.6,545.9h9.2c7.2,0,12.1,4.6,12.1,11.3s-4.9,11.3-12.1,11.3h-9.2v-22.6ZM-387.5,566.5c6,0,9.9-3.8,9.9-9.2s-3.9-9.2-9.9-9.2h-6.7v18.5h6.7Z"/>
    <path class="st1" d="M-347.5,566.5v2.1h-16v-22.6h15.5v2.1h-13.1v8h11.7v2h-11.7v8.4h13.6Z"/>
    <path class="st1" d="M-316.5,545.9v22.6h-2l-14.5-18.3v18.3h-2.4v-22.6h2l14.6,18.3v-18.3h2.4Z"/>
    <path class="st1" d="M-304.8,565.8l.9-1.8c1.6,1.6,4.5,2.7,7.5,2.7,4.2,0,6.1-1.8,6.1-4,0-6.2-13.9-2.4-13.9-10.8s2.6-6.2,8.3-6.2,5.2.7,7,2l-.8,1.9c-1.9-1.3-4.2-1.9-6.2-1.9-4.1,0-6,1.8-6,4.1,0,6.2,13.9,2.5,13.9,10.7s-2.6,6.2-8.4,6.2-6.7-1.2-8.4-2.9Z"/>
  </g>
  <g>
    <path d="M-1213.2,1383h2.4v20.5h12.7v2.1h-15v-22.6Z"/>
    <path d="M-1190.1,1394.3c0-6.6,5-11.5,11.9-11.5s11.8,4.9,11.8,11.5-5.1,11.5-11.8,11.5-11.9-4.9-11.9-11.5ZM-1168.8,1394.3c0-5.4-4-9.4-9.5-9.4s-9.5,4-9.5,9.4,4.1,9.4,9.5,9.4,9.5-4,9.5-9.4Z"/>
    <path d="M-1135.7,1383v22.6h-2l-14.5-18.3v18.3h-2.4v-22.6h2l14.6,18.3v-18.3h2.4Z"/>
    <path d="M-1106,1394.3h2.3v8.6c-2.1,1.9-5.2,2.9-8.3,2.9-6.9,0-11.9-4.9-11.9-11.5s5-11.5,11.9-11.5,6.4,1.1,8.4,3.3l-1.5,1.5c-1.9-1.9-4.2-2.6-6.8-2.6-5.6,0-9.7,4-9.7,9.4s4.1,9.4,9.7,9.4,4.2-.5,5.9-1.7v-7.6Z"/>
    <path d="M-1075.5,1383h2.4v22.6h-2.4v-22.6Z"/>
    <path d="M-1061.5,1402.9l.9-1.8c1.6,1.6,4.5,2.7,7.5,2.7,4.2,0,6.1-1.8,6.1-4,0-6.2-13.9-2.4-13.9-10.8s2.6-6.2,8.3-6.2,5.2.7,7,2l-.8,1.9c-1.9-1.3-4.2-1.9-6.2-1.9-4.1,0-6,1.8-6,4.1,0,6.2,13.9,2.5,13.9,10.7s-2.6,6.2-8.4,6.2-6.7-1.2-8.4-2.9Z"/>
    <path d="M-1033,1383h2.4v20.5h12.7v2.1h-15v-22.6Z"/>
    <path d="M-993.3,1399.6h-12.6l-2.7,6h-2.5l10.3-22.6h2.4l10.3,22.6h-2.5l-2.7-6ZM-994.1,1397.7l-5.4-12.1-5.4,12.1h10.8Z"/>
    <path d="M-958.9,1383v22.6h-2l-14.5-18.3v18.3h-2.4v-22.6h2l14.6,18.3v-18.3h2.4Z"/>
    <path d="M-945.1,1383h9.2c7.2,0,12.1,4.6,12.1,11.3s-4.9,11.3-12.1,11.3h-9.2v-22.6ZM-936.1,1403.6c6,0,9.9-3.8,9.9-9.2s-3.9-9.2-9.9-9.2h-6.7v18.5h6.7Z"/>
  </g>
  <g>
    <path d="M1672.1,1395.9v22.6h-3.2v-10.1h-13v10.1h-3.2v-22.6h3.2v9.7h13v-9.7h3.2Z"/>
    <path d="M1685.1,1408.8v-12.9h3.2v12.7c0,5,2.3,7.3,6.4,7.3s6.4-2.3,6.4-7.3v-12.7h3.1v12.9c0,6.6-3.6,10-9.6,10s-9.6-3.5-9.6-10Z"/>
    <path d="M1731.2,1412.9h-12l-2.5,5.7h-3.3l10.2-22.6h3.2l10.3,22.6h-3.4l-2.5-5.7ZM1730.1,1410.3l-4.9-11.1-4.9,11.1h9.8Z"/>
    <path d="M1754.2,1410.7v7.8h-3.2v-7.9l-9-14.7h3.5l7.2,11.9,7.3-11.9h3.2l-9,14.8Z"/>
    <path d="M1786,1412.9h-12l-2.5,5.7h-3.3l10.2-22.6h3.2l10.3,22.6h-3.4l-2.5-5.7ZM1784.8,1410.3l-4.9-11.1-4.9,11.1h9.8Z"/>
    <path d="M1799.5,1407.2c0-6.7,5.1-11.6,12-11.6s6.5,1.2,8.6,3.5l-2.1,2c-1.7-1.8-3.9-2.7-6.4-2.7-5.1,0-8.9,3.7-8.9,8.7s3.8,8.7,8.9,8.7,4.6-.9,6.4-2.7l2.1,2c-2.1,2.3-5.1,3.6-8.6,3.6-6.8,0-11.9-4.9-11.9-11.6Z"/>
    <path d="M1845,1412.9h-12l-2.5,5.7h-3.3l10.2-22.6h3.2l10.3,22.6h-3.4l-2.5-5.7ZM1843.9,1410.3l-4.9-11.1-4.9,11.1h9.8ZM1839.5,1394.1h-2.9l4.4-4.2h3.9l-5.4,4.2Z"/>
    <path d="M1880.1,1395.9v22.6h-2.6l-13.6-16.9v16.9h-3.2v-22.6h2.6l13.6,16.9v-16.9h3.2Z"/>
  </g>
  <g>
    <g>
      <path d="M1027.8,1043.5c-6.6-2.9-13.9-4.6-21.6-4.6-29.4,0-53.2,23.8-53.2,53.2s1.9,16.1,5.3,23.1c3.8-37.1,32.7-66.8,69.5-71.7Z"/>
      <path d="M1080,1129.9c3.4-6.4,5.6-13.5,6.2-21.2,2.3-29.3-19.6-54.9-48.9-57.1-8.3-.6-16.2.6-23.4,3.5,36.7,6.6,64,37.8,66.1,74.8Z"/>
      <path d="M1000.1,1186.9c6.6,2.9,13.9,4.6,21.6,4.6,29.4,0,53.2-23.8,53.2-53.2s-1.9-16.1-5.3-23.1c-3.8,37.1-32.7,66.8-69.5,71.7Z"/>
      <path d="M947.8,1100.4c-3.4,6.4-5.6,13.5-6.2,21.2-2.3,29.3,19.6,54.9,48.9,57.1,8.3.6,16.2-.6,23.4-3.5-36.7-6.6-64-37.8-66.1-74.8Z"/>
    </g>
    <g>
      <path d="M870.7,1252v-23.6h7.2v23.3c0,7.6,3.9,11.6,10.4,11.6s10.3-3.8,10.3-11.4v-23.6h7.2v23.2c0,12.2-6.9,18.4-17.6,18.4s-17.4-6.1-17.4-18Z"/>
      <path d="M1012.1,1235.1h-13v-6.7h33.2v6.7h-13v34.3h-7.3v-34.3Z"/>
      <path d="M1073.4,1235.1h-13v-6.7h33.2v6.7h-13v34.3h-7.3v-34.3Z"/>
      <path d="M1188.6,1249h0c0-11.6,8.9-21.3,21.5-21.3s21.4,9.5,21.4,21.1h0c0,11.6-8.9,21.3-21.5,21.3s-21.4-9.5-21.4-21.1ZM1223.9,1249h0c0-8.1-5.8-14.7-13.9-14.7s-13.8,6.5-13.8,14.4h0c0,8.1,5.8,14.6,13.9,14.6s13.8-6.4,13.8-14.4Z"/>
      <polygon points="958.8 1228.1 952.1 1228.1 934.1 1269.4 941.5 1269.4 945.7 1259.5 948.3 1253.1 955.4 1236.7 962.4 1253.1 965.1 1259.5 969.2 1269.4 976.8 1269.4 958.8 1228.1"/>
      <path d="M1148.4,1253.9c5.7-1.6,9.7-5.7,9.7-12.4h0c0-3.7-1.2-6.7-3.4-9-2.6-2.6-6.7-4.1-11.8-4.1h-18.3v41h7.2v-34.4h10.5c5.3,0,8.5,2.4,8.5,6.8h0c0,4.3-3.3,7-8.4,7h-1.5v6.4l10.1,14.3h8.5l-11.1-15.5Z"/>
      <path d="M817.6,1227.7c-11.7,0-21.2,9.5-21.2,21.2s9.5,21.2,21.2,21.2,21.2-9.5,21.2-21.2-9.5-21.2-21.2-21.2ZM817.6,1263.4c-8,0-14.5-6.5-14.5-14.5s6.5-14.5,14.5-14.5,14.5,6.5,14.5,14.5-6.5,14.5-14.5,14.5Z"/>
      <rect x="816" y="1227.6" width="7.3" height="46.8" transform="translate(-644.5 946) rotate(-45)"/>
    </g>
    <g>
      <path d="M851.7,1309.6c-.5.9-1.1,1.7-1.9,2.3-.8.6-1.7,1.1-2.8,1.4-1.1.3-2.2.5-3.4.5h-5.4v7.8h-2.5v-22.2h8.3c1.2,0,2.4.2,3.4.5,1,.3,1.9.8,2.6,1.4.7.6,1.3,1.3,1.7,2.2s.6,1.9.6,3-.2,2.3-.7,3.2ZM848.3,1302.9c-1.1-.8-2.5-1.2-4.3-1.2h-5.6v9.7h5.5c.9,0,1.7-.1,2.5-.3.8-.2,1.4-.6,1.9-1,.5-.4,1-.9,1.2-1.6.3-.6.4-1.3.4-2,0-1.6-.5-2.8-1.6-3.6Z"/>
      <path d="M866.4,1299.4h2.5v19.8h12.5v2.3h-15v-22.2Z"/>
      <path d="M916.2,1321.5h-2.7l-2.6-5.9h-12.1l-2.6,5.9h-2.6l10.1-22.3h2.3l10.1,22.3ZM904.9,1302.2l-5.1,11.3h10.1l-5-11.3Z"/>
      <path d="M929.5,1301.6v-2.2h17.3v1.7l-14.4,18.3h14.4v2.2h-17.8v-1.7l14.3-18.3h-13.9Z"/>
      <path d="M982.1,1321.5h-2.7l-2.6-5.9h-12.1l-2.6,5.9h-2.6l10.1-22.3h2.3l10.1,22.3ZM970.8,1302.2l-5.1,11.3h10.1l-5-11.3Z"/>
      <path d="M1032.1,1319.6c-.6.5-1.3.9-2,1.2-.7.3-1.5.6-2.3.8-.8.2-1.7.3-2.8.3-1.6,0-3.1-.3-4.4-.9-1.4-.6-2.5-1.4-3.5-2.4-1-1-1.8-2.2-2.3-3.6-.6-1.4-.8-2.9-.8-4.5s.3-3.1.8-4.5c.6-1.4,1.3-2.6,2.3-3.7,1-1,2.2-1.9,3.5-2.5,1.4-.6,2.9-.9,4.5-.9s1.9,0,2.7.3c.8.2,1.6.4,2.3.7.7.3,1.3.7,1.9,1.1s1.2.9,1.7,1.4l-1.7,1.8c-.9-.9-2-1.6-3.1-2.2-1.1-.6-2.4-.9-3.9-.9s-2.4.2-3.4.7c-1,.5-2,1.1-2.7,1.9-.8.8-1.4,1.8-1.8,2.9-.4,1.1-.6,2.3-.6,3.6s.2,2.5.6,3.6c.4,1.1,1,2.1,1.8,2.9.8.8,1.7,1.5,2.7,1.9,1,.5,2.2.7,3.4.7s2.8-.3,3.9-.8c1.1-.6,2.2-1.3,3.2-2.4l1.6,1.6c-.6.6-1.2,1.1-1.8,1.6Z"/>
      <path d="M1063.8,1301.6h-13.5v7.6h12.1v2.3h-12.1v7.8h13.7v2.3h-16.2v-22.2h16v2.3Z"/>
      <path d="M1094.8,1299.4h2.4v22.2h-2l-14.3-18.2v18.2h-2.4v-22.2h2.3l14,17.8v-17.8Z"/>
      <path d="M1121.3,1321.5h-2.5v-19.8h-7.4v-2.3h17.4v2.3h-7.4v19.8Z"/>
      <path d="M1159,1301.6h-13.5v7.6h12.1v2.3h-12.1v7.8h13.7v2.3h-16.2v-22.2h16v2.3Z"/>
      <path d="M1188.9,1321.5l-6.4-8.6h-6.3v8.6h-2.5v-22.2h9.5c1.2,0,2.3.2,3.3.5,1,.3,1.8.8,2.5,1.3.7.6,1.2,1.3,1.6,2.1.4.8.6,1.7.6,2.7s-.1,1.8-.4,2.5c-.3.7-.7,1.4-1.2,1.9-.5.5-1.2,1-1.9,1.3-.7.4-1.5.6-2.4.8l6.8,9h-3.1ZM1187.2,1302.8c-1-.8-2.4-1.2-4.2-1.2h-6.9v9h6.8c.8,0,1.6-.1,2.3-.3s1.3-.5,1.8-.9c.5-.4.9-.9,1.2-1.4.3-.6.4-1.2.4-1.9,0-1.4-.5-2.5-1.5-3.3Z"/>
    </g>
  </g>
  <path d="M799.3,1359.8c137.5-.6,291.7-.6,429.2,0-137.5.6-291.7.6-429.2,0h0Z"/>
  <g>
    <path d="M953.2,1415.9v-16.5s-8.2,13.7-8.2,13.7h-1.5l-8.2-13.6v16.4h-3.1v-22.6h2.6l9.4,15.9,9.3-15.9h2.6v22.6s-3.1,0-3.1,0Z"/>
    <path d="M983.9,1410.2h-12l-2.5,5.7h-3.3l10.2-22.6h3.2l10.3,22.6h-3.4l-2.5-5.7ZM982.8,1407.7l-4.9-11.1-4.9,11.1h9.8Z"/>
    <path d="M1014.7,1415.9l-4.9-6.9c-.5,0-.9,0-1.4,0h-5.6v6.9h-3.2v-22.6h8.8c5.9,0,9.4,3,9.4,7.9s-1.8,6-5,7.1l5.4,7.6h-3.5ZM1014.7,1401.2c0-3.2-2.2-5.1-6.3-5.1h-5.5v10.2h5.5c4.1,0,6.3-1.9,6.3-5.1Z"/>
    <path d="M1029.6,1393.3h3.2v22.6h-3.2v-22.6Z"/>
    <path d="M1065.5,1393.3v22.6h-2.6l-13.6-16.9v16.9h-3.2v-22.6h2.6l13.6,16.9v-16.9h3.2Z"/>
    <path d="M1093.1,1410.2h-12l-2.5,5.7h-3.3l10.2-22.6h3.2l10.3,22.6h-3.4l-2.5-5.7ZM1092,1407.7l-4.9-11.1-4.9,11.1h9.8Z"/>
  </g>
  <g>
    <g>
      <path d="M317.2,1030.4c-6.6-2.9-13.9-4.6-21.6-4.6-29.4,0-53.2,23.8-53.2,53.2s1.9,16.1,5.3,23.1c3.8-37.1,32.7-66.8,69.5-71.7Z"/>
      <path d="M369.5,1116.8c3.4-6.4,5.6-13.5,6.2-21.2,2.3-29.3-19.6-54.9-48.9-57.1-8.3-.6-16.2.6-23.4,3.5,36.7,6.6,64,37.8,66.1,74.8Z"/>
      <path d="M289.5,1173.8c6.6,2.9,13.9,4.6,21.6,4.6,29.4,0,53.2-23.8,53.2-53.2s-1.9-16.1-5.3-23.1c-3.8,37.1-32.7,66.8-69.5,71.7Z"/>
      <path d="M237.3,1087.3c-3.4,6.4-5.6,13.5-6.2,21.2-2.3,29.3,19.6,54.9,48.9,57.1,8.3.6,16.2-.6,23.4-3.5-36.7-6.6-64-37.8-66.1-74.8Z"/>
    </g>
    <g>
      <path d="M160.2,1238.9v-23.6h7.2v23.3c0,7.6,3.9,11.6,10.4,11.6s10.3-3.8,10.3-11.4v-23.6h7.2v23.2c0,12.2-6.9,18.4-17.6,18.4s-17.4-6.1-17.4-18Z"/>
      <path d="M301.5,1222h-13v-6.7h33.2v6.7h-13v34.3h-7.3v-34.3Z"/>
      <path d="M362.9,1222h-13v-6.7h33.2v6.7h-13v34.3h-7.3v-34.3Z"/>
      <path d="M478.1,1235.9h0c0-11.6,8.9-21.3,21.5-21.3s21.4,9.5,21.4,21.1h0c0,11.6-8.9,21.3-21.5,21.3s-21.4-9.5-21.4-21.1ZM513.4,1235.9h0c0-8.1-5.8-14.7-13.9-14.7s-13.8,6.5-13.8,14.4h0c0,8.1,5.8,14.6,13.9,14.6s13.8-6.4,13.8-14.4Z"/>
      <polygon points="248.3 1215 241.6 1215 223.6 1256.3 231 1256.3 235.2 1246.4 237.8 1240 244.8 1223.6 251.9 1240 254.5 1246.4 258.7 1256.3 266.3 1256.3 248.3 1215"/>
      <path d="M437.9,1240.7c5.7-1.6,9.7-5.7,9.7-12.4h0c0-3.7-1.2-6.7-3.4-9-2.6-2.6-6.7-4.1-11.8-4.1h-18.3v41h7.2v-34.4h10.5c5.3,0,8.5,2.4,8.5,6.8h0c0,4.3-3.3,7-8.4,7h-1.5v6.4l10.1,14.3h8.5l-11.1-15.5Z"/>
      <path d="M107,1214.6c-11.7,0-21.2,9.5-21.2,21.2s9.5,21.2,21.2,21.2,21.2-9.5,21.2-21.2-9.5-21.2-21.2-21.2ZM107,1250.3c-8,0-14.5-6.5-14.5-14.5s6.5-14.5,14.5-14.5,14.5,6.5,14.5,14.5-6.5,14.5-14.5,14.5Z"/>
      <rect x="105.5" y="1214.4" width="7.3" height="46.8" transform="translate(-843.3 439.7) rotate(-45)"/>
    </g>
    <g>
      <path d="M141.2,1296.5c-.5.9-1.1,1.7-1.9,2.3-.8.6-1.7,1.1-2.8,1.4-1.1.3-2.2.5-3.4.5h-5.4v7.8h-2.5v-22.2h8.3c1.2,0,2.4.2,3.4.5,1,.3,1.9.8,2.6,1.4.7.6,1.3,1.3,1.7,2.2s.6,1.9.6,3-.2,2.3-.7,3.2ZM137.7,1289.8c-1.1-.8-2.5-1.2-4.3-1.2h-5.6v9.7h5.5c.9,0,1.7-.1,2.5-.3.8-.2,1.4-.6,1.9-1,.5-.4,1-.9,1.2-1.6.3-.6.4-1.3.4-2,0-1.6-.5-2.8-1.6-3.6Z"/>
      <path d="M155.9,1286.3h2.5v19.8h12.5v2.3h-15v-22.2Z"/>
      <path d="M205.6,1308.4h-2.7l-2.6-5.9h-12.1l-2.6,5.9h-2.6l10.1-22.3h2.3l10.1,22.3ZM194.3,1289l-5.1,11.3h10.1l-5-11.3Z"/>
      <path d="M219,1288.5v-2.2h17.3v1.7l-14.4,18.3h14.4v2.2h-17.8v-1.7l14.3-18.3h-13.9Z"/>
      <path d="M271.6,1308.4h-2.7l-2.6-5.9h-12.1l-2.6,5.9h-2.6l10.1-22.3h2.3l10.1,22.3ZM260.3,1289l-5.1,11.3h10.1l-5-11.3Z"/>
      <path d="M321.6,1306.5c-.6.5-1.3.9-2,1.2-.7.3-1.5.6-2.3.8-.8.2-1.7.3-2.8.3-1.6,0-3.1-.3-4.4-.9-1.4-.6-2.5-1.4-3.5-2.4-1-1-1.8-2.2-2.3-3.6-.6-1.4-.8-2.9-.8-4.5s.3-3.1.8-4.5c.6-1.4,1.3-2.6,2.3-3.7,1-1,2.2-1.9,3.5-2.5,1.4-.6,2.9-.9,4.5-.9s1.9,0,2.7.3c.8.2,1.6.4,2.3.7.7.3,1.3.7,1.9,1.1s1.2.9,1.7,1.4l-1.7,1.8c-.9-.9-2-1.6-3.1-2.2-1.1-.6-2.4-.9-3.9-.9s-2.4.2-3.4.7c-1,.5-2,1.1-2.7,1.9-.8.8-1.4,1.8-1.8,2.9-.4,1.1-.6,2.3-.6,3.6s.2,2.5.6,3.6c.4,1.1,1,2.1,1.8,2.9.8.8,1.7,1.5,2.7,1.9,1,.5,2.2.7,3.4.7s2.8-.3,3.9-.8c1.1-.6,2.2-1.3,3.2-2.4l1.6,1.6c-.6.6-1.2,1.1-1.8,1.6Z"/>
      <path d="M353.3,1288.5h-13.5v7.6h12.1v2.3h-12.1v7.8h13.7v2.3h-16.2v-22.2h16v2.3Z"/>
      <path d="M384.3,1286.3h2.4v22.2h-2l-14.3-18.2v18.2h-2.4v-22.2h2.3l14,17.8v-17.8Z"/>
      <path d="M410.8,1308.4h-2.5v-19.8h-7.4v-2.3h17.4v2.3h-7.4v19.8Z"/>
      <path d="M448.5,1288.5h-13.5v7.6h12.1v2.3h-12.1v7.8h13.7v2.3h-16.2v-22.2h16v2.3Z"/>
      <path d="M478.4,1308.4l-6.4-8.6h-6.3v8.6h-2.5v-22.2h9.5c1.2,0,2.3.2,3.3.5,1,.3,1.8.8,2.5,1.3.7.6,1.2,1.3,1.6,2.1.4.8.6,1.7.6,2.7s-.1,1.8-.4,2.5c-.3.7-.7,1.4-1.2,1.9-.5.5-1.2,1-1.9,1.3-.7.4-1.5.6-2.4.8l6.8,9h-3.1ZM476.7,1289.7c-1-.8-2.4-1.2-4.2-1.2h-6.9v9h6.8c.8,0,1.6-.1,2.3-.3s1.3-.5,1.8-.9c.5-.4.9-.9,1.2-1.4.3-.6.4-1.2.4-1.9,0-1.4-.5-2.5-1.5-3.3Z"/>
    </g>
  </g>
  <path d="M88.8,1346.6c137.5-.6,291.7-.6,429.2,0-137.5.6-291.7.6-429.2,0h0Z"/>
  <g>
    <path d="M238.7,1383h-7.7v-2.8h18.7v2.8h-7.7v19.8h-3.2v-19.8Z"/>
    <path d="M259,1393v-12.8h3.2v12.7c0,5,2.3,7.3,6.4,7.3s6.4-2.3,6.4-7.3v-12.7h3.1v12.8c0,6.6-3.6,10-9.6,10s-9.6-3.5-9.6-10Z"/>
    <path d="M291.2,1380.2h3.2v19.8h12.2v2.8h-15.5v-22.6Z"/>
    <path d="M316.3,1393v-12.8h3.2v12.7c0,5,2.3,7.3,6.4,7.3s6.4-2.3,6.4-7.3v-12.7h3.1v12.8c0,6.6-3.6,10-9.6,10s-9.6-3.5-9.6-10Z"/>
    <path d="M369.4,1402.8v-16.5s-8.2,13.7-8.2,13.7h-1.5l-8.2-13.6v16.4h-3.1v-22.6h2.6l9.4,15.9,9.3-15.9h2.6v22.6s-3.1,0-3.1,0Z"/>
  </g>
  <g>
    <g>
      <path d="M-374.9,1030.4c-6.6-2.9-13.9-4.6-21.6-4.6-29.4,0-53.2,23.8-53.2,53.2s1.9,16.1,5.3,23.1c3.8-37.1,32.7-66.8,69.5-71.7Z"/>
      <path d="M-322.7,1116.8c3.4-6.4,5.6-13.5,6.2-21.2,2.3-29.3-19.6-54.9-48.9-57.1-8.3-.6-16.2.6-23.4,3.5,36.7,6.6,64,37.8,66.1,74.8Z"/>
      <path d="M-402.7,1173.8c6.6,2.9,13.9,4.6,21.6,4.6,29.4,0,53.2-23.8,53.2-53.2s-1.9-16.1-5.3-23.1c-3.8,37.1-32.7,66.8-69.5,71.7Z"/>
      <path d="M-454.9,1087.3c-3.4,6.4-5.6,13.5-6.2,21.2-2.3,29.3,19.6,54.9,48.9,57.1,8.3.6,16.2-.6,23.4-3.5-36.7-6.6-64-37.8-66.1-74.8Z"/>
    </g>
    <g>
      <path d="M-532,1238.9v-23.6h7.2v23.3c0,7.6,3.9,11.6,10.4,11.6s10.3-3.8,10.3-11.4v-23.6h7.2v23.2c0,12.2-6.9,18.4-17.6,18.4s-17.4-6.1-17.4-18Z"/>
      <path d="M-390.6,1222h-13v-6.7h33.2v6.7h-13v34.3h-7.3v-34.3Z"/>
      <path d="M-329.3,1222h-13v-6.7h33.2v6.7h-13v34.3h-7.3v-34.3Z"/>
      <path d="M-214.1,1235.9h0c0-11.6,8.9-21.3,21.5-21.3s21.4,9.5,21.4,21.1h0c0,11.6-8.9,21.3-21.5,21.3s-21.4-9.5-21.4-21.1ZM-178.8,1235.9h0c0-8.1-5.8-14.7-13.9-14.7s-13.8,6.5-13.8,14.4h0c0,8.1,5.8,14.6,13.9,14.6s13.8-6.4,13.8-14.4Z"/>
      <polygon points="-443.9 1215 -450.6 1215 -468.6 1256.3 -461.2 1256.3 -457 1246.4 -454.4 1240 -447.4 1223.6 -440.3 1240 -437.7 1246.4 -433.5 1256.3 -425.9 1256.3 -443.9 1215"/>
      <path d="M-254.3,1240.7c5.7-1.6,9.7-5.7,9.7-12.4h0c0-3.7-1.2-6.7-3.4-9-2.6-2.6-6.7-4.1-11.8-4.1h-18.3v41h7.2v-34.4h10.5c5.3,0,8.5,2.4,8.5,6.8h0c0,4.3-3.3,7-8.4,7h-1.5v6.4l10.1,14.3h8.5l-11.1-15.5Z"/>
      <path d="M-585.2,1214.6c-11.7,0-21.2,9.5-21.2,21.2s9.5,21.2,21.2,21.2,21.2-9.5,21.2-21.2-9.5-21.2-21.2-21.2ZM-585.2,1250.3c-8,0-14.5-6.5-14.5-14.5s6.5-14.5,14.5-14.5,14.5,6.5,14.5,14.5-6.5,14.5-14.5,14.5Z"/>
      <rect x="-586.7" y="1214.4" width="7.3" height="46.8" transform="translate(-1046.0687 -49.7476) rotate(-45)"/>
    </g>
    <g>
      <path d="M-551,1296.5c-.5.9-1.1,1.7-1.9,2.3-.8.6-1.7,1.1-2.8,1.4-1.1.3-2.2.5-3.4.5h-5.4v7.8h-2.5v-22.2h8.3c1.2,0,2.4.2,3.4.5,1,.3,1.9.8,2.6,1.4.7.6,1.3,1.3,1.7,2.2s.6,1.9.6,3-.2,2.3-.7,3.2ZM-554.5,1289.8c-1.1-.8-2.5-1.2-4.3-1.2h-5.6v9.7h5.5c.9,0,1.7-.1,2.5-.3.8-.2,1.4-.6,1.9-1,.5-.4,1-.9,1.2-1.6.3-.6.4-1.3.4-2,0-1.6-.5-2.8-1.6-3.6Z"/>
      <path d="M-536.3,1286.3h2.5v19.8h12.5v2.3h-15v-22.2Z"/>
      <path d="M-486.6,1308.4h-2.7l-2.6-5.9h-12.1l-2.6,5.9h-2.6l10.1-22.3h2.3l10.1,22.3ZM-497.8,1289l-5.1,11.3h10.1l-5-11.3Z"/>
      <path d="M-473.2,1288.5v-2.2h17.3v1.7l-14.4,18.3h14.4v2.2h-17.8v-1.7l14.3-18.3h-13.9Z"/>
      <path d="M-420.6,1308.4h-2.7l-2.6-5.9h-12.1l-2.6,5.9h-2.6l10.1-22.3h2.3l10.1,22.3ZM-431.9,1289l-5.1,11.3h10.1l-5-11.3Z"/>
      <path d="M-370.6,1306.5c-.6.5-1.3.9-2,1.2-.7.3-1.5.6-2.3.8-.8.2-1.7.3-2.8.3-1.6,0-3.1-.3-4.4-.9-1.4-.6-2.5-1.4-3.5-2.4-1-1-1.8-2.2-2.3-3.6-.6-1.4-.8-2.9-.8-4.5s.3-3.1.8-4.5c.6-1.4,1.3-2.6,2.3-3.7,1-1,2.2-1.9,3.5-2.5,1.4-.6,2.9-.9,4.5-.9s1.9,0,2.7.3c.8.2,1.6.4,2.3.7.7.3,1.3.7,1.9,1.1s1.2.9,1.7,1.4l-1.7,1.8c-.9-.9-2-1.6-3.1-2.2-1.1-.6-2.4-.9-3.9-.9s-2.4.2-3.4.7c-1,.5-2,1.1-2.7,1.9-.8.8-1.4,1.8-1.8,2.9-.4,1.1-.6,2.3-.6,3.6s.2,2.5.6,3.6c.4,1.1,1,2.1,1.8,2.9.8.8,1.7,1.5,2.7,1.9,1,.5,2.2.7,3.4.7s2.8-.3,3.9-.8c1.1-.6,2.2-1.3,3.2-2.4l1.6,1.6c-.6.6-1.2,1.1-1.8,1.6Z"/>
      <path d="M-338.9,1288.5h-13.5v7.6h12.1v2.3h-12.1v7.8h13.7v2.3h-16.2v-22.2h16v2.3Z"/>
      <path d="M-307.9,1286.3h2.4v22.2h-2l-14.3-18.2v18.2h-2.4v-22.2h2.3l14,17.8v-17.8Z"/>
      <path d="M-281.4,1308.4h-2.5v-19.8h-7.4v-2.3h17.4v2.3h-7.4v19.8Z"/>
      <path d="M-243.7,1288.5h-13.5v7.6h12.1v2.3h-12.1v7.8h13.7v2.3h-16.2v-22.2h16v2.3Z"/>
      <path d="M-213.8,1308.4l-6.4-8.6h-6.3v8.6h-2.5v-22.2h9.5c1.2,0,2.3.2,3.3.5,1,.3,1.8.8,2.5,1.3.7.6,1.2,1.3,1.6,2.1.4.8.6,1.7.6,2.7s-.1,1.8-.4,2.5c-.3.7-.7,1.4-1.2,1.9-.5.5-1.2,1-1.9,1.3-.7.4-1.5.6-2.4.8l6.8,9h-3.1ZM-215.5,1289.7c-1-.8-2.4-1.2-4.2-1.2h-6.9v9h6.8c.8,0,1.6-.1,2.3-.3s1.3-.5,1.8-.9c.5-.4.9-.9,1.2-1.4.3-.6.4-1.2.4-1.9,0-1.4-.5-2.5-1.5-3.3Z"/>
    </g>
  </g>
  <path d="M-603.4,1346.6c137.5-.6,291.7-.6,429.2,0-137.5.6-291.7.6-429.2,0h0Z"/>
  <g>
    <path d="M-472.4,1391.4h3.1v8.8c-2.3,1.9-5.4,2.9-8.6,2.9-6.9,0-12-4.9-12-11.6s5.1-11.6,12.1-11.6,6.6,1.2,8.7,3.5l-2,2c-1.9-1.8-4-2.6-6.6-2.6-5.2,0-9,3.6-9,8.7s3.8,8.7,9,8.7,3.7-.4,5.3-1.5v-7.4Z"/>
    <path d="M-442.3,1397.1h-12l-2.5,5.7h-3.3l10.2-22.6h3.2l10.3,22.6h-3.4l-2.5-5.7ZM-443.4,1394.6l-4.9-11.1-4.9,11.1h9.8Z"/>
    <path d="M-411.5,1402.8l-4.9-6.9c-.5,0-.9,0-1.4,0h-5.6v6.9h-3.2v-22.6h8.8c5.9,0,9.4,3,9.4,7.9s-1.8,6-5,7.1l5.4,7.6h-3.5ZM-411.6,1388.1c0-3.2-2.2-5.1-6.3-5.1h-5.5v10.2h5.5c4.1,0,6.3-1.9,6.3-5.1Z"/>
    <path d="M-396.7,1380.2h9.5c7.3,0,12.2,4.6,12.2,11.3s-4.9,11.3-12.2,11.3h-9.5v-22.6ZM-387.4,1400c5.6,0,9.2-3.4,9.2-8.5s-3.6-8.5-9.2-8.5h-6.1v17h6.1Z"/>
    <path d="M-347.1,1400v2.8h-16.4v-22.6h16v2.8h-12.7v6.9h11.3v2.7h-11.3v7.3h13.2Z"/>
    <path d="M-316,1380.2v22.6h-2.6l-13.6-16.9v16.9h-3.2v-22.6h2.6l13.6,16.9v-16.9h3.2Z"/>
    <path d="M-304.8,1400.2l1.2-2.5c1.7,1.5,4.6,2.6,7.5,2.6s5.6-1.5,5.6-3.5c0-5.5-13.7-2-13.7-10.4s2.7-6.5,8.7-6.5,5.4.7,7.3,2l-1.1,2.6c-2-1.3-4.2-1.8-6.2-1.8-3.8,0-5.5,1.6-5.5,3.6,0,5.5,13.7,2.1,13.7,10.4s-2.8,6.4-8.8,6.4-6.8-1.2-8.7-2.8Z"/>
  </g>
  <g>
    <g>
      <path class="st1" d="M2469.5,750.5c-6.6-2.9-13.9-4.6-21.6-4.6-29.4,0-53.2,23.8-53.2,53.2s1.9,16.1,5.3,23.1c3.8-37.1,32.7-66.8,69.5-71.7Z"/>
      <path class="st1" d="M2521.7,837c3.4-6.4,5.6-13.5,6.2-21.2,2.3-29.3-19.6-54.9-48.9-57.1-8.3-.6-16.2.6-23.4,3.5,36.7,6.6,64,37.8,66.1,74.8Z"/>
      <path class="st1" d="M2441.8,893.9c6.6,2.9,13.9,4.6,21.6,4.6,29.4,0,53.2-23.8,53.2-53.2s-1.9-16.1-5.3-23.1c-3.8,37.1-32.7,66.8-69.5,71.7Z"/>
      <path class="st1" d="M2389.5,807.5c-3.4,6.4-5.6,13.5-6.2,21.2-2.3,29.3,19.6,54.9,48.9,57.1,8.3.6,16.2-.6,23.4-3.5-36.7-6.6-64-37.8-66.1-74.8Z"/>
    </g>
    <g>
      <path class="st1" d="M2312.4,959v-23.6h7.2v23.3c0,7.6,3.9,11.6,10.4,11.6s10.3-3.8,10.3-11.4v-23.6h7.2v23.2c0,12.2-6.9,18.4-17.6,18.4s-17.4-6.1-17.4-18Z"/>
      <path class="st1" d="M2453.8,942.1h-13v-6.7h33.2v6.7h-13v34.3h-7.3v-34.3Z"/>
      <path class="st1" d="M2515.1,942.1h-13v-6.7h33.2v6.7h-13v34.3h-7.3v-34.3Z"/>
      <path class="st1" d="M2630.3,956h0c0-11.6,8.9-21.3,21.5-21.3s21.4,9.5,21.4,21.1h0c0,11.6-8.9,21.3-21.5,21.3s-21.4-9.5-21.4-21.1ZM2665.6,956h0c0-8.1-5.8-14.7-13.9-14.7s-13.8,6.5-13.8,14.4h0c0,8.1,5.8,14.6,13.9,14.6s13.8-6.4,13.8-14.4Z"/>
      <polygon class="st1" points="2400.5 935.2 2393.9 935.2 2375.8 976.4 2383.2 976.4 2387.4 966.5 2390.1 960.1 2397.1 943.8 2404.2 960.1 2406.8 966.5 2410.9 976.4 2418.5 976.4 2400.5 935.2"/>
      <path class="st1" d="M2590.2,960.9c5.7-1.6,9.7-5.7,9.7-12.4h0c0-3.7-1.2-6.7-3.4-9-2.6-2.6-6.7-4.1-11.8-4.1h-18.3v41h7.2v-34.4h10.5c5.3,0,8.5,2.4,8.5,6.8h0c0,4.3-3.3,7-8.4,7h-1.5v6.4l10.1,14.3h8.5l-11.1-15.5Z"/>
      <path class="st1" d="M2259.3,934.7c-11.7,0-21.2,9.5-21.2,21.2s9.5,21.2,21.2,21.2,21.2-9.5,21.2-21.2-9.5-21.2-21.2-21.2ZM2259.3,970.4c-8,0-14.5-6.5-14.5-14.5s6.5-14.5,14.5-14.5,14.5,6.5,14.5,14.5-6.5,14.5-14.5,14.5Z"/>
      <rect class="st1" x="2257.7" y="934.6" width="7.3" height="46.8" transform="translate(-15.0679 1879.6047) rotate(-45)"/>
    </g>
    <g>
      <path class="st1" d="M2293.4,1016.6c-.5.9-1.1,1.7-1.9,2.3-.8.6-1.7,1.1-2.8,1.4-1.1.3-2.2.5-3.4.5h-5.4v7.8h-2.5v-22.2h8.3c1.2,0,2.4.2,3.4.5,1,.3,1.9.8,2.6,1.4.7.6,1.3,1.3,1.7,2.2s.6,1.9.6,3-.2,2.3-.7,3.2ZM2290,1009.9c-1.1-.8-2.5-1.2-4.3-1.2h-5.6v9.7h5.5c.9,0,1.7-.1,2.5-.3.8-.2,1.4-.6,1.9-1,.5-.4,1-.9,1.2-1.6.3-.6.4-1.3.4-2,0-1.6-.5-2.8-1.6-3.6Z"/>
      <path class="st1" d="M2308.2,1006.4h2.5v19.8h12.5v2.3h-15v-22.2Z"/>
      <path class="st1" d="M2357.9,1028.6h-2.7l-2.6-5.9h-12.1l-2.6,5.9h-2.6l10.1-22.3h2.3l10.1,22.3ZM2346.6,1009.2l-5.1,11.3h10.1l-5-11.3Z"/>
      <path class="st1" d="M2371.2,1008.6v-2.2h17.3v1.7l-14.4,18.3h14.4v2.2h-17.8v-1.7l14.3-18.3h-13.9Z"/>
      <path class="st1" d="M2423.8,1028.6h-2.7l-2.6-5.9h-12.1l-2.6,5.9h-2.6l10.1-22.3h2.3l10.1,22.3ZM2412.5,1009.2l-5.1,11.3h10.1l-5-11.3Z"/>
      <path class="st1" d="M2473.9,1026.6c-.6.5-1.3.9-2,1.2-.7.3-1.5.6-2.3.8-.8.2-1.7.3-2.8.3-1.6,0-3.1-.3-4.4-.9-1.4-.6-2.5-1.4-3.5-2.4-1-1-1.8-2.2-2.3-3.6-.6-1.4-.8-2.9-.8-4.5s.3-3.1.8-4.5c.6-1.4,1.3-2.6,2.3-3.7,1-1,2.2-1.9,3.5-2.5,1.4-.6,2.9-.9,4.5-.9s1.9,0,2.7.3c.8.2,1.6.4,2.3.7.7.3,1.3.7,1.9,1.1s1.2.9,1.7,1.4l-1.7,1.8c-.9-.9-2-1.6-3.1-2.2-1.1-.6-2.4-.9-3.9-.9s-2.4.2-3.4.7c-1,.5-2,1.1-2.7,1.9-.8.8-1.4,1.8-1.8,2.9-.4,1.1-.6,2.3-.6,3.6s.2,2.5.6,3.6c.4,1.1,1,2.1,1.8,2.9.8.8,1.7,1.5,2.7,1.9,1,.5,2.2.7,3.4.7s2.8-.3,3.9-.8c1.1-.6,2.2-1.3,3.2-2.4l1.6,1.6c-.6.6-1.2,1.1-1.8,1.6Z"/>
      <path class="st1" d="M2505.5,1008.7h-13.5v7.6h12.1v2.3h-12.1v7.8h13.7v2.3h-16.2v-22.2h16v2.3Z"/>
      <path class="st1" d="M2536.5,1006.4h2.4v22.2h-2l-14.3-18.2v18.2h-2.4v-22.2h2.3l14,17.8v-17.8Z"/>
      <path class="st1" d="M2563.1,1028.6h-2.5v-19.8h-7.4v-2.3h17.4v2.3h-7.4v19.8Z"/>
      <path class="st1" d="M2600.7,1008.7h-13.5v7.6h12.1v2.3h-12.1v7.8h13.7v2.3h-16.2v-22.2h16v2.3Z"/>
      <path class="st1" d="M2630.7,1028.6l-6.4-8.6h-6.3v8.6h-2.5v-22.2h9.5c1.2,0,2.3.2,3.3.5,1,.3,1.8.8,2.5,1.3.7.6,1.2,1.3,1.6,2.1.4.8.6,1.7.6,2.7s-.1,1.8-.4,2.5c-.3.7-.7,1.4-1.2,1.9-.5.5-1.2,1-1.9,1.3-.7.4-1.5.6-2.4.8l6.8,9h-3.1ZM2629,1009.9c-1-.8-2.4-1.2-4.2-1.2h-6.9v9h6.8c.8,0,1.6-.1,2.3-.3s1.3-.5,1.8-.9c.5-.4.9-.9,1.2-1.4.3-.6.4-1.2.4-1.9,0-1.4-.5-2.5-1.5-3.3Z"/>
    </g>
  </g>
  <path class="st1" d="M2241,1066.8c137.5-.6,291.7-.6,429.2,0-137.5.6-291.7.6-429.2,0h0Z"/>
  <g>
    <path class="st1" d="M2361.3,1100.3v22.6h-3.2v-10.1h-13v10.1h-3.2v-22.6h3.2v9.7h13v-9.7h3.2Z"/>
    <path class="st1" d="M2374.4,1113.2v-12.9h3.2v12.7c0,5,2.3,7.3,6.4,7.3s6.4-2.3,6.4-7.3v-12.7h3.1v12.9c0,6.6-3.6,10-9.6,10s-9.6-3.5-9.6-10Z"/>
    <path class="st1" d="M2420.5,1117.3h-12l-2.5,5.7h-3.3l10.2-22.6h3.2l10.3,22.6h-3.4l-2.5-5.7ZM2419.3,1114.7l-4.9-11.1-4.9,11.1h9.8Z"/>
    <path class="st1" d="M2443.5,1115.1v7.8h-3.2v-7.9l-9-14.7h3.5l7.2,11.9,7.3-11.9h3.2l-9,14.8Z"/>
    <path class="st1" d="M2475.2,1117.3h-12l-2.5,5.7h-3.3l10.2-22.6h3.2l10.3,22.6h-3.4l-2.5-5.7ZM2474.1,1114.7l-4.9-11.1-4.9,11.1h9.8Z"/>
    <path class="st1" d="M2488.8,1111.6c0-6.7,5.1-11.6,12-11.6s6.5,1.2,8.6,3.5l-2.1,2c-1.7-1.8-3.9-2.7-6.4-2.7-5.1,0-8.9,3.7-8.9,8.7s3.8,8.7,8.9,8.7,4.6-.9,6.4-2.7l2.1,2c-2.1,2.3-5.1,3.6-8.6,3.6-6.8,0-11.9-4.9-11.9-11.6Z"/>
    <path class="st1" d="M2534.3,1117.3h-12l-2.5,5.7h-3.3l10.2-22.6h3.2l10.3,22.6h-3.4l-2.5-5.7ZM2533.1,1114.7l-4.9-11.1-4.9,11.1h9.8ZM2528.8,1098.5h-2.9l4.4-4.2h3.9l-5.4,4.2Z"/>
    <path class="st1" d="M2569.4,1100.3v22.6h-2.6l-13.6-16.9v16.9h-3.2v-22.6h2.6l13.6,16.9v-16.9h3.2Z"/>
  </g>
</svg>