<?xml version="1.0" encoding="UTF-8"?>
<svg id="Capa_1" xmlns="http://www.w3.org/2000/svg" width="21.6cm" height="27.9cm" version="1.1" viewBox="0 0 612 792">
  <!-- Generator: Adobe Illustrator 30.4.0, SVG Export Plug-In . SVG Version: 2.1.4 Build 226)  -->
  <defs>
    <style>
      .st0 {
        fill: #fff;
      }
    </style>
  </defs>
  <g>
    <g>
      <path class="st0" d="M317.3,198.6c-6.6-2.9-13.9-4.6-21.6-4.6-29.4,0-53.2,23.8-53.2,53.2s1.9,16.1,5.3,23.1c3.8-37.1,32.7-66.8,69.5-71.7Z"/>
      <path class="st0" d="M369.6,285.1c3.4-6.4,5.6-13.5,6.2-21.2,2.3-29.3-19.6-54.9-48.9-57.1-8.3-.6-16.2.6-23.4,3.5,36.7,6.6,64,37.8,66.1,74.8Z"/>
      <path class="st0" d="M289.6,342c6.6,2.9,13.9,4.6,21.6,4.6,29.4,0,53.2-23.8,53.2-53.2s-1.9-16.1-5.3-23.1c-3.8,37.1-32.7,66.8-69.5,71.7Z"/>
      <path class="st0" d="M237.4,255.6c-3.4,6.4-5.6,13.5-6.2,21.2-2.3,29.3,19.6,54.9,48.9,57.1,8.3.6,16.2-.6,23.4-3.5-36.7-6.6-64-37.8-66.1-74.8Z"/>
    </g>
    <g>
      <path class="st0" d="M160.3,407.1v-23.6h7.2v23.3c0,7.6,3.9,11.6,10.4,11.6s10.3-3.8,10.3-11.4v-23.6h7.2v23.2c0,12.2-6.9,18.4-17.6,18.4s-17.4-6.1-17.4-18Z"/>
      <path class="st0" d="M301.6,390.2h-13v-6.7h33.2v6.7h-13v34.3h-7.3v-34.3Z"/>
      <path class="st0" d="M363,390.2h-13v-6.7h33.2v6.7h-13v34.3h-7.3v-34.3Z"/>
      <path class="st0" d="M478.2,404.1h0c0-11.6,8.9-21.3,21.5-21.3s21.4,9.5,21.4,21.1h0c0,11.6-8.9,21.3-21.5,21.3s-21.4-9.5-21.4-21.1ZM513.4,404.1h0c0-8.1-5.8-14.7-13.9-14.7s-13.8,6.5-13.8,14.4h0c0,8.1,5.8,14.6,13.9,14.6s13.8-6.4,13.8-14.4Z"/>
      <polygon class="st0" points="248.4 383.3 241.7 383.3 223.7 424.5 231 424.5 235.3 414.6 237.9 408.2 244.9 391.9 252 408.2 254.6 414.6 258.8 424.5 266.4 424.5 248.4 383.3"/>
      <path class="st0" d="M438,409c5.7-1.6,9.7-5.7,9.7-12.4h0c0-3.7-1.2-6.7-3.4-9-2.6-2.6-6.7-4.1-11.8-4.1h-18.3v41h7.2v-34.4h10.5c5.3,0,8.5,2.4,8.5,6.8h0c0,4.3-3.3,7-8.4,7h-1.5v6.4l10.1,14.3h8.5l-11.1-15.5Z"/>
      <path class="st0" d="M107.1,382.9c-11.7,0-21.2,9.5-21.2,21.2s9.5,21.2,21.2,21.2,21.2-9.5,21.2-21.2-9.5-21.2-21.2-21.2ZM107.1,418.5c-8,0-14.5-6.5-14.5-14.5s6.5-14.5,14.5-14.5,14.5,6.5,14.5,14.5-6.5,14.5-14.5,14.5Z"/>
      <rect class="st0" x="105.6" y="382.7" width="7.3" height="46.8" transform="translate(-255.2 196.1) rotate(-45)"/>
    </g>
    <g>
      <path class="st0" d="M141.2,464.7c-.5.9-1.1,1.7-1.9,2.3-.8.6-1.7,1.1-2.8,1.4-1.1.3-2.2.5-3.4.5h-5.4v7.8h-2.5v-22.2h8.3c1.2,0,2.4.2,3.4.5,1,.3,1.9.8,2.6,1.4.7.6,1.3,1.3,1.7,2.2s.6,1.9.6,3-.2,2.3-.7,3.2ZM137.8,458c-1.1-.8-2.5-1.2-4.3-1.2h-5.6v9.7h5.5c.9,0,1.7-.1,2.5-.3.8-.2,1.4-.6,1.9-1,.5-.4,1-.9,1.2-1.6.3-.6.4-1.3.4-2,0-1.6-.5-2.8-1.6-3.6Z"/>
      <path class="st0" d="M156,454.5h2.5v19.8h12.5v2.3h-15v-22.2Z"/>
      <path class="st0" d="M205.7,476.7h-2.7l-2.6-5.9h-12.1l-2.6,5.9h-2.6l10.1-22.3h2.3l10.1,22.3ZM194.4,457.3l-5.1,11.3h10.1l-5-11.3Z"/>
      <path class="st0" d="M219,456.7v-2.2h17.3v1.7l-14.4,18.3h14.4v2.2h-17.8v-1.7l14.3-18.3h-13.9Z"/>
      <path class="st0" d="M271.6,476.7h-2.7l-2.6-5.9h-12.1l-2.6,5.9h-2.6l10.1-22.3h2.3l10.1,22.3ZM260.3,457.3l-5.1,11.3h10.1l-5-11.3Z"/>
      <path class="st0" d="M321.7,474.8c-.6.5-1.3.9-2,1.2-.7.3-1.5.6-2.3.8-.8.2-1.7.3-2.8.3-1.6,0-3.1-.3-4.4-.9-1.4-.6-2.5-1.4-3.5-2.4-1-1-1.8-2.2-2.3-3.6-.6-1.4-.8-2.9-.8-4.5s.3-3.1.8-4.5c.6-1.4,1.3-2.6,2.3-3.7,1-1,2.2-1.9,3.5-2.5,1.4-.6,2.9-.9,4.5-.9s1.9,0,2.7.3c.8.2,1.6.4,2.3.7.7.3,1.3.7,1.9,1.1s1.2.9,1.7,1.4l-1.7,1.8c-.9-.9-2-1.6-3.1-2.2-1.1-.6-2.4-.9-3.9-.9s-2.4.2-3.4.7c-1,.5-2,1.1-2.7,1.9-.8.8-1.4,1.8-1.8,2.9-.4,1.1-.6,2.3-.6,3.6s.2,2.5.6,3.6c.4,1.1,1,2.1,1.8,2.9.8.8,1.7,1.5,2.7,1.9,1,.5,2.2.7,3.4.7s2.8-.3,3.9-.8c1.1-.6,2.2-1.3,3.2-2.4l1.6,1.6c-.6.6-1.2,1.1-1.8,1.6Z"/>
      <path class="st0" d="M353.4,456.8h-13.5v7.6h12.1v2.3h-12.1v7.8h13.7v2.3h-16.2v-22.2h16v2.3Z"/>
      <path class="st0" d="M384.3,454.5h2.4v22.2h-2l-14.3-18.2v18.2h-2.4v-22.2h2.3l14,17.8v-17.8Z"/>
      <path class="st0" d="M410.9,476.7h-2.5v-19.8h-7.4v-2.3h17.4v2.3h-7.4v19.8Z"/>
      <path class="st0" d="M448.6,456.8h-13.5v7.6h12.1v2.3h-12.1v7.8h13.7v2.3h-16.2v-22.2h16v2.3Z"/>
      <path class="st0" d="M478.5,476.7l-6.4-8.6h-6.3v8.6h-2.5v-22.2h9.5c1.2,0,2.3.2,3.3.5,1,.3,1.8.8,2.5,1.3.7.6,1.2,1.3,1.6,2.1.4.8.6,1.7.6,2.7s-.1,1.8-.4,2.5c-.3.7-.7,1.4-1.2,1.9-.5.5-1.2,1-1.9,1.3-.7.4-1.5.6-2.4.8l6.8,9h-3.1ZM476.8,458c-1-.8-2.4-1.2-4.2-1.2h-6.9v9h6.8c.8,0,1.6-.1,2.3-.3s1.3-.5,1.8-.9c.5-.4.9-.9,1.2-1.4.3-.6.4-1.2.4-1.9,0-1.4-.5-2.5-1.5-3.3Z"/>
    </g>
  </g>
  <path class="st0" d="M88.8,514.9c137.5-.6,291.7-.6,429.2,0-137.5.6-291.7.6-429.2,0h0Z"/>
  <g>
    <path class="st0" d="M209.1,548.4v22.6h-3.2v-10.1h-13v10.1h-3.2v-22.6h3.2v9.7h13v-9.7h3.2Z"/>
    <path class="st0" d="M222.2,561.3v-12.9h3.2v12.7c0,5,2.3,7.3,6.4,7.3s6.4-2.3,6.4-7.3v-12.7h3.1v12.9c0,6.6-3.6,10-9.6,10s-9.6-3.5-9.6-10Z"/>
    <path class="st0" d="M268.3,565.4h-12l-2.5,5.7h-3.3l10.2-22.6h3.2l10.3,22.6h-3.4l-2.5-5.7ZM267.2,562.8l-4.9-11.1-4.9,11.1h9.8Z"/>
    <path class="st0" d="M291.3,563.2v7.8h-3.2v-7.9l-9-14.7h3.5l7.2,11.9,7.3-11.9h3.2l-9,14.8Z"/>
    <path class="st0" d="M323,565.4h-12l-2.5,5.7h-3.3l10.2-22.6h3.2l10.3,22.6h-3.4l-2.5-5.7ZM321.9,562.8l-4.9-11.1-4.9,11.1h9.8Z"/>
    <path class="st0" d="M336.6,559.7c0-6.7,5.1-11.6,12-11.6s6.5,1.2,8.6,3.5l-2.1,2c-1.7-1.8-3.9-2.7-6.4-2.7-5.1,0-8.9,3.7-8.9,8.7s3.8,8.7,8.9,8.7,4.6-.9,6.4-2.7l2.1,2c-2.1,2.3-5.1,3.6-8.6,3.6-6.8,0-11.9-4.9-11.9-11.6Z"/>
    <path class="st0" d="M382.1,565.4h-12l-2.5,5.7h-3.3l10.2-22.6h3.2l10.3,22.6h-3.4l-2.5-5.7ZM381,562.8l-4.9-11.1-4.9,11.1h9.8ZM376.6,546.6h-2.9l4.4-4.2h3.9l-5.4,4.2Z"/>
    <path class="st0" d="M417.2,548.4v22.6h-2.6l-13.6-16.9v16.9h-3.2v-22.6h2.6l13.6,16.9v-16.9h3.2Z"/>
  </g>
</svg>