<svg xmlns="http://www.w3.org/2000/svg" id="Capa_1" width="1920" height="352.4" viewBox="0 0 1920 352.4"><defs><style>      .st0 {        fill: #fff;      }    </style></defs><polygon class="st0" points="166 61 189.1 61 108.5 163.5 198.3 276.8 173.6 276.8 95.5 178.4 67.9 212.7 67.9 276.8 47.3 276.8 47.3 61 67.9 61 67.9 185.4 166 61"></polygon><g><path class="st0" d="M456,276.8h-20.6l90.8-220.9h1.6l91.1,220.9h-21.3l-14.9-37.4h-111.4l-15.2,37.4ZM527,101.3l-48.5,119.6h96.5c.3,0-47.9-119.6-47.9-119.6"></path><polygon class="st0" points="773.6 79.4 706.6 79.4 706.6 61 860.8 61 860.8 79.4 794.2 79.4 794.2 276.8 773.6 276.8 773.6 79.4"></polygon><path class="st0" d="M867.8,168.9c0-63.8,49.5-110.4,110.7-110.4s110.7,46.7,110.7,110.4-49.5,110.4-110.7,110.4-110.7-46.6-110.7-110.4M1067.7,168.9c0-52.4-37.8-91.7-89.2-91.7s-89.2,39.3-89.2,91.7,37.8,91.7,89.2,91.7,89.2-39.3,89.2-91.7"></path><polygon class="st0" points="1101.9 61 1123.5 61 1176.2 228.9 1241.2 56 1242.8 56 1308.2 228.9 1360.6 61 1380.9 61 1309.8 280.9 1308.2 280.9 1242.2 105.5 1174.9 280.9 1173.7 280.9 1101.9 61"></polygon><polygon class="st0" points="1417.6 61 1547.7 61 1547.7 79.4 1438.3 79.4 1438.3 187.3 1536 187.3 1536 205.4 1438.3 205.4 1438.3 258.4 1552.2 258.4 1552.2 276.8 1417.6 276.8 1417.6 61"></polygon><path class="st0" d="M1728.6,276.8h-25.1l-42.8-55.2c-5.7,1-11.4,1.3-17.8,1.3h-26.3v53.9h-20.6V61h47c58.7,0,89.2,34.6,89.2,81.2s-17.1,62.8-50.5,74.6l47,60ZM1641.6,204.8c49.2,0,68.9-26.3,68.9-62.5s-20-62.8-68.9-62.8h-25.1v125.3h25.1Z"></path><path class="st0" d="M1774.3,226.7c11.4,21.6,31.1,34,56.5,34s47-14.6,47-37.1-14.6-34.6-40.6-46.6l-17.4-8.3c-31.1-14.6-49.8-28.6-49.8-58.7s23.8-51.4,55.5-51.4,45.7,10.2,59,31.7l-15.9,10.2c-9.8-16.2-23.2-23.8-42.8-23.8s-35.5,13.6-35.5,32.7,11.7,28.2,38.1,40.6l17.4,8.2c34.6,16.5,52.7,32.4,52.7,64.7s-27,56.5-67.3,56.5-60.3-17.1-74.3-43.5l17.5-9.2Z"></path><path class="st0" d="M262.6,98.4c4.4,6.5,8.6,13.6,15.3,17.6,1.9,1.1,4.1,1.9,6.2,1.2,3.1-1.2,3.7-5.2,3.6-8.5-.7-14.8-8.7-28.2-16.4-40.9-9.5,4.2-18.2,9.7-26.1,16.3,7.5,1.6,13.1,8,17.5,14.3"></path><path class="st0" d="M301.4,83.9c4,18.3,2.4,37.5,6.5,55.9.4,1.6.8,3.2,1.9,4.4,1.7,1.8,4.7,1.9,7,.9,2.3-1,4.1-2.9,5.8-4.7,10.9-11.5,21.8-22.9,32.7-34.4,3.8-4,7.7-8.1,10.8-12.7,3.5-5.2,6-11,7.3-17,0,0,.3-1.6.2-2.1-16.8-10.2-36.4-16.1-57.5-16.1s-15,.8-22.2,2.2v.4c2.9,7.6,5.6,15.2,7.3,23.1"></path><path class="st0" d="M389.6,115.1c-2.1,2-4.3,4-6.7,5.7-2.9,2-6.1,3.4-9.2,5-4.8,2.5-9.4,5.3-14,8.2-6.9,4.3-13.7,8.6-20.6,12.9-2.8,1.7-5.6,3.5-8,5.6-6.6,5.8-10.4,14.5-10.2,23.3,0,1.7.3,3.4,1.4,4.6,1.2,1.3,3.2,1.5,4.9,1.5,4.4,0,8.8-.8,13.2-1.6,21.6-4.1,43.3-8.2,64.9-12.3,3.7-.7,7.4-1.4,11-2.6,3.5-1.1,6.8-2.7,9.9-4.6,0,0,.2-.5.2-1.1-1.8-21.4-9.6-41-21.8-57.2.5,5.3-10.6,8.3-15.2,12.6"></path><path class="st0" d="M248.4,169.4c3.2,2.3,6.5,4.3,10.1,6.1,3.1,1.5,6.4,2.8,9.6,4,6.7,2.6,13.4,5.2,20.1,7.8,4.7,1.8,9.5,3.7,14.5,3.8,1.9,0,4-.3,5.1-1.8.6-.9.8-2,.8-3,.2-5-2.2-9.8-4.9-14-5.2-8.1-11.9-15.1-18.6-21.9-5-5.1-10.1-10.3-15.9-14.5-4.9-3.6-10.2-6.6-15.5-9.6-10.2-5.8-20.5-11.5-31.3-16-3.2,5.2-6.1,10.6-8.5,16.3,7.2,17.2,19.2,32.3,34.4,43"></path><path class="st0" d="M358.5,202c-4.5,1.4-9,3-13.1,5.4-4.2,2.4-7.9,5.7-11.4,9.1-10.3,10.3-18.8,23.6-19.1,38.2-.1,6.2,3.1,15.1,2.8,20.5,0,0,0,.2,0,.3.2.8.2,1.6.2,2.4,0,.6,0,1.1,0,1.7,52.4-.7,95.9-37.8,106.6-87.1-22.3-.4-44.7,2.8-65.9,9.5"></path><path class="st0" d="M288.6,274.7c0,0-.2,0-.2,0,1.8-11.7.8-17.4.4-29.2-.3-6.6-.7-13.3-2.7-19.6-3.4-10.6-11.2-19.7-21.1-24.6-8.6-4.3-18.5-5.5-27.9-7.5-9.4-2.1-19.2-5.4-25.5-12.7-3.2-3.7-5.2-8.3-6-13.1,0,.4,0,.8,0,1.2,0,51.5,35.2,94.7,82.8,107.1,0-.5.1-.9.3-1.4"></path></g></svg>