<?xml version="1.0" encoding="UTF-8"?>
<svg id="Capa_1" xmlns="http://www.w3.org/2000/svg" width="248.2" height="58.7" version="1.1" viewBox="0 0 248.2 58.7">
  <!-- Generator: Adobe Illustrator 30.6.0, SVG Export Plug-In . SVG Version: 2.1.4 Build 109)  -->
  <defs>
    <style>
      .st0 {
        fill: #fff;
      }
    </style>
  </defs>
  <polygon class="st0" points="83.4 12.5 86.8 12.5 92.1 25.9 97.3 12.5 100.6 12.5 93.4 30 90.7 30 83.4 12.5"/>
  <path class="st0" d="M115.2,12.4h2.8l7.7,17.6h-3.2l-1.8-4.2h-8.2l-1.8,4.2h-3.1l7.7-17.6ZM119.6,23l-3-7-3,7h6Z"/>
  <polygon class="st0" points="136.7 12.5 139.8 12.5 139.8 27.1 148.9 27.1 148.9 29.9 136.7 29.9 136.7 12.5"/>
  <polygon class="st0" points="160.1 12.5 163.3 12.5 168.6 20.7 173.9 12.5 177.2 12.5 177.2 29.9 174.1 29.9 174.1 17.4 168.6 25.6 168.5 25.6 163.1 17.5 163.1 29.9 160.1 29.9 160.1 12.5"/>
  <rect class="st0" x="189.8" y="12.5" width="3.1" height="17.4"/>
  <g>
    <path class="st0" d="M205.5,12.5h7.8c2.2,0,3.9.6,5,1.7.9.9,1.4,2.2,1.4,3.8h0c0,2.9-1.7,4.6-4.1,5.3l4.7,6.6h-3.6l-4.3-6.1h-3.8v6.1h-3.1V12.5ZM213.1,21.1c2.2,0,3.6-1.1,3.6-2.9h0c0-1.9-1.3-2.9-3.6-2.9h-4.5v5.9h4.5Z"/>
    <path class="st0" d="M237.6,12.4h2.8l7.7,17.6h-3.2l-1.8-4.2h-8.2l-1.8,4.2h-3.1l7.7-17.6ZM242,23l-3-7-3,7h6Z"/>
    <polygon class="st0" points="126 42.7 127.2 42.7 127.2 53 133.7 53 133.7 54.2 126 54.2 126 42.7"/>
    <rect class="st0" x="141.2" y="42.7" width="1.3" height="11.5"/>
    <polygon class="st0" points="149.8 42.7 151.2 42.7 155.3 52.6 159.4 42.7 160.8 42.7 155.9 54.3 154.7 54.3 149.8 42.7"/>
    <rect class="st0" x="168.2" y="42.7" width="1.3" height="11.5"/>
    <polygon class="st0" points="177.8 42.7 179 42.7 186.2 51.9 186.2 42.7 187.5 42.7 187.5 54.2 186.4 54.2 179 44.7 179 54.2 177.8 54.2 177.8 42.7"/>
    <path class="st0" d="M195.2,48.5h0c0-3.2,2.3-6,5.8-6s3.1.6,4.3,1.5l-.8,1c-.9-.8-1.9-1.3-3.5-1.3-2.5,0-4.4,2.2-4.4,4.7h0c0,2.8,1.8,4.8,4.6,4.8s2.5-.5,3.3-1.2v-2.9h-3.5v-1.2h4.7v4.6c-1.1,1-2.7,1.8-4.6,1.8-3.6,0-5.9-2.6-5.9-5.9"/>
    <path class="st0" d="M15.4,13.1L0,0l23.7,58.7s6.8-8.4,4.9-24.7c0,0-.6-11.4-13.1-20.9"/>
    <path class="st0" d="M44.8,13.1c-12.5,9.5-13.1,20.9-13.1,20.9-1.9,16.4,4.9,24.7,4.9,24.7L60.2,0l-15.4,13.1Z"/>
  </g>
</svg>