<svg xmlns="http://www.w3.org/2000/svg" id="Capa_1" width="593.5" height="156.2" viewBox="0 0 593.5 156.2"><defs><style>      .st0 {        fill: #fff;      }    </style></defs><rect class="st0" x="259.1" y="17.3" width="19.9" height="111.6"></rect><rect class="st0" x="430.9" y="17.3" width="19.9" height="111.6"></rect><polygon class="st0" points="170.2 18.6 170.2 127.7 173.7 127.7 187.9 127.7 229.7 127.7 229.7 109.2 187.9 109.2 187.9 18.6 170.2 18.6"></polygon><path class="st0" d="M89.8,129.5c-30.4,0-55.2-25.3-55.2-56.4s24.7-56.4,55.2-56.4,55.2,25.3,55.2,56.4-24.8,56.4-55.2,56.4M89.8,34.8c-20.7,0-37.5,17.2-37.5,38.4s16.8,38.4,37.5,38.4,37.5-17.2,37.5-38.4-16.8-38.4-37.5-38.4"></path><path class="st0" d="M512.9,36.5l-40.7,90.2h17.9s8.1-18,8.1-18h47.3l8.1,18h17.9l-40.7-90.2-8.9-19.8-8.9,19.8ZM521.8,56.3l15.2,33.6h-30.3l15.2-33.6Z"></path><polygon class="st0" points="387.8 16.7 382.9 27.5 367.6 61.3 354.5 90.5 338.5 55.3 338.6 55.3 328.7 33.4 321.2 16.7 302.4 16.7 345.1 111.3 354.5 132 363.8 111.3 406.5 16.7 387.8 16.7"></polygon></svg>